M48
;GenerationSoftware,Autodesk,EAGLE,9.6.2*%
;CreationDate,2022-06-26T19:38:59Z*%
FMAT,2
ICI,OFF
METRIC,TZ,000.000
T6C0.350
T5C0.700
T4C0.813
T3C0.914
T2C1.016
T1C3.200
%
G90
M71
T1
X17780Y6350
T2
X2540Y97155
X2540Y94615
X2540Y92075
X2540Y89535
X2540Y86995
X2540Y84455
X45720Y97155
X45720Y94615
X45720Y92075
X45720Y89535
X45720Y86995
X45720Y84455
T3
X40640Y6350
X40640Y3810
X38100Y6350
X38100Y3810
X35560Y6350
X35560Y3810
X33020Y6350
X33020Y3810
X30480Y6350
X30480Y3810
T4
X2540Y73025
X3175Y31115
X2540Y70485
X8890Y59055
X13970Y59055
X8890Y56515
X13970Y56515
X39370Y74930
X34290Y74930
X20320Y67945
X20320Y70485
X20320Y73025
X20320Y75565
X20320Y78105
X20320Y80645
X20320Y83185
X20320Y85725
X27940Y78105
X27940Y80645
X27940Y75565
X27940Y73025
X27940Y85725
X27940Y83185
X27940Y70485
X27940Y67945
X20320Y46355
X20320Y48895
X41910Y14605
X44450Y14605
X36195Y15875
X36195Y13335
X20320Y51435
X20320Y53975
X20320Y56515
X20320Y59055
X20320Y61595
X20320Y64135
X27940Y56515
X27940Y59055
X27940Y53975
X27940Y51435
X16510Y34925
X6350Y34925
X8890Y40005
X13970Y40005
X3175Y27305
X3175Y22225
X39370Y69850
X34290Y69850
X36830Y67310
X36830Y69850
X41910Y24130
X31750Y24130
X17780Y22225
X7620Y22225
X31750Y38735
X41910Y38735
X16510Y29845
X6350Y29845
X6350Y17145
X16510Y17145
X7620Y19685
X17780Y19685
X29210Y12065
X19050Y12065
X29210Y17145
X19050Y17145
X16510Y32385
X6350Y32385
X29210Y14605
X19050Y14605
X20320Y19685
X27940Y19685
X39370Y20320
X34290Y20320
X36830Y20320
X6350Y71755
X16510Y71755
X31750Y61595
X41910Y61595
X39370Y28575
X34290Y28575
X44450Y45085
X44450Y47625
X41910Y48895
X31750Y48895
X34290Y34290
X39370Y34290
X31750Y51435
X41910Y51435
X10160Y66675
X12700Y66675
X6350Y83185
X16510Y83185
X6350Y80645
X16510Y80645
X27940Y64135
X16510Y85725
X6350Y78105
X16510Y78105
X16510Y24765
X8890Y24765
X31750Y64135
X41910Y64135
X6350Y61595
X16510Y61595
X4445Y43180
X4445Y38100
X27940Y61595
X3175Y36195
X34290Y53975
X39370Y53975
X13970Y75565
X8890Y75565
X3810Y65405
X6350Y65405
X27940Y22225
X27940Y24765
X27940Y27305
X27940Y29845
X27940Y32385
X27940Y34925
X27940Y37465
X27940Y40005
X27940Y42545
X20320Y42545
X20320Y40005
X20320Y37465
X20320Y34925
X20320Y32385
X20320Y29845
X20320Y27305
X20320Y24765
X20320Y22225
X2540Y79375
X4445Y78105
X2540Y76835
X27940Y48895
X27940Y46355
X39370Y97155
X34290Y97155
X8890Y89535
X13970Y89535
X16510Y45085
X6350Y45085
X11430Y50165
X11430Y52705
X13970Y50165
X6350Y85725
X8890Y50165
X31750Y86995
X41910Y86995
X31750Y89535
X41910Y89535
X16510Y94615
X6350Y94615
X31750Y92075
X41910Y92075
T5
X20320Y89535
X20320Y92075
X20320Y94615
X20320Y97155
X27940Y97155
X27940Y94615
X27940Y92075
X27940Y89535
T6
X7620Y81915
X33020Y44450
X33020Y40640
X25400Y33655
X22860Y84455
X22860Y62865
X6350Y88265
X17780Y90805
X15240Y93345
X15240Y67945
X44450Y81915
X6350Y26035
X40640Y80645
X44450Y59055
X31750Y59055
X11430Y79375
X11430Y63500
X43180Y71755
X33020Y46355
X33020Y88265
X41910Y70485
X24130Y86995
X45720Y80645
X44450Y50165
X15240Y64135
X17780Y41275
X10160Y81915
X10160Y78105
X39370Y73025
X16510Y73025
X35560Y61595
X43180Y28575
X17780Y71755
X24130Y18415
X24130Y42545
X24130Y73025
X24130Y83185
X11430Y36195
X36830Y40005
X36830Y57785
X31750Y27305
X31750Y34925
X31750Y13335
X30480Y60325
X20320Y13335
X39370Y51435
X39370Y47625
X44450Y41275
X33655Y93345
M30