G04 EAGLE Gerber RS-274X export*
G75*
%MOMM*%
%FSLAX34Y34*%
%LPD*%
%INBoard Outline*%
%IPPOS*%
%AMOC8*
5,1,8,0,0,1.08239X$1,22.5*%
G01*
%ADD10C,0.000000*%
%ADD11C,0.254000*%


D10*
X0Y0D02*
X482600Y0D01*
X482600Y996950D01*
X0Y996850D01*
X0Y0D01*
X161800Y63500D02*
X161805Y63893D01*
X161819Y64285D01*
X161843Y64677D01*
X161877Y65068D01*
X161920Y65459D01*
X161973Y65848D01*
X162036Y66235D01*
X162107Y66621D01*
X162189Y67006D01*
X162279Y67388D01*
X162380Y67767D01*
X162489Y68145D01*
X162608Y68519D01*
X162735Y68890D01*
X162872Y69258D01*
X163018Y69623D01*
X163173Y69984D01*
X163336Y70341D01*
X163508Y70694D01*
X163689Y71042D01*
X163879Y71386D01*
X164076Y71726D01*
X164282Y72060D01*
X164496Y72389D01*
X164719Y72713D01*
X164949Y73031D01*
X165186Y73344D01*
X165432Y73650D01*
X165685Y73951D01*
X165945Y74245D01*
X166212Y74533D01*
X166486Y74814D01*
X166767Y75088D01*
X167055Y75355D01*
X167349Y75615D01*
X167650Y75868D01*
X167956Y76114D01*
X168269Y76351D01*
X168587Y76581D01*
X168911Y76804D01*
X169240Y77018D01*
X169574Y77224D01*
X169914Y77421D01*
X170258Y77611D01*
X170606Y77792D01*
X170959Y77964D01*
X171316Y78127D01*
X171677Y78282D01*
X172042Y78428D01*
X172410Y78565D01*
X172781Y78692D01*
X173155Y78811D01*
X173533Y78920D01*
X173912Y79021D01*
X174294Y79111D01*
X174679Y79193D01*
X175065Y79264D01*
X175452Y79327D01*
X175841Y79380D01*
X176232Y79423D01*
X176623Y79457D01*
X177015Y79481D01*
X177407Y79495D01*
X177800Y79500D01*
X178193Y79495D01*
X178585Y79481D01*
X178977Y79457D01*
X179368Y79423D01*
X179759Y79380D01*
X180148Y79327D01*
X180535Y79264D01*
X180921Y79193D01*
X181306Y79111D01*
X181688Y79021D01*
X182067Y78920D01*
X182445Y78811D01*
X182819Y78692D01*
X183190Y78565D01*
X183558Y78428D01*
X183923Y78282D01*
X184284Y78127D01*
X184641Y77964D01*
X184994Y77792D01*
X185342Y77611D01*
X185686Y77421D01*
X186026Y77224D01*
X186360Y77018D01*
X186689Y76804D01*
X187013Y76581D01*
X187331Y76351D01*
X187644Y76114D01*
X187950Y75868D01*
X188251Y75615D01*
X188545Y75355D01*
X188833Y75088D01*
X189114Y74814D01*
X189388Y74533D01*
X189655Y74245D01*
X189915Y73951D01*
X190168Y73650D01*
X190414Y73344D01*
X190651Y73031D01*
X190881Y72713D01*
X191104Y72389D01*
X191318Y72060D01*
X191524Y71726D01*
X191721Y71386D01*
X191911Y71042D01*
X192092Y70694D01*
X192264Y70341D01*
X192427Y69984D01*
X192582Y69623D01*
X192728Y69258D01*
X192865Y68890D01*
X192992Y68519D01*
X193111Y68145D01*
X193220Y67767D01*
X193321Y67388D01*
X193411Y67006D01*
X193493Y66621D01*
X193564Y66235D01*
X193627Y65848D01*
X193680Y65459D01*
X193723Y65068D01*
X193757Y64677D01*
X193781Y64285D01*
X193795Y63893D01*
X193800Y63500D01*
X193795Y63107D01*
X193781Y62715D01*
X193757Y62323D01*
X193723Y61932D01*
X193680Y61541D01*
X193627Y61152D01*
X193564Y60765D01*
X193493Y60379D01*
X193411Y59994D01*
X193321Y59612D01*
X193220Y59233D01*
X193111Y58855D01*
X192992Y58481D01*
X192865Y58110D01*
X192728Y57742D01*
X192582Y57377D01*
X192427Y57016D01*
X192264Y56659D01*
X192092Y56306D01*
X191911Y55958D01*
X191721Y55614D01*
X191524Y55274D01*
X191318Y54940D01*
X191104Y54611D01*
X190881Y54287D01*
X190651Y53969D01*
X190414Y53656D01*
X190168Y53350D01*
X189915Y53049D01*
X189655Y52755D01*
X189388Y52467D01*
X189114Y52186D01*
X188833Y51912D01*
X188545Y51645D01*
X188251Y51385D01*
X187950Y51132D01*
X187644Y50886D01*
X187331Y50649D01*
X187013Y50419D01*
X186689Y50196D01*
X186360Y49982D01*
X186026Y49776D01*
X185686Y49579D01*
X185342Y49389D01*
X184994Y49208D01*
X184641Y49036D01*
X184284Y48873D01*
X183923Y48718D01*
X183558Y48572D01*
X183190Y48435D01*
X182819Y48308D01*
X182445Y48189D01*
X182067Y48080D01*
X181688Y47979D01*
X181306Y47889D01*
X180921Y47807D01*
X180535Y47736D01*
X180148Y47673D01*
X179759Y47620D01*
X179368Y47577D01*
X178977Y47543D01*
X178585Y47519D01*
X178193Y47505D01*
X177800Y47500D01*
X177407Y47505D01*
X177015Y47519D01*
X176623Y47543D01*
X176232Y47577D01*
X175841Y47620D01*
X175452Y47673D01*
X175065Y47736D01*
X174679Y47807D01*
X174294Y47889D01*
X173912Y47979D01*
X173533Y48080D01*
X173155Y48189D01*
X172781Y48308D01*
X172410Y48435D01*
X172042Y48572D01*
X171677Y48718D01*
X171316Y48873D01*
X170959Y49036D01*
X170606Y49208D01*
X170258Y49389D01*
X169914Y49579D01*
X169574Y49776D01*
X169240Y49982D01*
X168911Y50196D01*
X168587Y50419D01*
X168269Y50649D01*
X167956Y50886D01*
X167650Y51132D01*
X167349Y51385D01*
X167055Y51645D01*
X166767Y51912D01*
X166486Y52186D01*
X166212Y52467D01*
X165945Y52755D01*
X165685Y53049D01*
X165432Y53350D01*
X165186Y53656D01*
X164949Y53969D01*
X164719Y54287D01*
X164496Y54611D01*
X164282Y54940D01*
X164076Y55274D01*
X163879Y55614D01*
X163689Y55958D01*
X163508Y56306D01*
X163336Y56659D01*
X163173Y57016D01*
X163018Y57377D01*
X162872Y57742D01*
X162735Y58110D01*
X162608Y58481D01*
X162489Y58855D01*
X162380Y59233D01*
X162279Y59612D01*
X162189Y59994D01*
X162107Y60379D01*
X162036Y60765D01*
X161973Y61152D01*
X161920Y61541D01*
X161877Y61932D01*
X161843Y62323D01*
X161819Y62715D01*
X161805Y63107D01*
X161800Y63500D01*
D11*
X0Y0D02*
X482600Y0D01*
X482600Y996950D01*
X0Y996850D01*
X0Y0D01*
X193800Y62976D02*
X193732Y61931D01*
X193595Y60892D01*
X193390Y59865D01*
X193119Y58853D01*
X192783Y57861D01*
X192382Y56893D01*
X191918Y55954D01*
X191395Y55046D01*
X190813Y54175D01*
X190175Y53344D01*
X189484Y52557D01*
X188743Y51816D01*
X187956Y51125D01*
X187125Y50488D01*
X186254Y49906D01*
X185346Y49382D01*
X184407Y48918D01*
X183439Y48517D01*
X182447Y48181D01*
X181435Y47910D01*
X180408Y47705D01*
X179369Y47569D01*
X178324Y47500D01*
X177276Y47500D01*
X176231Y47569D01*
X175192Y47705D01*
X174165Y47910D01*
X173153Y48181D01*
X172161Y48517D01*
X171193Y48918D01*
X170254Y49382D01*
X169346Y49906D01*
X168475Y50488D01*
X167644Y51125D01*
X166857Y51816D01*
X166116Y52557D01*
X165425Y53344D01*
X164788Y54175D01*
X164206Y55046D01*
X163682Y55954D01*
X163218Y56893D01*
X162817Y57861D01*
X162481Y58853D01*
X162210Y59865D01*
X162005Y60892D01*
X161869Y61931D01*
X161800Y62976D01*
X161800Y64024D01*
X161869Y65069D01*
X162005Y66108D01*
X162210Y67135D01*
X162481Y68147D01*
X162817Y69139D01*
X163218Y70107D01*
X163682Y71046D01*
X164206Y71954D01*
X164788Y72825D01*
X165425Y73656D01*
X166116Y74443D01*
X166857Y75184D01*
X167644Y75875D01*
X168475Y76513D01*
X169346Y77095D01*
X170254Y77618D01*
X171193Y78082D01*
X172161Y78483D01*
X173153Y78819D01*
X174165Y79090D01*
X175192Y79295D01*
X176231Y79432D01*
X177276Y79500D01*
X178324Y79500D01*
X179369Y79432D01*
X180408Y79295D01*
X181435Y79090D01*
X182447Y78819D01*
X183439Y78483D01*
X184407Y78082D01*
X185346Y77618D01*
X186254Y77095D01*
X187125Y76513D01*
X187956Y75875D01*
X188743Y75184D01*
X189484Y74443D01*
X190175Y73656D01*
X190813Y72825D01*
X191395Y71954D01*
X191918Y71046D01*
X192382Y70107D01*
X192783Y69139D01*
X193119Y68147D01*
X193390Y67135D01*
X193595Y66108D01*
X193732Y65069D01*
X193800Y64024D01*
X193800Y62976D01*
M02*
