G04 EAGLE Gerber RS-274X export*
G75*
%MOMM*%
%FSLAX34Y34*%
%LPD*%
%INBottom Copper*%
%IPPOS*%
%AMOC8*
5,1,8,0,0,1.08239X$1,22.5*%
G01*
%ADD10P,1.429621X8X112.500000*%
%ADD11P,1.429621X8X22.500000*%
%ADD12P,1.429621X8X292.500000*%
%ADD13C,1.208000*%
%ADD14C,1.650000*%
%ADD15P,1.429621X8X202.500000*%
%ADD16C,1.320800*%
%ADD17R,1.676400X1.676400*%
%ADD18P,1.814519X8X292.500000*%
%ADD19R,3.116000X3.116000*%
%ADD20C,1.508000*%
%ADD21C,1.524000*%
%ADD22C,0.609600*%
%ADD23C,0.756400*%
%ADD24C,0.406400*%

G36*
X45661Y10173D02*
X45661Y10173D01*
X45787Y10176D01*
X45861Y10193D01*
X45936Y10201D01*
X46057Y10238D01*
X46180Y10266D01*
X46249Y10297D01*
X46321Y10319D01*
X46432Y10379D01*
X46547Y10431D01*
X46609Y10475D01*
X46675Y10511D01*
X46772Y10591D01*
X46875Y10665D01*
X46926Y10720D01*
X46984Y10768D01*
X47063Y10867D01*
X47150Y10959D01*
X47189Y11023D01*
X47237Y11082D01*
X47295Y11194D01*
X47361Y11302D01*
X47387Y11373D01*
X47422Y11439D01*
X47457Y11561D01*
X47501Y11679D01*
X47513Y11754D01*
X47534Y11826D01*
X47544Y11952D01*
X47563Y12077D01*
X47560Y12152D01*
X47566Y12228D01*
X47552Y12353D01*
X47546Y12479D01*
X47528Y12553D01*
X47519Y12627D01*
X47480Y12747D01*
X47450Y12870D01*
X47418Y12938D01*
X47395Y13010D01*
X47333Y13120D01*
X47279Y13235D01*
X47234Y13295D01*
X47197Y13361D01*
X47114Y13456D01*
X47039Y13558D01*
X46983Y13608D01*
X46934Y13665D01*
X46834Y13743D01*
X46740Y13828D01*
X46665Y13874D01*
X46615Y13912D01*
X46550Y13945D01*
X46458Y14002D01*
X45144Y14671D01*
X43770Y15669D01*
X42569Y16870D01*
X41571Y18244D01*
X40800Y19758D01*
X40347Y21151D01*
X50082Y21151D01*
X50100Y21152D01*
X50117Y21151D01*
X50300Y21172D01*
X50482Y21191D01*
X50499Y21196D01*
X50517Y21198D01*
X50692Y21255D01*
X50792Y21286D01*
X50799Y21282D01*
X50977Y21234D01*
X51152Y21184D01*
X51170Y21182D01*
X51187Y21178D01*
X51518Y21151D01*
X61253Y21151D01*
X60800Y19758D01*
X60029Y18244D01*
X59031Y16870D01*
X57830Y15669D01*
X56456Y14671D01*
X55142Y14002D01*
X55036Y13934D01*
X54925Y13873D01*
X54867Y13825D01*
X54804Y13784D01*
X54713Y13697D01*
X54616Y13616D01*
X54568Y13557D01*
X54514Y13504D01*
X54443Y13400D01*
X54363Y13302D01*
X54329Y13235D01*
X54286Y13173D01*
X54236Y13056D01*
X54178Y12945D01*
X54157Y12872D01*
X54127Y12803D01*
X54101Y12679D01*
X54066Y12558D01*
X54060Y12483D01*
X54045Y12409D01*
X54044Y12282D01*
X54034Y12156D01*
X54042Y12081D01*
X54042Y12006D01*
X54066Y11882D01*
X54081Y11757D01*
X54104Y11685D01*
X54118Y11611D01*
X54166Y11494D01*
X54205Y11374D01*
X54242Y11308D01*
X54271Y11238D01*
X54341Y11133D01*
X54403Y11023D01*
X54453Y10966D01*
X54494Y10903D01*
X54584Y10814D01*
X54666Y10718D01*
X54726Y10672D01*
X54779Y10619D01*
X54885Y10549D01*
X54985Y10472D01*
X55052Y10438D01*
X55115Y10396D01*
X55232Y10349D01*
X55345Y10292D01*
X55418Y10273D01*
X55488Y10244D01*
X55612Y10221D01*
X55734Y10188D01*
X55821Y10181D01*
X55883Y10169D01*
X55957Y10170D01*
X56065Y10161D01*
X152546Y10161D01*
X152564Y10163D01*
X152582Y10161D01*
X152764Y10182D01*
X152947Y10201D01*
X152964Y10206D01*
X152981Y10208D01*
X153156Y10265D01*
X153332Y10319D01*
X153347Y10327D01*
X153364Y10333D01*
X153524Y10423D01*
X153686Y10511D01*
X153699Y10522D01*
X153715Y10531D01*
X153854Y10651D01*
X153995Y10768D01*
X154006Y10782D01*
X154020Y10794D01*
X154132Y10939D01*
X154247Y11082D01*
X154255Y11098D01*
X154266Y11112D01*
X154348Y11277D01*
X154433Y11439D01*
X154438Y11456D01*
X154446Y11472D01*
X154493Y11651D01*
X154544Y11826D01*
X154546Y11844D01*
X154550Y11861D01*
X154577Y12192D01*
X154577Y16151D01*
X164782Y16151D01*
X164800Y16152D01*
X164817Y16151D01*
X165000Y16172D01*
X165182Y16191D01*
X165199Y16196D01*
X165217Y16198D01*
X165392Y16255D01*
X165492Y16286D01*
X165499Y16282D01*
X165677Y16234D01*
X165852Y16184D01*
X165870Y16182D01*
X165887Y16178D01*
X166218Y16151D01*
X176423Y16151D01*
X176423Y12192D01*
X176425Y12174D01*
X176423Y12156D01*
X176444Y11974D01*
X176463Y11791D01*
X176468Y11774D01*
X176470Y11757D01*
X176527Y11582D01*
X176581Y11406D01*
X176589Y11391D01*
X176595Y11374D01*
X176685Y11214D01*
X176773Y11052D01*
X176784Y11039D01*
X176793Y11023D01*
X176913Y10884D01*
X177030Y10743D01*
X177044Y10732D01*
X177056Y10718D01*
X177201Y10606D01*
X177344Y10491D01*
X177360Y10483D01*
X177374Y10472D01*
X177539Y10390D01*
X177701Y10305D01*
X177718Y10300D01*
X177734Y10292D01*
X177913Y10245D01*
X178088Y10194D01*
X178106Y10192D01*
X178123Y10188D01*
X178454Y10161D01*
X180325Y10161D01*
X180334Y10162D01*
X180343Y10161D01*
X180535Y10182D01*
X180726Y10201D01*
X180734Y10203D01*
X180743Y10204D01*
X180926Y10262D01*
X181111Y10319D01*
X181119Y10323D01*
X181127Y10326D01*
X181295Y10419D01*
X181465Y10511D01*
X181472Y10516D01*
X181479Y10521D01*
X181627Y10646D01*
X181774Y10768D01*
X181780Y10775D01*
X181786Y10781D01*
X181906Y10933D01*
X182026Y11082D01*
X182030Y11090D01*
X182036Y11097D01*
X182123Y11269D01*
X182212Y11439D01*
X182214Y11448D01*
X182218Y11456D01*
X182270Y11642D01*
X182323Y11826D01*
X182324Y11835D01*
X182326Y11844D01*
X182340Y12036D01*
X182356Y12228D01*
X182355Y12236D01*
X182356Y12245D01*
X182331Y12438D01*
X182309Y12627D01*
X182306Y12636D01*
X182305Y12645D01*
X182244Y12828D01*
X182184Y13010D01*
X182180Y13018D01*
X182177Y13026D01*
X182082Y13192D01*
X181986Y13361D01*
X181981Y13368D01*
X181976Y13375D01*
X181762Y13628D01*
X180593Y14797D01*
X180593Y23003D01*
X186397Y28807D01*
X194603Y28807D01*
X200407Y23003D01*
X200407Y14797D01*
X199238Y13628D01*
X199233Y13621D01*
X199226Y13616D01*
X199106Y13466D01*
X198983Y13317D01*
X198979Y13309D01*
X198974Y13302D01*
X198885Y13132D01*
X198795Y12961D01*
X198792Y12952D01*
X198788Y12945D01*
X198735Y12760D01*
X198680Y12575D01*
X198679Y12566D01*
X198677Y12558D01*
X198661Y12367D01*
X198644Y12174D01*
X198645Y12165D01*
X198644Y12156D01*
X198666Y11967D01*
X198687Y11774D01*
X198690Y11765D01*
X198691Y11757D01*
X198750Y11575D01*
X198809Y11390D01*
X198813Y11382D01*
X198816Y11374D01*
X198910Y11207D01*
X199003Y11038D01*
X199009Y11031D01*
X199014Y11023D01*
X199139Y10878D01*
X199264Y10731D01*
X199271Y10725D01*
X199277Y10718D01*
X199427Y10602D01*
X199580Y10481D01*
X199588Y10477D01*
X199595Y10472D01*
X199766Y10386D01*
X199939Y10299D01*
X199947Y10296D01*
X199955Y10292D01*
X200141Y10242D01*
X200327Y10191D01*
X200335Y10190D01*
X200344Y10188D01*
X200675Y10161D01*
X205325Y10161D01*
X205334Y10162D01*
X205343Y10161D01*
X205535Y10182D01*
X205726Y10201D01*
X205734Y10203D01*
X205743Y10204D01*
X205926Y10262D01*
X206111Y10319D01*
X206119Y10323D01*
X206127Y10326D01*
X206295Y10419D01*
X206465Y10511D01*
X206472Y10516D01*
X206479Y10521D01*
X206627Y10646D01*
X206774Y10768D01*
X206780Y10775D01*
X206786Y10781D01*
X206906Y10933D01*
X207026Y11082D01*
X207030Y11090D01*
X207036Y11097D01*
X207123Y11269D01*
X207212Y11439D01*
X207214Y11448D01*
X207218Y11456D01*
X207270Y11642D01*
X207323Y11826D01*
X207324Y11835D01*
X207326Y11844D01*
X207340Y12036D01*
X207356Y12228D01*
X207355Y12236D01*
X207356Y12245D01*
X207331Y12438D01*
X207309Y12627D01*
X207306Y12636D01*
X207305Y12645D01*
X207244Y12828D01*
X207184Y13010D01*
X207180Y13018D01*
X207177Y13026D01*
X207082Y13192D01*
X206986Y13361D01*
X206981Y13368D01*
X206976Y13375D01*
X206762Y13628D01*
X205593Y14797D01*
X205593Y23003D01*
X211397Y28807D01*
X219603Y28807D01*
X225407Y23003D01*
X225407Y14797D01*
X224238Y13628D01*
X224233Y13621D01*
X224226Y13616D01*
X224106Y13466D01*
X223983Y13317D01*
X223979Y13309D01*
X223974Y13302D01*
X223885Y13132D01*
X223795Y12961D01*
X223792Y12952D01*
X223788Y12945D01*
X223735Y12760D01*
X223680Y12575D01*
X223679Y12566D01*
X223677Y12558D01*
X223661Y12367D01*
X223644Y12174D01*
X223645Y12165D01*
X223644Y12156D01*
X223666Y11967D01*
X223687Y11774D01*
X223690Y11765D01*
X223691Y11757D01*
X223750Y11575D01*
X223809Y11390D01*
X223813Y11382D01*
X223816Y11374D01*
X223910Y11207D01*
X224003Y11038D01*
X224009Y11031D01*
X224014Y11023D01*
X224139Y10878D01*
X224264Y10731D01*
X224271Y10725D01*
X224277Y10718D01*
X224427Y10602D01*
X224580Y10481D01*
X224588Y10477D01*
X224595Y10472D01*
X224766Y10386D01*
X224939Y10299D01*
X224947Y10296D01*
X224955Y10292D01*
X225141Y10242D01*
X225327Y10191D01*
X225335Y10190D01*
X225344Y10188D01*
X225675Y10161D01*
X407485Y10161D01*
X407611Y10173D01*
X407737Y10176D01*
X407811Y10193D01*
X407886Y10201D01*
X408007Y10238D01*
X408130Y10266D01*
X408199Y10297D01*
X408271Y10319D01*
X408382Y10379D01*
X408497Y10431D01*
X408559Y10475D01*
X408625Y10511D01*
X408722Y10591D01*
X408825Y10665D01*
X408876Y10720D01*
X408934Y10768D01*
X409013Y10867D01*
X409100Y10959D01*
X409139Y11023D01*
X409187Y11082D01*
X409245Y11194D01*
X409311Y11302D01*
X409337Y11373D01*
X409372Y11439D01*
X409407Y11561D01*
X409451Y11679D01*
X409463Y11754D01*
X409484Y11826D01*
X409494Y11952D01*
X409513Y12077D01*
X409510Y12152D01*
X409516Y12228D01*
X409502Y12353D01*
X409496Y12479D01*
X409478Y12553D01*
X409469Y12627D01*
X409430Y12747D01*
X409400Y12870D01*
X409368Y12938D01*
X409345Y13010D01*
X409283Y13120D01*
X409229Y13235D01*
X409184Y13295D01*
X409147Y13361D01*
X409064Y13456D01*
X408989Y13558D01*
X408933Y13608D01*
X408884Y13665D01*
X408784Y13743D01*
X408690Y13828D01*
X408615Y13874D01*
X408565Y13912D01*
X408500Y13945D01*
X408408Y14002D01*
X407094Y14671D01*
X405720Y15669D01*
X404519Y16870D01*
X403521Y18244D01*
X402750Y19758D01*
X402297Y21151D01*
X412032Y21151D01*
X412050Y21152D01*
X412067Y21151D01*
X412250Y21172D01*
X412432Y21191D01*
X412449Y21196D01*
X412467Y21198D01*
X412642Y21255D01*
X412742Y21286D01*
X412749Y21282D01*
X412927Y21234D01*
X413102Y21184D01*
X413120Y21182D01*
X413137Y21178D01*
X413468Y21151D01*
X423203Y21151D01*
X422750Y19758D01*
X421979Y18244D01*
X420981Y16870D01*
X419780Y15669D01*
X418406Y14671D01*
X417092Y14002D01*
X416986Y13934D01*
X416875Y13873D01*
X416817Y13825D01*
X416754Y13784D01*
X416663Y13697D01*
X416566Y13616D01*
X416519Y13557D01*
X416464Y13504D01*
X416393Y13400D01*
X416313Y13302D01*
X416279Y13235D01*
X416236Y13173D01*
X416186Y13057D01*
X416128Y12945D01*
X416107Y12872D01*
X416077Y12803D01*
X416051Y12679D01*
X416017Y12558D01*
X416010Y12482D01*
X415995Y12409D01*
X415994Y12282D01*
X415984Y12156D01*
X415992Y12081D01*
X415992Y12006D01*
X416016Y11882D01*
X416031Y11757D01*
X416054Y11685D01*
X416068Y11611D01*
X416116Y11494D01*
X416155Y11374D01*
X416192Y11308D01*
X416221Y11238D01*
X416291Y11133D01*
X416353Y11023D01*
X416403Y10966D01*
X416444Y10903D01*
X416534Y10814D01*
X416616Y10718D01*
X416676Y10672D01*
X416729Y10619D01*
X416835Y10549D01*
X416935Y10472D01*
X417002Y10438D01*
X417065Y10396D01*
X417182Y10349D01*
X417295Y10292D01*
X417368Y10273D01*
X417438Y10244D01*
X417562Y10221D01*
X417684Y10188D01*
X417771Y10181D01*
X417833Y10169D01*
X417907Y10170D01*
X418015Y10161D01*
X470408Y10161D01*
X470426Y10163D01*
X470444Y10161D01*
X470626Y10182D01*
X470809Y10201D01*
X470826Y10206D01*
X470843Y10208D01*
X471018Y10265D01*
X471194Y10319D01*
X471209Y10327D01*
X471226Y10333D01*
X471386Y10423D01*
X471548Y10511D01*
X471561Y10522D01*
X471577Y10531D01*
X471716Y10651D01*
X471857Y10768D01*
X471868Y10782D01*
X471882Y10794D01*
X471994Y10939D01*
X472109Y11082D01*
X472117Y11098D01*
X472128Y11112D01*
X472210Y11277D01*
X472295Y11439D01*
X472300Y11456D01*
X472308Y11472D01*
X472355Y11651D01*
X472406Y11826D01*
X472408Y11844D01*
X472412Y11861D01*
X472439Y12192D01*
X472439Y660314D01*
X472437Y660332D01*
X472439Y660350D01*
X472418Y660532D01*
X472399Y660715D01*
X472394Y660732D01*
X472392Y660749D01*
X472335Y660924D01*
X472281Y661100D01*
X472273Y661115D01*
X472267Y661132D01*
X472177Y661292D01*
X472089Y661454D01*
X472078Y661467D01*
X472069Y661483D01*
X471949Y661622D01*
X471832Y661763D01*
X471818Y661774D01*
X471806Y661788D01*
X471661Y661900D01*
X471518Y662015D01*
X471502Y662023D01*
X471488Y662034D01*
X471323Y662116D01*
X471161Y662201D01*
X471144Y662206D01*
X471128Y662214D01*
X470949Y662261D01*
X470774Y662312D01*
X470756Y662314D01*
X470739Y662318D01*
X470408Y662345D01*
X441538Y662345D01*
X440645Y663238D01*
X440645Y695662D01*
X441538Y696555D01*
X470408Y696555D01*
X470426Y696557D01*
X470444Y696555D01*
X470626Y696576D01*
X470809Y696595D01*
X470826Y696600D01*
X470843Y696602D01*
X471018Y696659D01*
X471194Y696713D01*
X471209Y696721D01*
X471226Y696727D01*
X471386Y696817D01*
X471548Y696905D01*
X471561Y696916D01*
X471577Y696925D01*
X471716Y697045D01*
X471857Y697162D01*
X471868Y697176D01*
X471882Y697188D01*
X471994Y697333D01*
X472109Y697476D01*
X472117Y697492D01*
X472128Y697506D01*
X472210Y697671D01*
X472295Y697833D01*
X472300Y697850D01*
X472308Y697866D01*
X472355Y698045D01*
X472406Y698220D01*
X472408Y698238D01*
X472412Y698255D01*
X472439Y698586D01*
X472439Y834768D01*
X472438Y834781D01*
X472439Y834795D01*
X472418Y834980D01*
X472399Y835168D01*
X472395Y835181D01*
X472394Y835195D01*
X472337Y835372D01*
X472281Y835553D01*
X472275Y835565D01*
X472271Y835578D01*
X472179Y835743D01*
X472089Y835907D01*
X472081Y835918D01*
X472074Y835929D01*
X471952Y836073D01*
X471832Y836217D01*
X471821Y836225D01*
X471813Y836235D01*
X471664Y836352D01*
X471518Y836469D01*
X471506Y836475D01*
X471496Y836483D01*
X471326Y836568D01*
X471161Y836655D01*
X471148Y836658D01*
X471136Y836664D01*
X470953Y836714D01*
X470774Y836766D01*
X470760Y836767D01*
X470747Y836771D01*
X470559Y836783D01*
X470372Y836799D01*
X470359Y836797D01*
X470346Y836798D01*
X470158Y836774D01*
X469973Y836752D01*
X469960Y836748D01*
X469947Y836746D01*
X469631Y836644D01*
X466639Y835405D01*
X463804Y835405D01*
X463786Y835403D01*
X463768Y835405D01*
X463586Y835384D01*
X463403Y835365D01*
X463386Y835360D01*
X463369Y835358D01*
X463194Y835301D01*
X463018Y835247D01*
X463003Y835239D01*
X462986Y835233D01*
X462826Y835143D01*
X462664Y835055D01*
X462651Y835044D01*
X462635Y835035D01*
X462496Y834915D01*
X462355Y834798D01*
X462344Y834784D01*
X462330Y834772D01*
X462218Y834627D01*
X462103Y834484D01*
X462095Y834468D01*
X462084Y834454D01*
X462002Y834289D01*
X461917Y834127D01*
X461912Y834110D01*
X461904Y834094D01*
X461857Y833915D01*
X461806Y833740D01*
X461804Y833722D01*
X461800Y833705D01*
X461773Y833374D01*
X461773Y748390D01*
X461077Y746710D01*
X430618Y716251D01*
X430601Y716230D01*
X430580Y716213D01*
X430473Y716075D01*
X430363Y715939D01*
X430350Y715916D01*
X430334Y715895D01*
X430256Y715738D01*
X430174Y715584D01*
X430166Y715558D01*
X430154Y715534D01*
X430109Y715365D01*
X430059Y715198D01*
X430057Y715171D01*
X430050Y715145D01*
X430023Y714815D01*
X430023Y663135D01*
X430025Y663109D01*
X430023Y663082D01*
X430045Y662908D01*
X430063Y662735D01*
X430070Y662709D01*
X430074Y662683D01*
X430129Y662517D01*
X430181Y662350D01*
X430194Y662326D01*
X430202Y662301D01*
X430289Y662149D01*
X430373Y661996D01*
X430390Y661975D01*
X430403Y661952D01*
X430618Y661699D01*
X465855Y626462D01*
X467427Y624890D01*
X468123Y623210D01*
X468123Y595990D01*
X467427Y594310D01*
X465855Y592738D01*
X453440Y580323D01*
X451760Y579627D01*
X415485Y579627D01*
X415459Y579625D01*
X415432Y579627D01*
X415258Y579605D01*
X415085Y579587D01*
X415059Y579580D01*
X415033Y579576D01*
X414867Y579521D01*
X414700Y579469D01*
X414676Y579456D01*
X414651Y579448D01*
X414499Y579361D01*
X414346Y579277D01*
X414325Y579260D01*
X414302Y579247D01*
X414049Y579032D01*
X398868Y563851D01*
X398851Y563830D01*
X398830Y563813D01*
X398723Y563675D01*
X398613Y563539D01*
X398600Y563516D01*
X398584Y563495D01*
X398506Y563338D01*
X398424Y563184D01*
X398416Y563158D01*
X398404Y563134D01*
X398359Y562965D01*
X398309Y562798D01*
X398307Y562771D01*
X398300Y562745D01*
X398273Y562415D01*
X398273Y399140D01*
X397577Y397460D01*
X389724Y389607D01*
X389707Y389586D01*
X389686Y389569D01*
X389579Y389431D01*
X389469Y389295D01*
X389456Y389272D01*
X389440Y389251D01*
X389362Y389094D01*
X389280Y388940D01*
X389272Y388914D01*
X389260Y388890D01*
X389215Y388721D01*
X389165Y388554D01*
X389163Y388527D01*
X389156Y388501D01*
X389129Y388171D01*
X389129Y383983D01*
X384367Y379221D01*
X377633Y379221D01*
X372871Y383983D01*
X372871Y390717D01*
X377633Y395479D01*
X381821Y395479D01*
X381847Y395481D01*
X381874Y395479D01*
X382048Y395501D01*
X382221Y395519D01*
X382247Y395526D01*
X382273Y395530D01*
X382439Y395586D01*
X382606Y395637D01*
X382630Y395650D01*
X382655Y395658D01*
X382807Y395745D01*
X382960Y395829D01*
X382981Y395846D01*
X383004Y395859D01*
X383257Y396074D01*
X388532Y401349D01*
X388549Y401370D01*
X388570Y401387D01*
X388677Y401525D01*
X388787Y401661D01*
X388800Y401684D01*
X388816Y401705D01*
X388894Y401862D01*
X388976Y402016D01*
X388984Y402042D01*
X388996Y402066D01*
X389041Y402235D01*
X389091Y402402D01*
X389093Y402429D01*
X389100Y402455D01*
X389127Y402785D01*
X389127Y418846D01*
X389125Y418864D01*
X389127Y418882D01*
X389106Y419064D01*
X389087Y419247D01*
X389082Y419264D01*
X389080Y419281D01*
X389023Y419456D01*
X388969Y419632D01*
X388961Y419647D01*
X388955Y419664D01*
X388865Y419824D01*
X388777Y419986D01*
X388766Y419999D01*
X388757Y420015D01*
X388637Y420154D01*
X388520Y420295D01*
X388506Y420306D01*
X388494Y420320D01*
X388349Y420432D01*
X388206Y420547D01*
X388190Y420555D01*
X388176Y420566D01*
X388011Y420648D01*
X387849Y420733D01*
X387832Y420738D01*
X387816Y420746D01*
X387637Y420793D01*
X387462Y420844D01*
X387444Y420846D01*
X387427Y420850D01*
X387096Y420877D01*
X382668Y420877D01*
X382642Y420875D01*
X382615Y420877D01*
X382441Y420855D01*
X382268Y420837D01*
X382242Y420830D01*
X382216Y420826D01*
X382050Y420771D01*
X381883Y420719D01*
X381859Y420706D01*
X381834Y420698D01*
X381682Y420611D01*
X381529Y420527D01*
X381508Y420510D01*
X381485Y420497D01*
X381232Y420282D01*
X379509Y418559D01*
X378845Y418284D01*
X376521Y417321D01*
X360079Y417321D01*
X357091Y418559D01*
X354805Y420845D01*
X353567Y423833D01*
X353567Y427067D01*
X354805Y430055D01*
X357091Y432341D01*
X360079Y433579D01*
X376521Y433579D01*
X379509Y432341D01*
X381232Y430618D01*
X381253Y430601D01*
X381270Y430580D01*
X381408Y430473D01*
X381544Y430363D01*
X381567Y430350D01*
X381588Y430334D01*
X381745Y430256D01*
X381899Y430174D01*
X381925Y430166D01*
X381949Y430154D01*
X382118Y430109D01*
X382285Y430059D01*
X382312Y430057D01*
X382338Y430050D01*
X382668Y430023D01*
X387096Y430023D01*
X387114Y430025D01*
X387132Y430023D01*
X387314Y430044D01*
X387497Y430063D01*
X387514Y430068D01*
X387531Y430070D01*
X387706Y430127D01*
X387882Y430181D01*
X387897Y430189D01*
X387914Y430195D01*
X388074Y430285D01*
X388236Y430373D01*
X388249Y430384D01*
X388265Y430393D01*
X388404Y430513D01*
X388545Y430630D01*
X388556Y430644D01*
X388570Y430656D01*
X388682Y430801D01*
X388797Y430944D01*
X388805Y430960D01*
X388816Y430974D01*
X388898Y431139D01*
X388983Y431301D01*
X388988Y431318D01*
X388996Y431334D01*
X389043Y431513D01*
X389094Y431688D01*
X389096Y431706D01*
X389100Y431723D01*
X389127Y432054D01*
X389127Y566060D01*
X389823Y567740D01*
X391395Y569312D01*
X408588Y586505D01*
X410160Y588077D01*
X411840Y588773D01*
X448115Y588773D01*
X448141Y588775D01*
X448168Y588773D01*
X448342Y588795D01*
X448515Y588813D01*
X448541Y588820D01*
X448567Y588824D01*
X448733Y588879D01*
X448900Y588931D01*
X448924Y588944D01*
X448949Y588952D01*
X449100Y589039D01*
X449254Y589123D01*
X449275Y589140D01*
X449298Y589153D01*
X449551Y589368D01*
X458382Y598199D01*
X458399Y598220D01*
X458420Y598237D01*
X458527Y598375D01*
X458637Y598511D01*
X458650Y598534D01*
X458666Y598555D01*
X458744Y598712D01*
X458826Y598866D01*
X458834Y598892D01*
X458846Y598916D01*
X458891Y599085D01*
X458941Y599252D01*
X458943Y599279D01*
X458950Y599305D01*
X458977Y599635D01*
X458977Y619565D01*
X458977Y619569D01*
X458977Y619571D01*
X458975Y619591D01*
X458977Y619618D01*
X458955Y619792D01*
X458937Y619965D01*
X458930Y619991D01*
X458926Y620017D01*
X458871Y620183D01*
X458819Y620350D01*
X458806Y620374D01*
X458798Y620399D01*
X458711Y620551D01*
X458627Y620704D01*
X458610Y620725D01*
X458597Y620748D01*
X458382Y621001D01*
X423145Y656238D01*
X421573Y657810D01*
X420877Y659490D01*
X420877Y718460D01*
X421573Y720140D01*
X452032Y750599D01*
X452049Y750620D01*
X452070Y750637D01*
X452177Y750775D01*
X452287Y750911D01*
X452300Y750934D01*
X452316Y750955D01*
X452394Y751112D01*
X452476Y751266D01*
X452484Y751292D01*
X452496Y751316D01*
X452541Y751485D01*
X452591Y751652D01*
X452593Y751679D01*
X452600Y751705D01*
X452627Y752035D01*
X452627Y833374D01*
X452625Y833392D01*
X452627Y833410D01*
X452606Y833592D01*
X452587Y833775D01*
X452582Y833792D01*
X452580Y833809D01*
X452523Y833984D01*
X452469Y834160D01*
X452461Y834175D01*
X452455Y834192D01*
X452365Y834352D01*
X452277Y834514D01*
X452266Y834527D01*
X452257Y834543D01*
X452137Y834682D01*
X452020Y834823D01*
X452006Y834834D01*
X451994Y834848D01*
X451849Y834960D01*
X451706Y835075D01*
X451690Y835083D01*
X451676Y835094D01*
X451511Y835176D01*
X451349Y835261D01*
X451332Y835266D01*
X451316Y835274D01*
X451137Y835321D01*
X450962Y835372D01*
X450944Y835374D01*
X450927Y835378D01*
X450596Y835405D01*
X447761Y835405D01*
X444400Y836797D01*
X441827Y839370D01*
X440435Y842731D01*
X440435Y846369D01*
X441827Y849730D01*
X444400Y852303D01*
X447761Y853695D01*
X466639Y853695D01*
X469631Y852456D01*
X469644Y852452D01*
X469655Y852445D01*
X469835Y852394D01*
X470016Y852339D01*
X470029Y852338D01*
X470042Y852334D01*
X470230Y852319D01*
X470417Y852301D01*
X470430Y852302D01*
X470444Y852301D01*
X470630Y852323D01*
X470817Y852343D01*
X470830Y852347D01*
X470843Y852348D01*
X471022Y852406D01*
X471202Y852462D01*
X471213Y852469D01*
X471226Y852473D01*
X471390Y852565D01*
X471555Y852656D01*
X471565Y852664D01*
X471577Y852671D01*
X471719Y852793D01*
X471863Y852915D01*
X471871Y852925D01*
X471882Y852934D01*
X471996Y853082D01*
X472114Y853230D01*
X472120Y853242D01*
X472128Y853252D01*
X472212Y853420D01*
X472298Y853588D01*
X472302Y853601D01*
X472308Y853613D01*
X472357Y853795D01*
X472408Y853975D01*
X472409Y853988D01*
X472412Y854001D01*
X472439Y854332D01*
X472439Y860168D01*
X472438Y860181D01*
X472439Y860195D01*
X472418Y860381D01*
X472399Y860568D01*
X472395Y860581D01*
X472394Y860595D01*
X472336Y860774D01*
X472281Y860953D01*
X472275Y860965D01*
X472271Y860978D01*
X472179Y861143D01*
X472089Y861307D01*
X472081Y861318D01*
X472074Y861329D01*
X471952Y861473D01*
X471832Y861617D01*
X471821Y861625D01*
X471813Y861635D01*
X471664Y861752D01*
X471518Y861869D01*
X471506Y861875D01*
X471496Y861883D01*
X471326Y861968D01*
X471161Y862055D01*
X471148Y862058D01*
X471136Y862064D01*
X470953Y862114D01*
X470774Y862166D01*
X470760Y862167D01*
X470747Y862171D01*
X470559Y862183D01*
X470372Y862199D01*
X470359Y862197D01*
X470346Y862198D01*
X470158Y862174D01*
X469973Y862152D01*
X469960Y862148D01*
X469947Y862146D01*
X469631Y862044D01*
X466639Y860805D01*
X447761Y860805D01*
X444400Y862197D01*
X441827Y864770D01*
X440435Y868131D01*
X440435Y871769D01*
X441827Y875130D01*
X444400Y877703D01*
X447761Y879095D01*
X466639Y879095D01*
X469631Y877856D01*
X469644Y877852D01*
X469655Y877845D01*
X469835Y877794D01*
X470016Y877739D01*
X470029Y877738D01*
X470042Y877734D01*
X470230Y877719D01*
X470417Y877701D01*
X470430Y877702D01*
X470444Y877701D01*
X470630Y877723D01*
X470817Y877743D01*
X470830Y877747D01*
X470843Y877748D01*
X471022Y877806D01*
X471202Y877862D01*
X471213Y877869D01*
X471226Y877873D01*
X471390Y877965D01*
X471555Y878056D01*
X471565Y878064D01*
X471577Y878071D01*
X471719Y878193D01*
X471863Y878315D01*
X471871Y878325D01*
X471882Y878334D01*
X471996Y878482D01*
X472114Y878630D01*
X472120Y878642D01*
X472128Y878652D01*
X472212Y878820D01*
X472298Y878988D01*
X472302Y879001D01*
X472308Y879013D01*
X472357Y879195D01*
X472408Y879375D01*
X472409Y879388D01*
X472412Y879401D01*
X472439Y879732D01*
X472439Y885568D01*
X472438Y885581D01*
X472439Y885595D01*
X472418Y885781D01*
X472399Y885968D01*
X472395Y885981D01*
X472394Y885995D01*
X472336Y886174D01*
X472281Y886353D01*
X472275Y886365D01*
X472271Y886378D01*
X472179Y886543D01*
X472089Y886707D01*
X472081Y886718D01*
X472074Y886729D01*
X471952Y886873D01*
X471832Y887017D01*
X471821Y887025D01*
X471813Y887035D01*
X471664Y887152D01*
X471518Y887269D01*
X471506Y887275D01*
X471496Y887283D01*
X471326Y887368D01*
X471161Y887455D01*
X471148Y887458D01*
X471136Y887464D01*
X470953Y887514D01*
X470774Y887566D01*
X470760Y887567D01*
X470747Y887571D01*
X470559Y887583D01*
X470372Y887599D01*
X470359Y887597D01*
X470346Y887598D01*
X470158Y887574D01*
X469973Y887552D01*
X469960Y887548D01*
X469947Y887546D01*
X469631Y887444D01*
X466639Y886205D01*
X447761Y886205D01*
X444400Y887597D01*
X441827Y890170D01*
X440435Y893531D01*
X440435Y897169D01*
X441827Y900530D01*
X444400Y903103D01*
X447761Y904495D01*
X466639Y904495D01*
X469631Y903256D01*
X469644Y903252D01*
X469655Y903245D01*
X469835Y903194D01*
X470016Y903139D01*
X470029Y903138D01*
X470042Y903134D01*
X470230Y903119D01*
X470417Y903101D01*
X470430Y903102D01*
X470444Y903101D01*
X470630Y903123D01*
X470817Y903143D01*
X470830Y903147D01*
X470843Y903148D01*
X471022Y903206D01*
X471202Y903262D01*
X471213Y903269D01*
X471226Y903273D01*
X471390Y903365D01*
X471555Y903456D01*
X471565Y903464D01*
X471577Y903471D01*
X471719Y903593D01*
X471863Y903715D01*
X471871Y903725D01*
X471882Y903734D01*
X471996Y903882D01*
X472114Y904030D01*
X472120Y904042D01*
X472128Y904052D01*
X472212Y904220D01*
X472298Y904388D01*
X472302Y904401D01*
X472308Y904413D01*
X472357Y904595D01*
X472408Y904775D01*
X472409Y904788D01*
X472412Y904801D01*
X472439Y905132D01*
X472439Y910968D01*
X472438Y910981D01*
X472439Y910995D01*
X472418Y911181D01*
X472399Y911368D01*
X472395Y911381D01*
X472394Y911395D01*
X472336Y911574D01*
X472281Y911753D01*
X472275Y911765D01*
X472271Y911778D01*
X472179Y911943D01*
X472089Y912107D01*
X472081Y912118D01*
X472074Y912129D01*
X471952Y912273D01*
X471832Y912417D01*
X471821Y912425D01*
X471813Y912435D01*
X471664Y912552D01*
X471518Y912669D01*
X471506Y912675D01*
X471496Y912683D01*
X471326Y912768D01*
X471161Y912855D01*
X471148Y912858D01*
X471136Y912864D01*
X470953Y912914D01*
X470774Y912966D01*
X470760Y912967D01*
X470747Y912971D01*
X470559Y912983D01*
X470372Y912999D01*
X470359Y912997D01*
X470346Y912998D01*
X470158Y912974D01*
X469973Y912952D01*
X469960Y912948D01*
X469947Y912946D01*
X469631Y912844D01*
X466639Y911605D01*
X447761Y911605D01*
X444400Y912997D01*
X441803Y915594D01*
X441769Y915656D01*
X441680Y915823D01*
X441671Y915833D01*
X441665Y915845D01*
X441543Y915988D01*
X441423Y916133D01*
X441413Y916141D01*
X441404Y916152D01*
X441257Y916268D01*
X441111Y916387D01*
X441099Y916393D01*
X441088Y916401D01*
X440921Y916486D01*
X440754Y916574D01*
X440741Y916578D01*
X440729Y916584D01*
X440548Y916634D01*
X440368Y916687D01*
X440354Y916688D01*
X440341Y916692D01*
X440153Y916706D01*
X439967Y916722D01*
X439953Y916720D01*
X439940Y916721D01*
X439753Y916697D01*
X439567Y916676D01*
X439554Y916672D01*
X439540Y916671D01*
X439363Y916611D01*
X439183Y916553D01*
X439171Y916547D01*
X439159Y916542D01*
X438996Y916449D01*
X438832Y916357D01*
X438822Y916348D01*
X438810Y916342D01*
X438557Y916127D01*
X429602Y907172D01*
X429585Y907151D01*
X429564Y907133D01*
X429457Y906996D01*
X429347Y906860D01*
X429334Y906837D01*
X429318Y906815D01*
X429240Y906658D01*
X429158Y906504D01*
X429150Y906479D01*
X429138Y906455D01*
X429093Y906285D01*
X429043Y906119D01*
X429041Y906092D01*
X429034Y906066D01*
X429007Y905735D01*
X429007Y849427D01*
X416902Y837322D01*
X416885Y837301D01*
X416864Y837283D01*
X416757Y837146D01*
X416647Y837010D01*
X416634Y836987D01*
X416618Y836965D01*
X416540Y836808D01*
X416458Y836654D01*
X416450Y836629D01*
X416438Y836605D01*
X416393Y836435D01*
X416343Y836269D01*
X416341Y836242D01*
X416334Y836216D01*
X416307Y835885D01*
X416307Y754177D01*
X397852Y735722D01*
X397835Y735701D01*
X397814Y735683D01*
X397707Y735546D01*
X397597Y735410D01*
X397584Y735387D01*
X397568Y735365D01*
X397490Y735208D01*
X397408Y735054D01*
X397400Y735029D01*
X397388Y735005D01*
X397343Y734835D01*
X397293Y734669D01*
X397291Y734642D01*
X397284Y734616D01*
X397257Y734285D01*
X397257Y652577D01*
X372452Y627772D01*
X372435Y627751D01*
X372414Y627733D01*
X372307Y627596D01*
X372197Y627460D01*
X372184Y627437D01*
X372168Y627415D01*
X372090Y627258D01*
X372008Y627104D01*
X372000Y627079D01*
X371988Y627055D01*
X371943Y626885D01*
X371893Y626719D01*
X371891Y626692D01*
X371884Y626666D01*
X371857Y626335D01*
X371857Y538190D01*
X371859Y538163D01*
X371857Y538136D01*
X371879Y537962D01*
X371897Y537789D01*
X371904Y537763D01*
X371908Y537737D01*
X371963Y537571D01*
X372015Y537404D01*
X372028Y537380D01*
X372036Y537355D01*
X372123Y537203D01*
X372207Y537050D01*
X372224Y537029D01*
X372237Y537006D01*
X372452Y536753D01*
X372799Y536406D01*
X373607Y534456D01*
X373607Y532344D01*
X372799Y530394D01*
X371306Y528901D01*
X369356Y528093D01*
X367244Y528093D01*
X365294Y528901D01*
X363801Y530394D01*
X362993Y532344D01*
X362993Y534456D01*
X363801Y536406D01*
X364148Y536753D01*
X364165Y536774D01*
X364186Y536791D01*
X364293Y536929D01*
X364403Y537065D01*
X364416Y537088D01*
X364432Y537109D01*
X364510Y537266D01*
X364592Y537420D01*
X364600Y537446D01*
X364612Y537470D01*
X364657Y537639D01*
X364707Y537806D01*
X364709Y537833D01*
X364716Y537859D01*
X364743Y538190D01*
X364743Y630123D01*
X389548Y654928D01*
X389565Y654949D01*
X389586Y654967D01*
X389693Y655104D01*
X389803Y655240D01*
X389816Y655263D01*
X389832Y655285D01*
X389910Y655442D01*
X389992Y655596D01*
X390000Y655621D01*
X390012Y655645D01*
X390057Y655815D01*
X390107Y655981D01*
X390109Y656008D01*
X390116Y656034D01*
X390143Y656365D01*
X390143Y738073D01*
X408598Y756528D01*
X408615Y756549D01*
X408636Y756567D01*
X408743Y756704D01*
X408853Y756840D01*
X408866Y756863D01*
X408882Y756885D01*
X408960Y757042D01*
X409042Y757196D01*
X409050Y757221D01*
X409062Y757245D01*
X409107Y757415D01*
X409157Y757581D01*
X409159Y757608D01*
X409166Y757634D01*
X409193Y757965D01*
X409193Y786494D01*
X409192Y786502D01*
X409193Y786511D01*
X409172Y786703D01*
X409153Y786894D01*
X409151Y786903D01*
X409150Y786912D01*
X409092Y787094D01*
X409035Y787279D01*
X409031Y787287D01*
X409028Y787296D01*
X408935Y787464D01*
X408843Y787633D01*
X408838Y787640D01*
X408833Y787648D01*
X408709Y787795D01*
X408586Y787942D01*
X408579Y787948D01*
X408573Y787955D01*
X408422Y788074D01*
X408272Y788195D01*
X408264Y788199D01*
X408257Y788204D01*
X408084Y788292D01*
X407915Y788380D01*
X407906Y788383D01*
X407898Y788387D01*
X407712Y788439D01*
X407528Y788492D01*
X407519Y788492D01*
X407510Y788495D01*
X407317Y788509D01*
X407126Y788525D01*
X407118Y788524D01*
X407109Y788524D01*
X406916Y788500D01*
X406727Y788478D01*
X406718Y788475D01*
X406709Y788474D01*
X406526Y788412D01*
X406344Y788353D01*
X406336Y788348D01*
X406328Y788346D01*
X406162Y788250D01*
X405993Y788155D01*
X405986Y788149D01*
X405979Y788145D01*
X405726Y787930D01*
X403417Y785621D01*
X396683Y785621D01*
X391921Y790383D01*
X391921Y797117D01*
X396683Y801879D01*
X403417Y801879D01*
X405726Y799570D01*
X405733Y799564D01*
X405738Y799558D01*
X405888Y799437D01*
X406037Y799315D01*
X406045Y799311D01*
X406052Y799305D01*
X406222Y799217D01*
X406393Y799126D01*
X406402Y799124D01*
X406409Y799120D01*
X406594Y799067D01*
X406779Y799012D01*
X406788Y799011D01*
X406796Y799008D01*
X406987Y798993D01*
X407180Y798975D01*
X407189Y798976D01*
X407198Y798975D01*
X407387Y798998D01*
X407580Y799019D01*
X407589Y799021D01*
X407597Y799022D01*
X407779Y799082D01*
X407964Y799140D01*
X407972Y799144D01*
X407980Y799147D01*
X408149Y799242D01*
X408316Y799335D01*
X408323Y799341D01*
X408331Y799345D01*
X408477Y799471D01*
X408623Y799595D01*
X408629Y799602D01*
X408636Y799608D01*
X408753Y799759D01*
X408873Y799911D01*
X408877Y799919D01*
X408882Y799926D01*
X408968Y800098D01*
X409055Y800270D01*
X409058Y800279D01*
X409062Y800287D01*
X409112Y800473D01*
X409163Y800658D01*
X409164Y800667D01*
X409166Y800676D01*
X409193Y801006D01*
X409193Y839673D01*
X421298Y851778D01*
X421315Y851799D01*
X421336Y851817D01*
X421443Y851954D01*
X421553Y852090D01*
X421566Y852113D01*
X421582Y852135D01*
X421660Y852292D01*
X421742Y852446D01*
X421750Y852471D01*
X421762Y852495D01*
X421807Y852665D01*
X421857Y852831D01*
X421859Y852858D01*
X421866Y852884D01*
X421893Y853215D01*
X421893Y909523D01*
X436677Y924307D01*
X439798Y924307D01*
X439820Y924309D01*
X439842Y924307D01*
X440020Y924329D01*
X440198Y924347D01*
X440220Y924353D01*
X440242Y924356D01*
X440412Y924412D01*
X440583Y924465D01*
X440603Y924475D01*
X440624Y924482D01*
X440780Y924571D01*
X440937Y924657D01*
X440955Y924671D01*
X440974Y924682D01*
X441109Y924800D01*
X441247Y924914D01*
X441261Y924932D01*
X441277Y924946D01*
X441387Y925089D01*
X441499Y925228D01*
X441509Y925248D01*
X441523Y925266D01*
X441674Y925561D01*
X441827Y925930D01*
X444400Y928503D01*
X447761Y929895D01*
X466639Y929895D01*
X469631Y928656D01*
X469644Y928652D01*
X469655Y928645D01*
X469835Y928594D01*
X470016Y928539D01*
X470029Y928538D01*
X470042Y928534D01*
X470230Y928519D01*
X470417Y928501D01*
X470430Y928502D01*
X470444Y928501D01*
X470630Y928523D01*
X470817Y928543D01*
X470830Y928547D01*
X470843Y928548D01*
X471022Y928606D01*
X471202Y928662D01*
X471213Y928669D01*
X471226Y928673D01*
X471390Y928765D01*
X471555Y928856D01*
X471565Y928864D01*
X471577Y928871D01*
X471719Y928993D01*
X471863Y929115D01*
X471871Y929125D01*
X471882Y929134D01*
X471996Y929282D01*
X472114Y929430D01*
X472120Y929442D01*
X472128Y929452D01*
X472212Y929620D01*
X472298Y929788D01*
X472302Y929801D01*
X472308Y929813D01*
X472357Y929995D01*
X472408Y930175D01*
X472409Y930188D01*
X472412Y930201D01*
X472439Y930532D01*
X472439Y936368D01*
X472438Y936381D01*
X472439Y936395D01*
X472418Y936581D01*
X472399Y936768D01*
X472395Y936781D01*
X472394Y936795D01*
X472336Y936974D01*
X472281Y937153D01*
X472275Y937165D01*
X472271Y937178D01*
X472179Y937343D01*
X472089Y937507D01*
X472081Y937518D01*
X472074Y937529D01*
X471952Y937673D01*
X471832Y937817D01*
X471821Y937825D01*
X471813Y937835D01*
X471664Y937952D01*
X471518Y938069D01*
X471506Y938075D01*
X471496Y938083D01*
X471326Y938168D01*
X471161Y938255D01*
X471148Y938258D01*
X471136Y938264D01*
X470953Y938314D01*
X470774Y938366D01*
X470760Y938367D01*
X470747Y938371D01*
X470559Y938383D01*
X470372Y938399D01*
X470359Y938397D01*
X470346Y938398D01*
X470158Y938374D01*
X469973Y938352D01*
X469960Y938348D01*
X469947Y938346D01*
X469631Y938244D01*
X466639Y937005D01*
X447761Y937005D01*
X444400Y938397D01*
X441815Y940982D01*
X441794Y940999D01*
X441777Y941020D01*
X441639Y941127D01*
X441504Y941237D01*
X441480Y941250D01*
X441459Y941266D01*
X441302Y941344D01*
X441148Y941426D01*
X441122Y941434D01*
X441098Y941446D01*
X440929Y941491D01*
X440762Y941541D01*
X440735Y941543D01*
X440709Y941550D01*
X440379Y941577D01*
X407814Y941577D01*
X407788Y941575D01*
X407761Y941577D01*
X407587Y941555D01*
X407414Y941537D01*
X407388Y941530D01*
X407362Y941526D01*
X407196Y941471D01*
X407029Y941419D01*
X407005Y941406D01*
X406980Y941398D01*
X406828Y941311D01*
X406675Y941227D01*
X406654Y941210D01*
X406631Y941197D01*
X406378Y940982D01*
X405218Y939822D01*
X405201Y939801D01*
X405180Y939784D01*
X405073Y939646D01*
X404963Y939510D01*
X404950Y939487D01*
X404934Y939466D01*
X404856Y939309D01*
X404774Y939155D01*
X404766Y939129D01*
X404754Y939105D01*
X404709Y938936D01*
X404659Y938769D01*
X404657Y938742D01*
X404650Y938716D01*
X404623Y938386D01*
X404623Y919840D01*
X403927Y918160D01*
X367118Y881351D01*
X367101Y881330D01*
X367080Y881313D01*
X366973Y881175D01*
X366863Y881039D01*
X366850Y881016D01*
X366834Y880995D01*
X366756Y880838D01*
X366674Y880684D01*
X366666Y880658D01*
X366654Y880634D01*
X366609Y880465D01*
X366559Y880298D01*
X366557Y880271D01*
X366550Y880245D01*
X366523Y879915D01*
X366523Y878222D01*
X366524Y878214D01*
X366523Y878205D01*
X366544Y878013D01*
X366563Y877822D01*
X366565Y877813D01*
X366566Y877804D01*
X366624Y877622D01*
X366681Y877437D01*
X366685Y877429D01*
X366688Y877420D01*
X366781Y877252D01*
X366873Y877083D01*
X366878Y877076D01*
X366883Y877068D01*
X367008Y876920D01*
X367130Y876774D01*
X367137Y876768D01*
X367143Y876761D01*
X367295Y876641D01*
X367444Y876521D01*
X367452Y876517D01*
X367459Y876512D01*
X367631Y876424D01*
X367801Y876336D01*
X367810Y876333D01*
X367818Y876329D01*
X368004Y876277D01*
X368188Y876224D01*
X368197Y876224D01*
X368206Y876221D01*
X368398Y876207D01*
X368590Y876191D01*
X368598Y876192D01*
X368607Y876192D01*
X368800Y876216D01*
X368989Y876238D01*
X368998Y876241D01*
X369007Y876242D01*
X369190Y876304D01*
X369372Y876363D01*
X369380Y876368D01*
X369388Y876370D01*
X369554Y876466D01*
X369723Y876561D01*
X369730Y876567D01*
X369737Y876571D01*
X369990Y876786D01*
X371283Y878079D01*
X378017Y878079D01*
X382779Y873317D01*
X382779Y866583D01*
X378017Y861821D01*
X371283Y861821D01*
X369990Y863114D01*
X369983Y863120D01*
X369978Y863126D01*
X369828Y863247D01*
X369679Y863369D01*
X369671Y863373D01*
X369664Y863379D01*
X369494Y863467D01*
X369323Y863558D01*
X369314Y863560D01*
X369307Y863564D01*
X369122Y863617D01*
X368937Y863672D01*
X368928Y863673D01*
X368920Y863676D01*
X368729Y863691D01*
X368536Y863709D01*
X368527Y863708D01*
X368518Y863709D01*
X368329Y863686D01*
X368136Y863665D01*
X368127Y863663D01*
X368119Y863662D01*
X367937Y863602D01*
X367752Y863544D01*
X367744Y863540D01*
X367736Y863537D01*
X367569Y863443D01*
X367400Y863349D01*
X367393Y863343D01*
X367385Y863339D01*
X367240Y863214D01*
X367093Y863089D01*
X367087Y863082D01*
X367080Y863076D01*
X366964Y862925D01*
X366843Y862773D01*
X366839Y862765D01*
X366834Y862758D01*
X366748Y862586D01*
X366661Y862414D01*
X366658Y862405D01*
X366654Y862397D01*
X366604Y862211D01*
X366553Y862026D01*
X366552Y862017D01*
X366550Y862008D01*
X366523Y861678D01*
X366523Y802022D01*
X366524Y802014D01*
X366523Y802005D01*
X366544Y801813D01*
X366563Y801622D01*
X366565Y801613D01*
X366566Y801604D01*
X366624Y801422D01*
X366681Y801237D01*
X366685Y801229D01*
X366688Y801220D01*
X366781Y801052D01*
X366873Y800883D01*
X366878Y800876D01*
X366883Y800868D01*
X367008Y800720D01*
X367130Y800574D01*
X367137Y800568D01*
X367143Y800561D01*
X367295Y800441D01*
X367444Y800321D01*
X367452Y800317D01*
X367459Y800312D01*
X367631Y800224D01*
X367801Y800136D01*
X367810Y800133D01*
X367818Y800129D01*
X368004Y800077D01*
X368188Y800024D01*
X368197Y800024D01*
X368206Y800021D01*
X368398Y800007D01*
X368590Y799991D01*
X368598Y799992D01*
X368607Y799992D01*
X368800Y800016D01*
X368989Y800038D01*
X368998Y800041D01*
X369007Y800042D01*
X369190Y800104D01*
X369372Y800163D01*
X369380Y800168D01*
X369388Y800170D01*
X369554Y800266D01*
X369723Y800361D01*
X369730Y800367D01*
X369737Y800371D01*
X369990Y800586D01*
X371283Y801879D01*
X378017Y801879D01*
X382779Y797117D01*
X382779Y790383D01*
X378802Y786406D01*
X378785Y786385D01*
X378764Y786368D01*
X378657Y786230D01*
X378547Y786094D01*
X378534Y786071D01*
X378518Y786050D01*
X378440Y785893D01*
X378358Y785739D01*
X378350Y785713D01*
X378338Y785689D01*
X378293Y785520D01*
X378243Y785353D01*
X378241Y785326D01*
X378234Y785300D01*
X378207Y784970D01*
X378207Y735040D01*
X378209Y735013D01*
X378207Y734986D01*
X378229Y734812D01*
X378247Y734639D01*
X378254Y734613D01*
X378258Y734587D01*
X378313Y734421D01*
X378365Y734254D01*
X378378Y734230D01*
X378386Y734205D01*
X378473Y734053D01*
X378557Y733900D01*
X378574Y733879D01*
X378587Y733856D01*
X378802Y733603D01*
X379149Y733256D01*
X379957Y731306D01*
X379957Y729194D01*
X379149Y727244D01*
X377656Y725751D01*
X375706Y724943D01*
X373594Y724943D01*
X371644Y725751D01*
X370151Y727244D01*
X369343Y729194D01*
X369343Y731306D01*
X370151Y733256D01*
X370498Y733603D01*
X370515Y733624D01*
X370536Y733641D01*
X370643Y733779D01*
X370753Y733915D01*
X370766Y733938D01*
X370782Y733959D01*
X370860Y734116D01*
X370942Y734270D01*
X370950Y734296D01*
X370962Y734320D01*
X371007Y734489D01*
X371057Y734656D01*
X371059Y734683D01*
X371066Y734709D01*
X371093Y735040D01*
X371093Y784970D01*
X371091Y784996D01*
X371093Y785023D01*
X371071Y785197D01*
X371053Y785370D01*
X371046Y785396D01*
X371042Y785422D01*
X370987Y785588D01*
X370935Y785755D01*
X370922Y785779D01*
X370914Y785804D01*
X370827Y785956D01*
X370743Y786109D01*
X370726Y786130D01*
X370713Y786153D01*
X370498Y786406D01*
X369990Y786914D01*
X369983Y786920D01*
X369978Y786926D01*
X369828Y787047D01*
X369679Y787169D01*
X369671Y787173D01*
X369664Y787179D01*
X369494Y787267D01*
X369323Y787358D01*
X369314Y787360D01*
X369307Y787364D01*
X369123Y787417D01*
X368937Y787472D01*
X368928Y787473D01*
X368920Y787476D01*
X368729Y787491D01*
X368536Y787509D01*
X368527Y787508D01*
X368518Y787509D01*
X368329Y787486D01*
X368136Y787465D01*
X368127Y787463D01*
X368119Y787462D01*
X367935Y787402D01*
X367752Y787344D01*
X367744Y787340D01*
X367736Y787337D01*
X367567Y787242D01*
X367400Y787149D01*
X367393Y787143D01*
X367385Y787139D01*
X367240Y787013D01*
X367093Y786889D01*
X367087Y786882D01*
X367080Y786876D01*
X366963Y786725D01*
X366843Y786573D01*
X366839Y786565D01*
X366834Y786558D01*
X366747Y786384D01*
X366661Y786214D01*
X366658Y786205D01*
X366654Y786197D01*
X366604Y786009D01*
X366553Y785826D01*
X366552Y785817D01*
X366550Y785808D01*
X366523Y785478D01*
X366523Y754740D01*
X365827Y753060D01*
X338924Y726157D01*
X338907Y726136D01*
X338886Y726119D01*
X338779Y725981D01*
X338669Y725845D01*
X338656Y725822D01*
X338640Y725801D01*
X338562Y725644D01*
X338480Y725490D01*
X338472Y725464D01*
X338460Y725440D01*
X338415Y725271D01*
X338365Y725104D01*
X338363Y725077D01*
X338356Y725051D01*
X338329Y724721D01*
X338329Y720533D01*
X335368Y717572D01*
X335351Y717551D01*
X335330Y717534D01*
X335223Y717396D01*
X335113Y717260D01*
X335100Y717237D01*
X335084Y717216D01*
X335006Y717059D01*
X334924Y716905D01*
X334916Y716879D01*
X334904Y716855D01*
X334859Y716686D01*
X334809Y716519D01*
X334807Y716492D01*
X334800Y716466D01*
X334773Y716136D01*
X334773Y562032D01*
X334776Y562001D01*
X334774Y561969D01*
X334796Y561800D01*
X334813Y561631D01*
X334822Y561601D01*
X334826Y561570D01*
X334927Y561254D01*
X335507Y559856D01*
X335507Y557744D01*
X334699Y555794D01*
X333206Y554301D01*
X331256Y553493D01*
X329144Y553493D01*
X327194Y554301D01*
X325701Y555794D01*
X324893Y557744D01*
X324893Y559856D01*
X325473Y561254D01*
X325482Y561284D01*
X325496Y561312D01*
X325540Y561477D01*
X325589Y561640D01*
X325592Y561671D01*
X325600Y561701D01*
X325627Y562032D01*
X325627Y716136D01*
X325625Y716162D01*
X325627Y716189D01*
X325605Y716363D01*
X325587Y716536D01*
X325580Y716562D01*
X325576Y716588D01*
X325521Y716754D01*
X325469Y716921D01*
X325456Y716945D01*
X325448Y716970D01*
X325361Y717122D01*
X325277Y717275D01*
X325260Y717296D01*
X325247Y717319D01*
X325032Y717572D01*
X322071Y720533D01*
X322071Y727267D01*
X326833Y732029D01*
X331021Y732029D01*
X331047Y732031D01*
X331074Y732029D01*
X331248Y732051D01*
X331421Y732069D01*
X331447Y732076D01*
X331473Y732080D01*
X331639Y732135D01*
X331806Y732187D01*
X331830Y732200D01*
X331855Y732208D01*
X332007Y732295D01*
X332160Y732379D01*
X332181Y732396D01*
X332204Y732409D01*
X332457Y732624D01*
X356782Y756949D01*
X356799Y756970D01*
X356820Y756987D01*
X356927Y757125D01*
X357037Y757261D01*
X357050Y757284D01*
X357066Y757305D01*
X357144Y757462D01*
X357226Y757616D01*
X357234Y757642D01*
X357246Y757666D01*
X357291Y757835D01*
X357341Y758002D01*
X357343Y758029D01*
X357350Y758055D01*
X357377Y758385D01*
X357377Y785478D01*
X357376Y785487D01*
X357377Y785496D01*
X357357Y785686D01*
X357337Y785878D01*
X357335Y785887D01*
X357334Y785896D01*
X357276Y786079D01*
X357219Y786263D01*
X357215Y786271D01*
X357212Y786280D01*
X357119Y786448D01*
X357027Y786617D01*
X357022Y786624D01*
X357017Y786632D01*
X356892Y786779D01*
X356770Y786926D01*
X356763Y786932D01*
X356757Y786939D01*
X356606Y787059D01*
X356456Y787179D01*
X356448Y787183D01*
X356441Y787189D01*
X356268Y787276D01*
X356099Y787364D01*
X356090Y787367D01*
X356082Y787371D01*
X355896Y787423D01*
X355712Y787476D01*
X355703Y787476D01*
X355694Y787479D01*
X355502Y787493D01*
X355310Y787509D01*
X355302Y787508D01*
X355293Y787508D01*
X355101Y787484D01*
X354911Y787462D01*
X354902Y787459D01*
X354893Y787458D01*
X354711Y787397D01*
X354528Y787337D01*
X354520Y787332D01*
X354512Y787330D01*
X354344Y787233D01*
X354177Y787139D01*
X354170Y787133D01*
X354163Y787129D01*
X353910Y786914D01*
X353402Y786406D01*
X353385Y786385D01*
X353364Y786368D01*
X353257Y786230D01*
X353147Y786094D01*
X353134Y786071D01*
X353118Y786050D01*
X353040Y785893D01*
X352958Y785739D01*
X352950Y785713D01*
X352938Y785689D01*
X352893Y785520D01*
X352843Y785353D01*
X352841Y785326D01*
X352834Y785300D01*
X352807Y784970D01*
X352807Y766877D01*
X302602Y716672D01*
X302585Y716651D01*
X302564Y716633D01*
X302457Y716496D01*
X302347Y716360D01*
X302334Y716337D01*
X302318Y716315D01*
X302240Y716158D01*
X302158Y716004D01*
X302150Y715979D01*
X302138Y715955D01*
X302093Y715785D01*
X302043Y715619D01*
X302041Y715592D01*
X302034Y715566D01*
X302007Y715235D01*
X302007Y595339D01*
X302009Y595313D01*
X302007Y595286D01*
X302029Y595112D01*
X302047Y594939D01*
X302055Y594913D01*
X302058Y594887D01*
X302113Y594721D01*
X302165Y594554D01*
X302178Y594530D01*
X302186Y594505D01*
X302273Y594353D01*
X302357Y594200D01*
X302374Y594179D01*
X302387Y594156D01*
X302602Y593903D01*
X302949Y593556D01*
X303757Y591606D01*
X303757Y589494D01*
X302949Y587544D01*
X301456Y586051D01*
X299506Y585243D01*
X297394Y585243D01*
X295444Y586051D01*
X293951Y587544D01*
X293215Y589322D01*
X293212Y589326D01*
X293211Y589330D01*
X293120Y589500D01*
X293024Y589677D01*
X293022Y589681D01*
X293019Y589684D01*
X292894Y589835D01*
X292768Y589987D01*
X292765Y589990D01*
X292762Y589994D01*
X292609Y590117D01*
X292455Y590241D01*
X292451Y590243D01*
X292448Y590246D01*
X292275Y590336D01*
X292099Y590428D01*
X292095Y590430D01*
X292091Y590432D01*
X291903Y590486D01*
X291712Y590541D01*
X291708Y590542D01*
X291704Y590543D01*
X291506Y590559D01*
X291311Y590576D01*
X291307Y590575D01*
X291302Y590576D01*
X291108Y590553D01*
X290911Y590531D01*
X290907Y590529D01*
X290903Y590529D01*
X290717Y590468D01*
X290528Y590408D01*
X290524Y590405D01*
X290520Y590404D01*
X290348Y590307D01*
X290176Y590211D01*
X290173Y590208D01*
X290169Y590206D01*
X290021Y590078D01*
X289871Y589949D01*
X289868Y589946D01*
X289864Y589943D01*
X289744Y589788D01*
X289622Y589632D01*
X289620Y589628D01*
X289618Y589625D01*
X289530Y589449D01*
X289442Y589273D01*
X289440Y589268D01*
X289438Y589264D01*
X289387Y589073D01*
X289335Y588884D01*
X289335Y588880D01*
X289334Y588876D01*
X289307Y588545D01*
X289307Y550890D01*
X289309Y550863D01*
X289307Y550836D01*
X289329Y550663D01*
X289347Y550489D01*
X289354Y550463D01*
X289358Y550437D01*
X289414Y550271D01*
X289465Y550104D01*
X289478Y550080D01*
X289486Y550055D01*
X289573Y549904D01*
X289657Y549750D01*
X289674Y549729D01*
X289687Y549706D01*
X289902Y549453D01*
X290410Y548945D01*
X290417Y548939D01*
X290422Y548933D01*
X290572Y548812D01*
X290721Y548690D01*
X290729Y548686D01*
X290736Y548680D01*
X290906Y548592D01*
X291077Y548501D01*
X291086Y548499D01*
X291093Y548495D01*
X291277Y548442D01*
X291463Y548387D01*
X291472Y548386D01*
X291480Y548383D01*
X291671Y548368D01*
X291864Y548350D01*
X291873Y548351D01*
X291882Y548351D01*
X292071Y548373D01*
X292264Y548394D01*
X292273Y548396D01*
X292281Y548397D01*
X292465Y548457D01*
X292648Y548515D01*
X292656Y548519D01*
X292664Y548522D01*
X292833Y548617D01*
X293000Y548710D01*
X293007Y548716D01*
X293015Y548720D01*
X293160Y548846D01*
X293307Y548970D01*
X293313Y548978D01*
X293320Y548983D01*
X293437Y549134D01*
X293557Y549286D01*
X293561Y549294D01*
X293566Y549301D01*
X293651Y549472D01*
X293739Y549645D01*
X293742Y549654D01*
X293746Y549662D01*
X293796Y549850D01*
X293847Y550033D01*
X293848Y550042D01*
X293850Y550051D01*
X293877Y550381D01*
X293877Y566060D01*
X294573Y567740D01*
X305631Y578798D01*
X305651Y578822D01*
X305675Y578843D01*
X305779Y578978D01*
X305887Y579110D01*
X305901Y579137D01*
X305920Y579162D01*
X306072Y579457D01*
X306651Y580856D01*
X308144Y582349D01*
X310094Y583157D01*
X312206Y583157D01*
X314156Y582349D01*
X315649Y580856D01*
X316457Y578906D01*
X316457Y576794D01*
X315649Y574844D01*
X314156Y573351D01*
X312757Y572772D01*
X312730Y572757D01*
X312700Y572747D01*
X312553Y572662D01*
X312402Y572582D01*
X312378Y572562D01*
X312351Y572546D01*
X312098Y572331D01*
X303618Y563851D01*
X303601Y563830D01*
X303580Y563813D01*
X303473Y563675D01*
X303363Y563539D01*
X303350Y563516D01*
X303334Y563495D01*
X303256Y563338D01*
X303174Y563184D01*
X303166Y563158D01*
X303154Y563134D01*
X303109Y562965D01*
X303059Y562798D01*
X303057Y562771D01*
X303050Y562745D01*
X303023Y562415D01*
X303023Y364685D01*
X303025Y364659D01*
X303023Y364632D01*
X303045Y364458D01*
X303063Y364285D01*
X303070Y364259D01*
X303074Y364233D01*
X303129Y364067D01*
X303181Y363900D01*
X303194Y363876D01*
X303202Y363851D01*
X303289Y363699D01*
X303373Y363546D01*
X303390Y363525D01*
X303403Y363502D01*
X303618Y363249D01*
X318799Y348068D01*
X318820Y348051D01*
X318837Y348030D01*
X318975Y347923D01*
X319111Y347813D01*
X319134Y347800D01*
X319155Y347784D01*
X319312Y347706D01*
X319466Y347624D01*
X319492Y347616D01*
X319516Y347604D01*
X319685Y347559D01*
X319852Y347509D01*
X319879Y347507D01*
X319905Y347500D01*
X320235Y347473D01*
X362860Y347473D01*
X364540Y346777D01*
X368388Y342929D01*
X368395Y342923D01*
X368400Y342917D01*
X368550Y342796D01*
X368699Y342674D01*
X368707Y342670D01*
X368714Y342664D01*
X368884Y342576D01*
X369055Y342485D01*
X369064Y342483D01*
X369071Y342479D01*
X369256Y342426D01*
X369441Y342371D01*
X369450Y342370D01*
X369458Y342367D01*
X369650Y342352D01*
X369842Y342334D01*
X369851Y342335D01*
X369860Y342334D01*
X370049Y342357D01*
X370242Y342378D01*
X370251Y342380D01*
X370259Y342381D01*
X370441Y342441D01*
X370626Y342499D01*
X370634Y342503D01*
X370642Y342506D01*
X370811Y342601D01*
X370978Y342694D01*
X370985Y342700D01*
X370993Y342704D01*
X371139Y342830D01*
X371285Y342954D01*
X371291Y342961D01*
X371298Y342967D01*
X371415Y343119D01*
X371535Y343270D01*
X371539Y343278D01*
X371544Y343285D01*
X371630Y343457D01*
X371717Y343629D01*
X371720Y343638D01*
X371724Y343646D01*
X371774Y343832D01*
X371825Y344017D01*
X371826Y344026D01*
X371828Y344035D01*
X371855Y344365D01*
X371855Y346688D01*
X377212Y352045D01*
X378969Y352045D01*
X378969Y342900D01*
X378970Y342883D01*
X378969Y342865D01*
X378990Y342682D01*
X379008Y342500D01*
X379014Y342483D01*
X379016Y342465D01*
X379073Y342290D01*
X379127Y342115D01*
X379135Y342099D01*
X379141Y342082D01*
X379231Y341922D01*
X379318Y341761D01*
X379330Y341747D01*
X379339Y341732D01*
X379459Y341592D01*
X379576Y341452D01*
X379576Y341451D01*
X379577Y341451D01*
X379590Y341440D01*
X379602Y341427D01*
X379602Y341426D01*
X379747Y341314D01*
X379890Y341199D01*
X379906Y341190D01*
X379920Y341180D01*
X380085Y341098D01*
X380248Y341013D01*
X380265Y341008D01*
X380281Y341000D01*
X380459Y340952D01*
X380635Y340902D01*
X380652Y340900D01*
X380670Y340896D01*
X381000Y340869D01*
X390145Y340869D01*
X390145Y339112D01*
X384788Y333755D01*
X382465Y333755D01*
X382457Y333754D01*
X382448Y333755D01*
X382254Y333734D01*
X382065Y333715D01*
X382056Y333713D01*
X382047Y333712D01*
X381863Y333653D01*
X381680Y333597D01*
X381672Y333593D01*
X381664Y333590D01*
X381495Y333497D01*
X381326Y333405D01*
X381319Y333400D01*
X381311Y333395D01*
X381164Y333271D01*
X381017Y333148D01*
X381011Y333141D01*
X381004Y333135D01*
X380884Y332983D01*
X380764Y332834D01*
X380760Y332826D01*
X380755Y332819D01*
X380667Y332646D01*
X380579Y332477D01*
X380576Y332468D01*
X380572Y332460D01*
X380520Y332274D01*
X380467Y332090D01*
X380467Y332081D01*
X380464Y332072D01*
X380450Y331879D01*
X380434Y331688D01*
X380435Y331680D01*
X380435Y331671D01*
X380459Y331478D01*
X380481Y331289D01*
X380484Y331280D01*
X380485Y331271D01*
X380546Y331089D01*
X380606Y330906D01*
X380611Y330898D01*
X380613Y330890D01*
X380710Y330723D01*
X380804Y330555D01*
X380810Y330548D01*
X380814Y330541D01*
X381029Y330288D01*
X402355Y308962D01*
X403927Y307390D01*
X404623Y305710D01*
X404623Y195940D01*
X403927Y194260D01*
X389724Y180057D01*
X389707Y180036D01*
X389686Y180019D01*
X389579Y179881D01*
X389469Y179745D01*
X389456Y179722D01*
X389440Y179701D01*
X389362Y179544D01*
X389280Y179390D01*
X389272Y179364D01*
X389260Y179340D01*
X389215Y179171D01*
X389165Y179004D01*
X389163Y178977D01*
X389156Y178951D01*
X389129Y178621D01*
X389129Y174433D01*
X384367Y169671D01*
X377633Y169671D01*
X372871Y174433D01*
X372871Y181167D01*
X377633Y185929D01*
X381821Y185929D01*
X381847Y185931D01*
X381874Y185929D01*
X382048Y185951D01*
X382221Y185969D01*
X382247Y185976D01*
X382273Y185980D01*
X382439Y186035D01*
X382606Y186087D01*
X382630Y186100D01*
X382655Y186108D01*
X382807Y186195D01*
X382960Y186279D01*
X382981Y186296D01*
X383004Y186309D01*
X383257Y186524D01*
X394882Y198149D01*
X394899Y198170D01*
X394920Y198187D01*
X395027Y198325D01*
X395137Y198461D01*
X395150Y198484D01*
X395166Y198505D01*
X395244Y198662D01*
X395326Y198816D01*
X395334Y198842D01*
X395346Y198866D01*
X395391Y199035D01*
X395441Y199202D01*
X395443Y199229D01*
X395450Y199255D01*
X395477Y199585D01*
X395477Y228346D01*
X395475Y228364D01*
X395477Y228382D01*
X395456Y228564D01*
X395437Y228747D01*
X395432Y228764D01*
X395430Y228781D01*
X395373Y228956D01*
X395319Y229132D01*
X395311Y229147D01*
X395305Y229164D01*
X395215Y229324D01*
X395127Y229486D01*
X395116Y229499D01*
X395107Y229515D01*
X394987Y229654D01*
X394870Y229795D01*
X394856Y229806D01*
X394844Y229820D01*
X394699Y229932D01*
X394556Y230047D01*
X394540Y230055D01*
X394526Y230066D01*
X394361Y230148D01*
X394199Y230233D01*
X394182Y230238D01*
X394166Y230246D01*
X393987Y230293D01*
X393812Y230344D01*
X393794Y230346D01*
X393777Y230350D01*
X393446Y230377D01*
X381307Y230377D01*
X381280Y230375D01*
X381253Y230377D01*
X381080Y230355D01*
X380906Y230337D01*
X380881Y230330D01*
X380854Y230326D01*
X380688Y230271D01*
X380521Y230219D01*
X380498Y230206D01*
X380472Y230198D01*
X380321Y230111D01*
X380167Y230027D01*
X380147Y230010D01*
X380123Y229997D01*
X379870Y229782D01*
X378625Y228537D01*
X375845Y227385D01*
X360755Y227385D01*
X357975Y228537D01*
X355847Y230665D01*
X354695Y233445D01*
X354695Y236455D01*
X355847Y239235D01*
X357975Y241363D01*
X360755Y242515D01*
X375845Y242515D01*
X378625Y241363D01*
X379870Y240118D01*
X379891Y240101D01*
X379909Y240080D01*
X380047Y239973D01*
X380182Y239863D01*
X380206Y239850D01*
X380227Y239834D01*
X380384Y239756D01*
X380538Y239674D01*
X380563Y239666D01*
X380587Y239654D01*
X380757Y239609D01*
X380924Y239559D01*
X380950Y239557D01*
X380976Y239550D01*
X381307Y239523D01*
X393446Y239523D01*
X393464Y239525D01*
X393482Y239523D01*
X393664Y239544D01*
X393847Y239563D01*
X393864Y239568D01*
X393881Y239570D01*
X394056Y239627D01*
X394232Y239681D01*
X394247Y239689D01*
X394264Y239695D01*
X394424Y239785D01*
X394586Y239873D01*
X394599Y239884D01*
X394615Y239893D01*
X394754Y240013D01*
X394895Y240130D01*
X394906Y240144D01*
X394920Y240156D01*
X395032Y240301D01*
X395147Y240444D01*
X395155Y240460D01*
X395166Y240474D01*
X395248Y240639D01*
X395333Y240801D01*
X395338Y240818D01*
X395346Y240834D01*
X395393Y241013D01*
X395444Y241188D01*
X395446Y241206D01*
X395450Y241223D01*
X395477Y241554D01*
X395477Y302065D01*
X395475Y302091D01*
X395477Y302118D01*
X395455Y302292D01*
X395437Y302465D01*
X395430Y302491D01*
X395426Y302517D01*
X395371Y302683D01*
X395319Y302850D01*
X395306Y302874D01*
X395298Y302899D01*
X395211Y303051D01*
X395127Y303204D01*
X395110Y303225D01*
X395097Y303248D01*
X394882Y303501D01*
X386388Y311995D01*
X386381Y312001D01*
X386376Y312007D01*
X386226Y312128D01*
X386077Y312250D01*
X386069Y312254D01*
X386062Y312260D01*
X385891Y312349D01*
X385721Y312439D01*
X385713Y312441D01*
X385705Y312445D01*
X385519Y312499D01*
X385335Y312553D01*
X385326Y312554D01*
X385318Y312557D01*
X385126Y312572D01*
X384934Y312590D01*
X384925Y312589D01*
X384916Y312590D01*
X384727Y312567D01*
X384534Y312546D01*
X384525Y312544D01*
X384517Y312543D01*
X384335Y312483D01*
X384150Y312425D01*
X384142Y312421D01*
X384134Y312418D01*
X383965Y312323D01*
X383798Y312230D01*
X383791Y312224D01*
X383783Y312220D01*
X383637Y312094D01*
X383491Y311970D01*
X383485Y311963D01*
X383478Y311957D01*
X383361Y311805D01*
X383241Y311654D01*
X383237Y311646D01*
X383232Y311639D01*
X383145Y311465D01*
X383059Y311295D01*
X383056Y311286D01*
X383052Y311278D01*
X383002Y311092D01*
X382951Y310907D01*
X382950Y310898D01*
X382948Y310889D01*
X382921Y310559D01*
X382921Y310475D01*
X382709Y309141D01*
X382292Y307856D01*
X381679Y306653D01*
X380885Y305560D01*
X379930Y304605D01*
X378837Y303811D01*
X377634Y303198D01*
X376349Y302781D01*
X375015Y302569D01*
X370331Y302569D01*
X370331Y311150D01*
X370331Y319731D01*
X373749Y319731D01*
X373757Y319732D01*
X373766Y319731D01*
X373960Y319752D01*
X374149Y319771D01*
X374158Y319773D01*
X374167Y319774D01*
X374350Y319832D01*
X374534Y319889D01*
X374542Y319893D01*
X374551Y319896D01*
X374718Y319988D01*
X374888Y320081D01*
X374895Y320086D01*
X374903Y320091D01*
X375050Y320215D01*
X375197Y320338D01*
X375203Y320345D01*
X375210Y320351D01*
X375330Y320503D01*
X375450Y320652D01*
X375454Y320660D01*
X375459Y320667D01*
X375547Y320840D01*
X375635Y321009D01*
X375638Y321018D01*
X375642Y321026D01*
X375694Y321212D01*
X375747Y321396D01*
X375747Y321405D01*
X375750Y321414D01*
X375764Y321607D01*
X375780Y321798D01*
X375779Y321806D01*
X375779Y321815D01*
X375755Y322008D01*
X375733Y322197D01*
X375730Y322206D01*
X375729Y322215D01*
X375667Y322398D01*
X375608Y322580D01*
X375603Y322588D01*
X375601Y322596D01*
X375504Y322763D01*
X375410Y322931D01*
X375404Y322938D01*
X375400Y322945D01*
X375185Y323198D01*
X360651Y337732D01*
X360630Y337749D01*
X360613Y337770D01*
X360475Y337877D01*
X360339Y337987D01*
X360316Y338000D01*
X360295Y338016D01*
X360138Y338094D01*
X359984Y338176D01*
X359958Y338184D01*
X359934Y338196D01*
X359765Y338241D01*
X359598Y338291D01*
X359571Y338293D01*
X359545Y338300D01*
X359215Y338327D01*
X316590Y338327D01*
X314910Y339023D01*
X313338Y340595D01*
X296145Y357788D01*
X294573Y359360D01*
X293877Y361040D01*
X293877Y529119D01*
X293876Y529128D01*
X293877Y529136D01*
X293857Y529327D01*
X293837Y529519D01*
X293835Y529528D01*
X293834Y529537D01*
X293776Y529720D01*
X293719Y529904D01*
X293715Y529912D01*
X293712Y529920D01*
X293619Y530089D01*
X293527Y530258D01*
X293522Y530265D01*
X293517Y530273D01*
X293392Y530420D01*
X293270Y530567D01*
X293263Y530573D01*
X293257Y530580D01*
X293106Y530699D01*
X292956Y530820D01*
X292948Y530824D01*
X292941Y530829D01*
X292768Y530917D01*
X292599Y531005D01*
X292590Y531008D01*
X292582Y531012D01*
X292396Y531064D01*
X292212Y531117D01*
X292203Y531117D01*
X292194Y531120D01*
X292002Y531134D01*
X291810Y531149D01*
X291802Y531148D01*
X291793Y531149D01*
X291601Y531125D01*
X291411Y531103D01*
X291402Y531100D01*
X291393Y531099D01*
X291211Y531037D01*
X291028Y530978D01*
X291020Y530973D01*
X291012Y530970D01*
X290844Y530874D01*
X290677Y530780D01*
X290670Y530774D01*
X290663Y530770D01*
X290410Y530555D01*
X289902Y530047D01*
X289885Y530026D01*
X289864Y530009D01*
X289757Y529870D01*
X289647Y529735D01*
X289634Y529712D01*
X289618Y529691D01*
X289540Y529534D01*
X289458Y529380D01*
X289450Y529354D01*
X289438Y529330D01*
X289393Y529161D01*
X289343Y528994D01*
X289341Y528967D01*
X289334Y528941D01*
X289307Y528610D01*
X289307Y332630D01*
X289309Y332604D01*
X289307Y332577D01*
X289329Y332403D01*
X289347Y332230D01*
X289354Y332204D01*
X289358Y332178D01*
X289414Y332012D01*
X289465Y331845D01*
X289478Y331821D01*
X289486Y331796D01*
X289573Y331644D01*
X289657Y331491D01*
X289674Y331470D01*
X289687Y331447D01*
X289902Y331194D01*
X293879Y327217D01*
X293879Y320483D01*
X289117Y315721D01*
X282383Y315721D01*
X277621Y320483D01*
X277621Y327217D01*
X281598Y331194D01*
X281615Y331215D01*
X281636Y331232D01*
X281743Y331370D01*
X281853Y331506D01*
X281866Y331529D01*
X281882Y331550D01*
X281960Y331706D01*
X282042Y331861D01*
X282050Y331887D01*
X282062Y331911D01*
X282107Y332080D01*
X282157Y332247D01*
X282159Y332274D01*
X282166Y332300D01*
X282193Y332630D01*
X282193Y353595D01*
X282193Y353599D01*
X282193Y353604D01*
X282173Y353798D01*
X282153Y353995D01*
X282152Y354000D01*
X282152Y354004D01*
X282093Y354192D01*
X282035Y354380D01*
X282033Y354384D01*
X282032Y354389D01*
X281936Y354563D01*
X281843Y354734D01*
X281841Y354738D01*
X281838Y354742D01*
X281710Y354894D01*
X281586Y355044D01*
X281582Y355046D01*
X281579Y355050D01*
X281425Y355173D01*
X281272Y355296D01*
X281268Y355298D01*
X281265Y355301D01*
X281090Y355390D01*
X280915Y355482D01*
X280910Y355483D01*
X280906Y355485D01*
X280719Y355538D01*
X280528Y355593D01*
X280523Y355593D01*
X280519Y355594D01*
X280326Y355609D01*
X280126Y355626D01*
X280122Y355625D01*
X280118Y355626D01*
X279924Y355602D01*
X279727Y355579D01*
X279722Y355577D01*
X279718Y355577D01*
X279533Y355516D01*
X279344Y355454D01*
X279340Y355452D01*
X279336Y355450D01*
X279166Y355354D01*
X278993Y355256D01*
X278990Y355253D01*
X278986Y355251D01*
X278837Y355121D01*
X278689Y354993D01*
X278686Y354989D01*
X278682Y354987D01*
X278561Y354829D01*
X278442Y354675D01*
X278440Y354671D01*
X278437Y354667D01*
X278285Y354372D01*
X277549Y352594D01*
X276056Y351101D01*
X274106Y350293D01*
X271994Y350293D01*
X270044Y351101D01*
X268551Y352594D01*
X267743Y354544D01*
X267743Y356656D01*
X268551Y358606D01*
X268898Y358953D01*
X268915Y358974D01*
X268936Y358991D01*
X269043Y359129D01*
X269153Y359265D01*
X269166Y359288D01*
X269182Y359309D01*
X269260Y359466D01*
X269342Y359620D01*
X269350Y359646D01*
X269362Y359670D01*
X269407Y359839D01*
X269457Y360006D01*
X269459Y360033D01*
X269466Y360059D01*
X269493Y360390D01*
X269493Y378995D01*
X269493Y378999D01*
X269493Y379004D01*
X269473Y379194D01*
X269453Y379396D01*
X269452Y379400D01*
X269452Y379404D01*
X269393Y379592D01*
X269335Y379780D01*
X269333Y379784D01*
X269332Y379789D01*
X269236Y379963D01*
X269143Y380134D01*
X269141Y380138D01*
X269138Y380142D01*
X269010Y380295D01*
X268886Y380444D01*
X268882Y380446D01*
X268879Y380450D01*
X268724Y380573D01*
X268572Y380696D01*
X268568Y380698D01*
X268564Y380701D01*
X268386Y380793D01*
X268215Y380882D01*
X268210Y380883D01*
X268206Y380885D01*
X268013Y380940D01*
X267828Y380993D01*
X267823Y380993D01*
X267819Y380995D01*
X267623Y381010D01*
X267426Y381026D01*
X267422Y381025D01*
X267418Y381026D01*
X267224Y381002D01*
X267027Y380979D01*
X267022Y380978D01*
X267018Y380977D01*
X266833Y380916D01*
X266644Y380854D01*
X266640Y380852D01*
X266636Y380850D01*
X266466Y380754D01*
X266293Y380656D01*
X266290Y380653D01*
X266286Y380651D01*
X266139Y380523D01*
X265989Y380393D01*
X265986Y380389D01*
X265982Y380387D01*
X265862Y380230D01*
X265742Y380075D01*
X265740Y380071D01*
X265737Y380067D01*
X265585Y379772D01*
X264849Y377994D01*
X263356Y376501D01*
X261406Y375693D01*
X259294Y375693D01*
X257344Y376501D01*
X255851Y377994D01*
X255043Y379944D01*
X255043Y382056D01*
X255851Y384006D01*
X256198Y384353D01*
X256215Y384374D01*
X256236Y384391D01*
X256342Y384529D01*
X256453Y384665D01*
X256466Y384688D01*
X256482Y384709D01*
X256560Y384866D01*
X256642Y385020D01*
X256650Y385046D01*
X256662Y385070D01*
X256707Y385239D01*
X256757Y385406D01*
X256759Y385433D01*
X256766Y385459D01*
X256793Y385789D01*
X256793Y547661D01*
X256791Y547687D01*
X256793Y547714D01*
X256771Y547888D01*
X256753Y548061D01*
X256745Y548087D01*
X256742Y548113D01*
X256687Y548279D01*
X256635Y548446D01*
X256622Y548470D01*
X256614Y548495D01*
X256527Y548647D01*
X256443Y548800D01*
X256426Y548821D01*
X256413Y548844D01*
X256198Y549097D01*
X255851Y549444D01*
X255043Y551394D01*
X255043Y553506D01*
X255851Y555456D01*
X257344Y556949D01*
X259294Y557757D01*
X261406Y557757D01*
X263356Y556949D01*
X264849Y555456D01*
X265585Y553678D01*
X265588Y553674D01*
X265589Y553670D01*
X265682Y553498D01*
X265776Y553323D01*
X265778Y553319D01*
X265781Y553316D01*
X265906Y553165D01*
X266032Y553013D01*
X266035Y553010D01*
X266038Y553006D01*
X266191Y552883D01*
X266345Y552759D01*
X266349Y552757D01*
X266352Y552754D01*
X266525Y552664D01*
X266701Y552572D01*
X266705Y552570D01*
X266709Y552568D01*
X266897Y552514D01*
X267088Y552459D01*
X267092Y552458D01*
X267096Y552457D01*
X267294Y552441D01*
X267489Y552424D01*
X267493Y552425D01*
X267498Y552424D01*
X267692Y552447D01*
X267889Y552469D01*
X267893Y552471D01*
X267897Y552471D01*
X268083Y552532D01*
X268272Y552592D01*
X268276Y552595D01*
X268280Y552596D01*
X268452Y552693D01*
X268624Y552789D01*
X268627Y552792D01*
X268631Y552794D01*
X268779Y552922D01*
X268929Y553051D01*
X268932Y553054D01*
X268936Y553057D01*
X269056Y553212D01*
X269178Y553368D01*
X269180Y553372D01*
X269182Y553375D01*
X269270Y553551D01*
X269358Y553727D01*
X269360Y553732D01*
X269362Y553736D01*
X269413Y553927D01*
X269465Y554116D01*
X269465Y554120D01*
X269466Y554124D01*
X269493Y554455D01*
X269493Y639035D01*
X269491Y639062D01*
X269493Y639089D01*
X269471Y639263D01*
X269453Y639436D01*
X269446Y639462D01*
X269442Y639488D01*
X269387Y639654D01*
X269335Y639821D01*
X269322Y639845D01*
X269314Y639870D01*
X269227Y640021D01*
X269143Y640175D01*
X269126Y640195D01*
X269113Y640219D01*
X268898Y640472D01*
X259472Y649898D01*
X256793Y652577D01*
X256793Y738073D01*
X326048Y807328D01*
X326065Y807349D01*
X326086Y807367D01*
X326193Y807504D01*
X326303Y807640D01*
X326316Y807663D01*
X326332Y807685D01*
X326410Y807841D01*
X326492Y807996D01*
X326500Y808021D01*
X326512Y808045D01*
X326557Y808215D01*
X326607Y808381D01*
X326609Y808408D01*
X326616Y808434D01*
X326643Y808765D01*
X326643Y811894D01*
X326642Y811902D01*
X326643Y811911D01*
X326622Y812103D01*
X326603Y812294D01*
X326601Y812303D01*
X326600Y812312D01*
X326542Y812494D01*
X326485Y812679D01*
X326481Y812687D01*
X326478Y812696D01*
X326385Y812864D01*
X326293Y813033D01*
X326288Y813040D01*
X326283Y813048D01*
X326159Y813195D01*
X326036Y813342D01*
X326029Y813348D01*
X326023Y813355D01*
X325872Y813474D01*
X325722Y813595D01*
X325714Y813599D01*
X325707Y813604D01*
X325534Y813692D01*
X325365Y813780D01*
X325356Y813783D01*
X325348Y813787D01*
X325162Y813839D01*
X324978Y813892D01*
X324969Y813892D01*
X324960Y813895D01*
X324767Y813909D01*
X324576Y813925D01*
X324568Y813924D01*
X324559Y813924D01*
X324366Y813900D01*
X324177Y813878D01*
X324168Y813875D01*
X324159Y813874D01*
X323976Y813812D01*
X323794Y813753D01*
X323786Y813748D01*
X323778Y813746D01*
X323612Y813650D01*
X323443Y813555D01*
X323436Y813549D01*
X323429Y813545D01*
X323176Y813330D01*
X320867Y811021D01*
X314133Y811021D01*
X310156Y814998D01*
X310135Y815015D01*
X310118Y815036D01*
X309980Y815143D01*
X309844Y815253D01*
X309821Y815266D01*
X309800Y815282D01*
X309643Y815360D01*
X309489Y815442D01*
X309463Y815450D01*
X309439Y815462D01*
X309270Y815507D01*
X309103Y815557D01*
X309076Y815559D01*
X309050Y815566D01*
X308720Y815593D01*
X300765Y815593D01*
X300738Y815591D01*
X300711Y815593D01*
X300537Y815571D01*
X300364Y815553D01*
X300339Y815546D01*
X300312Y815542D01*
X300146Y815487D01*
X299979Y815435D01*
X299956Y815422D01*
X299930Y815414D01*
X299779Y815327D01*
X299625Y815243D01*
X299605Y815226D01*
X299581Y815213D01*
X299328Y814998D01*
X280873Y796543D01*
X224565Y796543D01*
X224538Y796541D01*
X224511Y796543D01*
X224337Y796521D01*
X224164Y796503D01*
X224139Y796496D01*
X224112Y796492D01*
X223946Y796437D01*
X223779Y796385D01*
X223756Y796372D01*
X223730Y796364D01*
X223579Y796277D01*
X223425Y796193D01*
X223405Y796176D01*
X223381Y796163D01*
X223128Y795948D01*
X194652Y767472D01*
X194635Y767451D01*
X194614Y767433D01*
X194507Y767296D01*
X194397Y767160D01*
X194384Y767137D01*
X194368Y767115D01*
X194290Y766958D01*
X194208Y766804D01*
X194200Y766779D01*
X194188Y766755D01*
X194143Y766585D01*
X194093Y766419D01*
X194091Y766392D01*
X194084Y766366D01*
X194057Y766035D01*
X194057Y690595D01*
X194059Y690568D01*
X194057Y690542D01*
X194079Y690368D01*
X194097Y690194D01*
X194104Y690169D01*
X194108Y690142D01*
X194164Y689976D01*
X194215Y689809D01*
X194228Y689786D01*
X194236Y689760D01*
X194323Y689609D01*
X194407Y689455D01*
X194424Y689435D01*
X194437Y689412D01*
X194652Y689159D01*
X200407Y683403D01*
X200407Y675197D01*
X194603Y669393D01*
X186397Y669393D01*
X180593Y675197D01*
X180593Y683403D01*
X186348Y689159D01*
X186365Y689179D01*
X186386Y689197D01*
X186493Y689335D01*
X186603Y689470D01*
X186616Y689494D01*
X186632Y689515D01*
X186710Y689671D01*
X186792Y689826D01*
X186800Y689851D01*
X186812Y689875D01*
X186857Y690045D01*
X186907Y690212D01*
X186909Y690238D01*
X186916Y690264D01*
X186943Y690595D01*
X186943Y769823D01*
X220777Y803657D01*
X277085Y803657D01*
X277112Y803659D01*
X277139Y803657D01*
X277313Y803679D01*
X277486Y803697D01*
X277511Y803704D01*
X277538Y803708D01*
X277704Y803763D01*
X277871Y803815D01*
X277894Y803828D01*
X277920Y803836D01*
X278071Y803923D01*
X278225Y804007D01*
X278245Y804024D01*
X278269Y804037D01*
X278522Y804252D01*
X296977Y822707D01*
X308720Y822707D01*
X308746Y822709D01*
X308773Y822707D01*
X308947Y822729D01*
X309120Y822747D01*
X309146Y822754D01*
X309172Y822758D01*
X309338Y822814D01*
X309505Y822865D01*
X309529Y822878D01*
X309554Y822886D01*
X309706Y822973D01*
X309859Y823057D01*
X309880Y823074D01*
X309903Y823087D01*
X310156Y823302D01*
X314133Y827279D01*
X320867Y827279D01*
X323176Y824970D01*
X323183Y824964D01*
X323188Y824958D01*
X323338Y824837D01*
X323487Y824715D01*
X323495Y824711D01*
X323502Y824705D01*
X323672Y824617D01*
X323843Y824526D01*
X323852Y824524D01*
X323859Y824520D01*
X324044Y824467D01*
X324229Y824412D01*
X324238Y824411D01*
X324246Y824408D01*
X324437Y824393D01*
X324630Y824375D01*
X324639Y824376D01*
X324648Y824375D01*
X324837Y824398D01*
X325030Y824419D01*
X325039Y824421D01*
X325047Y824422D01*
X325229Y824482D01*
X325414Y824540D01*
X325422Y824544D01*
X325430Y824547D01*
X325599Y824642D01*
X325766Y824735D01*
X325773Y824741D01*
X325781Y824745D01*
X325927Y824871D01*
X326073Y824995D01*
X326079Y825002D01*
X326086Y825008D01*
X326203Y825160D01*
X326323Y825311D01*
X326327Y825319D01*
X326332Y825326D01*
X326418Y825498D01*
X326505Y825670D01*
X326508Y825679D01*
X326512Y825687D01*
X326562Y825873D01*
X326613Y826058D01*
X326614Y826067D01*
X326616Y826076D01*
X326643Y826406D01*
X326643Y837294D01*
X326642Y837302D01*
X326643Y837311D01*
X326622Y837503D01*
X326603Y837694D01*
X326601Y837703D01*
X326600Y837712D01*
X326542Y837894D01*
X326485Y838079D01*
X326481Y838087D01*
X326478Y838096D01*
X326385Y838264D01*
X326293Y838433D01*
X326288Y838440D01*
X326283Y838448D01*
X326159Y838595D01*
X326036Y838742D01*
X326029Y838748D01*
X326023Y838755D01*
X325872Y838874D01*
X325722Y838995D01*
X325714Y838999D01*
X325707Y839004D01*
X325534Y839092D01*
X325365Y839180D01*
X325356Y839183D01*
X325348Y839187D01*
X325162Y839239D01*
X324978Y839292D01*
X324969Y839292D01*
X324960Y839295D01*
X324767Y839309D01*
X324576Y839325D01*
X324568Y839324D01*
X324559Y839324D01*
X324366Y839300D01*
X324177Y839278D01*
X324168Y839275D01*
X324159Y839274D01*
X323976Y839212D01*
X323794Y839153D01*
X323786Y839148D01*
X323778Y839146D01*
X323612Y839050D01*
X323443Y838955D01*
X323436Y838949D01*
X323429Y838945D01*
X323176Y838730D01*
X320867Y836421D01*
X314133Y836421D01*
X309097Y841457D01*
X309021Y841597D01*
X309004Y841617D01*
X308991Y841641D01*
X308776Y841894D01*
X297572Y853098D01*
X294893Y855777D01*
X294893Y903173D01*
X316027Y924307D01*
X365870Y924307D01*
X365896Y924309D01*
X365923Y924307D01*
X366097Y924329D01*
X366270Y924347D01*
X366296Y924354D01*
X366322Y924358D01*
X366488Y924413D01*
X366655Y924465D01*
X366679Y924478D01*
X366704Y924486D01*
X366856Y924573D01*
X367009Y924657D01*
X367030Y924674D01*
X367053Y924687D01*
X367306Y924902D01*
X371283Y928879D01*
X378017Y928879D01*
X382779Y924117D01*
X382779Y917383D01*
X378017Y912621D01*
X371283Y912621D01*
X367306Y916598D01*
X367285Y916615D01*
X367268Y916636D01*
X367130Y916743D01*
X366994Y916853D01*
X366971Y916866D01*
X366950Y916882D01*
X366793Y916960D01*
X366639Y917042D01*
X366613Y917050D01*
X366589Y917062D01*
X366420Y917107D01*
X366253Y917157D01*
X366226Y917159D01*
X366200Y917166D01*
X365870Y917193D01*
X319815Y917193D01*
X319788Y917191D01*
X319761Y917193D01*
X319587Y917171D01*
X319414Y917153D01*
X319389Y917146D01*
X319362Y917142D01*
X319196Y917087D01*
X319029Y917035D01*
X319006Y917022D01*
X318980Y917014D01*
X318829Y916927D01*
X318675Y916843D01*
X318655Y916826D01*
X318631Y916813D01*
X318378Y916598D01*
X302602Y900822D01*
X302585Y900801D01*
X302564Y900783D01*
X302457Y900646D01*
X302347Y900510D01*
X302334Y900487D01*
X302318Y900465D01*
X302240Y900308D01*
X302158Y900154D01*
X302150Y900129D01*
X302138Y900105D01*
X302093Y899935D01*
X302043Y899769D01*
X302041Y899742D01*
X302034Y899716D01*
X302007Y899385D01*
X302007Y859565D01*
X302009Y859538D01*
X302007Y859511D01*
X302029Y859337D01*
X302047Y859164D01*
X302054Y859139D01*
X302058Y859112D01*
X302113Y858946D01*
X302165Y858779D01*
X302178Y858755D01*
X302186Y858730D01*
X302273Y858579D01*
X302357Y858425D01*
X302374Y858405D01*
X302387Y858381D01*
X302602Y858128D01*
X309656Y851074D01*
X309670Y851063D01*
X309681Y851049D01*
X309825Y850935D01*
X309967Y850819D01*
X309983Y850811D01*
X309997Y850800D01*
X310161Y850716D01*
X310323Y850630D01*
X310340Y850625D01*
X310356Y850617D01*
X310533Y850568D01*
X310709Y850516D01*
X310727Y850514D01*
X310744Y850509D01*
X310927Y850496D01*
X311110Y850479D01*
X311128Y850481D01*
X311145Y850480D01*
X311327Y850503D01*
X311510Y850523D01*
X311527Y850528D01*
X311545Y850530D01*
X311718Y850589D01*
X311894Y850644D01*
X311910Y850653D01*
X311927Y850659D01*
X312086Y850750D01*
X312246Y850839D01*
X312260Y850851D01*
X312275Y850859D01*
X312528Y851074D01*
X314133Y852679D01*
X320867Y852679D01*
X323176Y850370D01*
X323183Y850364D01*
X323188Y850358D01*
X323338Y850237D01*
X323487Y850115D01*
X323495Y850111D01*
X323502Y850105D01*
X323672Y850017D01*
X323843Y849926D01*
X323852Y849924D01*
X323859Y849920D01*
X324044Y849867D01*
X324229Y849812D01*
X324238Y849811D01*
X324246Y849808D01*
X324437Y849793D01*
X324630Y849775D01*
X324639Y849776D01*
X324648Y849775D01*
X324837Y849798D01*
X325030Y849819D01*
X325039Y849821D01*
X325047Y849822D01*
X325229Y849882D01*
X325414Y849940D01*
X325422Y849944D01*
X325430Y849947D01*
X325599Y850042D01*
X325766Y850135D01*
X325773Y850141D01*
X325781Y850145D01*
X325927Y850271D01*
X326073Y850395D01*
X326079Y850402D01*
X326086Y850408D01*
X326203Y850560D01*
X326323Y850711D01*
X326327Y850719D01*
X326332Y850726D01*
X326418Y850898D01*
X326505Y851070D01*
X326508Y851079D01*
X326512Y851087D01*
X326562Y851273D01*
X326613Y851458D01*
X326614Y851467D01*
X326616Y851476D01*
X326643Y851806D01*
X326643Y862694D01*
X326642Y862702D01*
X326643Y862711D01*
X326622Y862903D01*
X326603Y863094D01*
X326601Y863103D01*
X326600Y863112D01*
X326542Y863294D01*
X326485Y863479D01*
X326481Y863487D01*
X326478Y863496D01*
X326385Y863664D01*
X326293Y863833D01*
X326288Y863840D01*
X326283Y863848D01*
X326159Y863995D01*
X326036Y864142D01*
X326029Y864148D01*
X326023Y864155D01*
X325872Y864274D01*
X325722Y864395D01*
X325714Y864399D01*
X325707Y864404D01*
X325534Y864492D01*
X325365Y864580D01*
X325356Y864583D01*
X325348Y864587D01*
X325162Y864639D01*
X324978Y864692D01*
X324969Y864692D01*
X324960Y864695D01*
X324767Y864709D01*
X324576Y864725D01*
X324568Y864724D01*
X324559Y864724D01*
X324366Y864700D01*
X324177Y864678D01*
X324168Y864675D01*
X324159Y864674D01*
X323976Y864612D01*
X323794Y864553D01*
X323786Y864548D01*
X323778Y864546D01*
X323612Y864450D01*
X323443Y864355D01*
X323436Y864349D01*
X323429Y864345D01*
X323176Y864130D01*
X320867Y861821D01*
X314133Y861821D01*
X309371Y866583D01*
X309371Y873317D01*
X314133Y878079D01*
X320867Y878079D01*
X323176Y875770D01*
X323183Y875764D01*
X323188Y875758D01*
X323338Y875637D01*
X323487Y875515D01*
X323495Y875511D01*
X323502Y875505D01*
X323672Y875417D01*
X323843Y875326D01*
X323852Y875324D01*
X323859Y875320D01*
X324044Y875267D01*
X324229Y875212D01*
X324238Y875211D01*
X324246Y875208D01*
X324437Y875193D01*
X324630Y875175D01*
X324639Y875176D01*
X324648Y875175D01*
X324837Y875198D01*
X325030Y875219D01*
X325039Y875221D01*
X325047Y875222D01*
X325229Y875282D01*
X325414Y875340D01*
X325422Y875344D01*
X325430Y875347D01*
X325599Y875442D01*
X325766Y875535D01*
X325773Y875541D01*
X325781Y875545D01*
X325927Y875671D01*
X326073Y875795D01*
X326079Y875802D01*
X326086Y875808D01*
X326203Y875960D01*
X326323Y876111D01*
X326327Y876119D01*
X326332Y876126D01*
X326418Y876298D01*
X326505Y876470D01*
X326508Y876479D01*
X326512Y876487D01*
X326562Y876673D01*
X326613Y876858D01*
X326614Y876867D01*
X326616Y876876D01*
X326643Y877206D01*
X326643Y890560D01*
X326641Y890587D01*
X326643Y890614D01*
X326621Y890788D01*
X326603Y890961D01*
X326596Y890987D01*
X326592Y891013D01*
X326537Y891179D01*
X326485Y891346D01*
X326472Y891370D01*
X326464Y891395D01*
X326377Y891547D01*
X326293Y891700D01*
X326276Y891721D01*
X326263Y891744D01*
X326048Y891997D01*
X325701Y892344D01*
X324893Y894294D01*
X324893Y896406D01*
X325701Y898356D01*
X327194Y899849D01*
X329144Y900657D01*
X331256Y900657D01*
X333206Y899849D01*
X334699Y898356D01*
X335507Y896406D01*
X335507Y894294D01*
X334699Y892344D01*
X334352Y891997D01*
X334335Y891976D01*
X334314Y891959D01*
X334207Y891821D01*
X334097Y891685D01*
X334084Y891662D01*
X334068Y891641D01*
X333990Y891484D01*
X333908Y891330D01*
X333900Y891304D01*
X333888Y891280D01*
X333843Y891111D01*
X333793Y890944D01*
X333791Y890917D01*
X333784Y890891D01*
X333757Y890560D01*
X333757Y804977D01*
X264502Y735722D01*
X264485Y735701D01*
X264464Y735683D01*
X264357Y735546D01*
X264247Y735410D01*
X264234Y735387D01*
X264218Y735365D01*
X264140Y735208D01*
X264058Y735054D01*
X264050Y735029D01*
X264038Y735005D01*
X263993Y734835D01*
X263943Y734669D01*
X263941Y734642D01*
X263934Y734616D01*
X263907Y734285D01*
X263907Y656365D01*
X263909Y656338D01*
X263907Y656311D01*
X263929Y656137D01*
X263947Y655964D01*
X263954Y655938D01*
X263958Y655912D01*
X264013Y655746D01*
X264065Y655579D01*
X264078Y655555D01*
X264086Y655530D01*
X264173Y655379D01*
X264257Y655225D01*
X264274Y655205D01*
X264287Y655181D01*
X264502Y654928D01*
X273928Y645502D01*
X276722Y642708D01*
X276765Y642570D01*
X276767Y642566D01*
X276768Y642561D01*
X276864Y642387D01*
X276957Y642216D01*
X276959Y642212D01*
X276962Y642208D01*
X277090Y642055D01*
X277214Y641906D01*
X277218Y641904D01*
X277221Y641900D01*
X277375Y641777D01*
X277528Y641654D01*
X277532Y641652D01*
X277535Y641649D01*
X277710Y641560D01*
X277885Y641468D01*
X277890Y641467D01*
X277894Y641465D01*
X278081Y641412D01*
X278272Y641357D01*
X278277Y641357D01*
X278281Y641356D01*
X278474Y641341D01*
X278674Y641324D01*
X278678Y641325D01*
X278682Y641324D01*
X278876Y641348D01*
X279073Y641371D01*
X279078Y641373D01*
X279082Y641373D01*
X279267Y641434D01*
X279456Y641496D01*
X279460Y641498D01*
X279464Y641500D01*
X279633Y641596D01*
X279807Y641694D01*
X279810Y641697D01*
X279814Y641699D01*
X279963Y641829D01*
X280111Y641957D01*
X280114Y641961D01*
X280118Y641963D01*
X280238Y642120D01*
X280358Y642275D01*
X280360Y642279D01*
X280363Y642283D01*
X280515Y642578D01*
X281251Y644356D01*
X282744Y645849D01*
X284694Y646657D01*
X286806Y646657D01*
X288756Y645849D01*
X290249Y644356D01*
X290985Y642578D01*
X290987Y642574D01*
X290989Y642570D01*
X291082Y642397D01*
X291176Y642223D01*
X291178Y642219D01*
X291181Y642216D01*
X291305Y642067D01*
X291432Y641913D01*
X291435Y641910D01*
X291438Y641906D01*
X291591Y641783D01*
X291745Y641659D01*
X291749Y641657D01*
X291752Y641654D01*
X291925Y641564D01*
X292101Y641472D01*
X292105Y641471D01*
X292109Y641468D01*
X292298Y641414D01*
X292488Y641359D01*
X292492Y641358D01*
X292496Y641357D01*
X292694Y641341D01*
X292889Y641324D01*
X292893Y641325D01*
X292898Y641324D01*
X293092Y641347D01*
X293289Y641369D01*
X293293Y641371D01*
X293297Y641371D01*
X293483Y641432D01*
X293672Y641492D01*
X293676Y641495D01*
X293680Y641496D01*
X293853Y641593D01*
X294024Y641689D01*
X294027Y641692D01*
X294031Y641694D01*
X294180Y641822D01*
X294329Y641951D01*
X294332Y641954D01*
X294336Y641957D01*
X294456Y642112D01*
X294578Y642268D01*
X294580Y642272D01*
X294582Y642275D01*
X294671Y642453D01*
X294758Y642627D01*
X294760Y642632D01*
X294762Y642636D01*
X294813Y642828D01*
X294865Y643016D01*
X294865Y643020D01*
X294866Y643024D01*
X294893Y643355D01*
X294893Y719023D01*
X345098Y769228D01*
X345115Y769249D01*
X345136Y769267D01*
X345243Y769404D01*
X345353Y769540D01*
X345366Y769563D01*
X345382Y769585D01*
X345460Y769742D01*
X345542Y769896D01*
X345550Y769921D01*
X345562Y769945D01*
X345607Y770115D01*
X345657Y770281D01*
X345659Y770308D01*
X345666Y770334D01*
X345693Y770665D01*
X345693Y784970D01*
X345691Y784996D01*
X345693Y785023D01*
X345671Y785197D01*
X345653Y785370D01*
X345646Y785396D01*
X345642Y785422D01*
X345587Y785588D01*
X345535Y785755D01*
X345522Y785779D01*
X345514Y785804D01*
X345427Y785956D01*
X345343Y786109D01*
X345326Y786130D01*
X345313Y786153D01*
X345098Y786406D01*
X341121Y790383D01*
X341121Y797117D01*
X345883Y801879D01*
X352617Y801879D01*
X353910Y800586D01*
X353917Y800580D01*
X353922Y800574D01*
X354072Y800453D01*
X354221Y800331D01*
X354229Y800327D01*
X354236Y800321D01*
X354406Y800233D01*
X354577Y800142D01*
X354586Y800140D01*
X354593Y800136D01*
X354778Y800083D01*
X354963Y800028D01*
X354972Y800027D01*
X354980Y800024D01*
X355171Y800009D01*
X355364Y799991D01*
X355373Y799992D01*
X355382Y799991D01*
X355571Y800014D01*
X355764Y800035D01*
X355773Y800037D01*
X355781Y800038D01*
X355963Y800098D01*
X356148Y800156D01*
X356156Y800160D01*
X356164Y800163D01*
X356330Y800257D01*
X356500Y800351D01*
X356507Y800357D01*
X356515Y800361D01*
X356660Y800486D01*
X356807Y800611D01*
X356813Y800618D01*
X356820Y800624D01*
X356936Y800775D01*
X357057Y800927D01*
X357061Y800935D01*
X357066Y800942D01*
X357152Y801114D01*
X357239Y801286D01*
X357242Y801295D01*
X357246Y801303D01*
X357296Y801489D01*
X357347Y801674D01*
X357348Y801683D01*
X357350Y801692D01*
X357377Y802022D01*
X357377Y861678D01*
X357376Y861686D01*
X357377Y861695D01*
X357356Y861887D01*
X357337Y862078D01*
X357335Y862087D01*
X357334Y862096D01*
X357276Y862278D01*
X357219Y862463D01*
X357215Y862471D01*
X357212Y862480D01*
X357119Y862648D01*
X357027Y862817D01*
X357022Y862824D01*
X357017Y862832D01*
X356892Y862980D01*
X356770Y863126D01*
X356763Y863132D01*
X356757Y863139D01*
X356605Y863259D01*
X356456Y863379D01*
X356448Y863383D01*
X356441Y863388D01*
X356269Y863476D01*
X356099Y863564D01*
X356090Y863567D01*
X356082Y863571D01*
X355896Y863623D01*
X355712Y863676D01*
X355703Y863676D01*
X355694Y863679D01*
X355502Y863693D01*
X355310Y863709D01*
X355302Y863708D01*
X355293Y863708D01*
X355100Y863684D01*
X354911Y863662D01*
X354902Y863659D01*
X354893Y863658D01*
X354710Y863596D01*
X354528Y863537D01*
X354520Y863532D01*
X354512Y863530D01*
X354346Y863434D01*
X354177Y863339D01*
X354170Y863333D01*
X354163Y863329D01*
X353910Y863114D01*
X352617Y861821D01*
X345883Y861821D01*
X341121Y866583D01*
X341121Y873317D01*
X345883Y878079D01*
X352617Y878079D01*
X353910Y876786D01*
X353917Y876780D01*
X353922Y876774D01*
X354072Y876653D01*
X354221Y876531D01*
X354229Y876527D01*
X354236Y876521D01*
X354406Y876433D01*
X354577Y876342D01*
X354586Y876340D01*
X354593Y876336D01*
X354778Y876283D01*
X354963Y876228D01*
X354972Y876227D01*
X354980Y876224D01*
X355171Y876209D01*
X355364Y876191D01*
X355373Y876192D01*
X355382Y876191D01*
X355571Y876214D01*
X355764Y876235D01*
X355773Y876237D01*
X355781Y876238D01*
X355963Y876298D01*
X356148Y876356D01*
X356156Y876360D01*
X356164Y876363D01*
X356331Y876457D01*
X356500Y876551D01*
X356507Y876557D01*
X356515Y876561D01*
X356660Y876686D01*
X356807Y876811D01*
X356813Y876818D01*
X356820Y876824D01*
X356936Y876974D01*
X357057Y877127D01*
X357061Y877135D01*
X357066Y877142D01*
X357152Y877314D01*
X357239Y877486D01*
X357242Y877495D01*
X357246Y877503D01*
X357296Y877689D01*
X357347Y877874D01*
X357348Y877883D01*
X357350Y877892D01*
X357377Y878222D01*
X357377Y883560D01*
X358073Y885240D01*
X394882Y922049D01*
X394899Y922070D01*
X394920Y922087D01*
X395027Y922225D01*
X395137Y922361D01*
X395150Y922384D01*
X395166Y922405D01*
X395244Y922562D01*
X395326Y922716D01*
X395334Y922742D01*
X395346Y922766D01*
X395391Y922935D01*
X395441Y923102D01*
X395443Y923129D01*
X395450Y923155D01*
X395477Y923485D01*
X395477Y938386D01*
X395475Y938412D01*
X395477Y938439D01*
X395455Y938613D01*
X395437Y938786D01*
X395430Y938812D01*
X395426Y938838D01*
X395371Y939004D01*
X395319Y939171D01*
X395306Y939195D01*
X395298Y939220D01*
X395211Y939372D01*
X395127Y939525D01*
X395110Y939546D01*
X395097Y939569D01*
X394882Y939822D01*
X391921Y942783D01*
X391921Y949517D01*
X396683Y954279D01*
X403417Y954279D01*
X406378Y951318D01*
X406399Y951301D01*
X406416Y951280D01*
X406554Y951173D01*
X406690Y951063D01*
X406713Y951050D01*
X406734Y951034D01*
X406891Y950956D01*
X407045Y950874D01*
X407071Y950866D01*
X407095Y950854D01*
X407264Y950809D01*
X407431Y950759D01*
X407458Y950757D01*
X407484Y950750D01*
X407814Y950723D01*
X440379Y950723D01*
X440405Y950725D01*
X440432Y950723D01*
X440606Y950745D01*
X440779Y950763D01*
X440805Y950770D01*
X440831Y950774D01*
X440997Y950829D01*
X441164Y950881D01*
X441188Y950894D01*
X441213Y950902D01*
X441365Y950989D01*
X441518Y951073D01*
X441539Y951090D01*
X441562Y951103D01*
X441815Y951318D01*
X444400Y953903D01*
X447761Y955295D01*
X466639Y955295D01*
X469631Y954056D01*
X469644Y954052D01*
X469655Y954045D01*
X469835Y953994D01*
X470016Y953939D01*
X470029Y953938D01*
X470042Y953934D01*
X470230Y953919D01*
X470417Y953901D01*
X470430Y953902D01*
X470444Y953901D01*
X470630Y953923D01*
X470817Y953943D01*
X470830Y953947D01*
X470843Y953948D01*
X471022Y954006D01*
X471202Y954062D01*
X471213Y954069D01*
X471226Y954073D01*
X471390Y954165D01*
X471555Y954256D01*
X471565Y954264D01*
X471577Y954271D01*
X471719Y954393D01*
X471863Y954515D01*
X471871Y954525D01*
X471882Y954534D01*
X471996Y954682D01*
X472114Y954830D01*
X472120Y954842D01*
X472128Y954852D01*
X472212Y955020D01*
X472298Y955188D01*
X472302Y955201D01*
X472308Y955213D01*
X472357Y955395D01*
X472408Y955575D01*
X472409Y955588D01*
X472412Y955601D01*
X472439Y955932D01*
X472439Y960714D01*
X472430Y960807D01*
X472431Y960900D01*
X472410Y961007D01*
X472399Y961115D01*
X472372Y961204D01*
X472354Y961295D01*
X472313Y961396D01*
X472281Y961499D01*
X472237Y961581D01*
X472201Y961668D01*
X472141Y961758D01*
X472089Y961853D01*
X472030Y961925D01*
X471978Y962003D01*
X471901Y962079D01*
X471832Y962163D01*
X471759Y962221D01*
X471693Y962287D01*
X471603Y962347D01*
X471518Y962415D01*
X471435Y962458D01*
X471358Y962510D01*
X471257Y962551D01*
X471161Y962601D01*
X471071Y962626D01*
X470985Y962662D01*
X470878Y962682D01*
X470774Y962712D01*
X470681Y962720D01*
X470589Y962737D01*
X470481Y962736D01*
X470372Y962745D01*
X470280Y962734D01*
X470187Y962733D01*
X470080Y962711D01*
X469973Y962698D01*
X469884Y962669D01*
X469793Y962650D01*
X469669Y962599D01*
X469590Y962573D01*
X469547Y962549D01*
X469486Y962524D01*
X468720Y962134D01*
X467199Y961639D01*
X465620Y961389D01*
X459739Y961389D01*
X459739Y971042D01*
X459737Y971060D01*
X459739Y971077D01*
X459718Y971260D01*
X459699Y971442D01*
X459694Y971459D01*
X459692Y971477D01*
X459667Y971555D01*
X459706Y971692D01*
X459708Y971710D01*
X459712Y971727D01*
X459739Y972058D01*
X459739Y981711D01*
X465620Y981711D01*
X467199Y981461D01*
X468720Y980966D01*
X469486Y980576D01*
X469573Y980542D01*
X469655Y980499D01*
X469760Y980469D01*
X469861Y980430D01*
X469953Y980414D01*
X470042Y980388D01*
X470151Y980379D01*
X470257Y980360D01*
X470351Y980363D01*
X470444Y980355D01*
X470551Y980368D01*
X470660Y980371D01*
X470751Y980391D01*
X470843Y980402D01*
X470947Y980436D01*
X471052Y980460D01*
X471138Y980498D01*
X471226Y980527D01*
X471321Y980580D01*
X471420Y980625D01*
X471496Y980679D01*
X471577Y980725D01*
X471659Y980796D01*
X471747Y980859D01*
X471811Y980927D01*
X471882Y980988D01*
X471948Y981074D01*
X472022Y981153D01*
X472071Y981232D01*
X472128Y981306D01*
X472177Y981403D01*
X472234Y981496D01*
X472266Y981583D01*
X472308Y981667D01*
X472336Y981771D01*
X472373Y981873D01*
X472388Y981965D01*
X472412Y982055D01*
X472423Y982189D01*
X472436Y982271D01*
X472434Y982320D01*
X472439Y982386D01*
X472439Y984756D01*
X472437Y984773D01*
X472439Y984791D01*
X472418Y984974D01*
X472399Y985156D01*
X472394Y985173D01*
X472392Y985191D01*
X472335Y985365D01*
X472281Y985541D01*
X472273Y985557D01*
X472267Y985574D01*
X472177Y985733D01*
X472089Y985895D01*
X472078Y985909D01*
X472069Y985925D01*
X471949Y986064D01*
X471832Y986204D01*
X471818Y986216D01*
X471806Y986229D01*
X471661Y986342D01*
X471518Y986457D01*
X471502Y986465D01*
X471488Y986476D01*
X471323Y986558D01*
X471161Y986642D01*
X471143Y986647D01*
X471127Y986655D01*
X470950Y986703D01*
X470774Y986754D01*
X470756Y986755D01*
X470738Y986760D01*
X470408Y986787D01*
X305436Y986753D01*
X305418Y986751D01*
X305400Y986752D01*
X305218Y986731D01*
X305035Y986713D01*
X305018Y986707D01*
X305001Y986705D01*
X304826Y986648D01*
X304650Y986594D01*
X304635Y986586D01*
X304618Y986581D01*
X304458Y986490D01*
X304296Y986403D01*
X304283Y986391D01*
X304267Y986383D01*
X304128Y986262D01*
X303987Y986145D01*
X303976Y986131D01*
X303962Y986119D01*
X303850Y985975D01*
X303735Y985831D01*
X303726Y985815D01*
X303716Y985801D01*
X303634Y985637D01*
X303549Y985474D01*
X303544Y985457D01*
X303536Y985441D01*
X303488Y985262D01*
X303438Y985087D01*
X303436Y985069D01*
X303432Y985052D01*
X303405Y984721D01*
X303405Y955338D01*
X302512Y954445D01*
X270088Y954445D01*
X269195Y955338D01*
X269195Y984713D01*
X269193Y984731D01*
X269195Y984749D01*
X269174Y984932D01*
X269155Y985114D01*
X269150Y985131D01*
X269148Y985149D01*
X269091Y985323D01*
X269037Y985499D01*
X269029Y985515D01*
X269023Y985532D01*
X268933Y985691D01*
X268845Y985853D01*
X268834Y985867D01*
X268825Y985883D01*
X268705Y986022D01*
X268588Y986162D01*
X268574Y986173D01*
X268562Y986187D01*
X268416Y986300D01*
X268274Y986415D01*
X268258Y986423D01*
X268244Y986434D01*
X268079Y986516D01*
X267917Y986600D01*
X267899Y986605D01*
X267883Y986613D01*
X267706Y986661D01*
X267530Y986711D01*
X267512Y986713D01*
X267494Y986718D01*
X267164Y986745D01*
X215436Y986734D01*
X215418Y986732D01*
X215400Y986734D01*
X215218Y986712D01*
X215035Y986694D01*
X215018Y986689D01*
X215001Y986687D01*
X214826Y986630D01*
X214650Y986576D01*
X214635Y986567D01*
X214618Y986562D01*
X214458Y986472D01*
X214296Y986384D01*
X214283Y986373D01*
X214267Y986364D01*
X214128Y986244D01*
X213987Y986126D01*
X213976Y986112D01*
X213962Y986101D01*
X213850Y985956D01*
X213735Y985812D01*
X213726Y985797D01*
X213716Y985783D01*
X213634Y985618D01*
X213549Y985455D01*
X213544Y985438D01*
X213536Y985422D01*
X213488Y985243D01*
X213438Y985068D01*
X213436Y985050D01*
X213432Y985033D01*
X213405Y984703D01*
X213405Y955338D01*
X212512Y954445D01*
X180088Y954445D01*
X179195Y955338D01*
X179195Y984695D01*
X179193Y984713D01*
X179195Y984731D01*
X179174Y984913D01*
X179155Y985095D01*
X179150Y985113D01*
X179148Y985131D01*
X179091Y985305D01*
X179037Y985480D01*
X179029Y985496D01*
X179023Y985513D01*
X178933Y985673D01*
X178845Y985834D01*
X178834Y985848D01*
X178825Y985864D01*
X178705Y986003D01*
X178588Y986144D01*
X178574Y986155D01*
X178562Y986169D01*
X178416Y986281D01*
X178274Y986396D01*
X178258Y986404D01*
X178244Y986415D01*
X178079Y986497D01*
X177917Y986581D01*
X177899Y986586D01*
X177883Y986594D01*
X177706Y986642D01*
X177530Y986693D01*
X177512Y986694D01*
X177494Y986699D01*
X177164Y986726D01*
X12192Y986692D01*
X12174Y986690D01*
X12156Y986691D01*
X11974Y986670D01*
X11791Y986652D01*
X11774Y986647D01*
X11757Y986645D01*
X11582Y986588D01*
X11406Y986534D01*
X11391Y986525D01*
X11374Y986520D01*
X11214Y986429D01*
X11052Y986342D01*
X11039Y986330D01*
X11023Y986322D01*
X10884Y986202D01*
X10743Y986084D01*
X10732Y986070D01*
X10718Y986059D01*
X10606Y985914D01*
X10491Y985770D01*
X10482Y985754D01*
X10472Y985741D01*
X10390Y985576D01*
X10305Y985413D01*
X10300Y985396D01*
X10292Y985380D01*
X10244Y985202D01*
X10194Y985026D01*
X10192Y985008D01*
X10188Y984991D01*
X10161Y984661D01*
X10161Y981332D01*
X10162Y981319D01*
X10161Y981305D01*
X10182Y981119D01*
X10201Y980932D01*
X10205Y980919D01*
X10206Y980905D01*
X10264Y980725D01*
X10319Y980547D01*
X10325Y980535D01*
X10329Y980522D01*
X10421Y980357D01*
X10511Y980193D01*
X10519Y980182D01*
X10526Y980171D01*
X10648Y980027D01*
X10768Y979883D01*
X10779Y979875D01*
X10787Y979865D01*
X10936Y979748D01*
X11082Y979631D01*
X11094Y979625D01*
X11104Y979617D01*
X11274Y979532D01*
X11439Y979445D01*
X11452Y979442D01*
X11464Y979436D01*
X11647Y979386D01*
X11826Y979334D01*
X11840Y979333D01*
X11853Y979329D01*
X12041Y979317D01*
X12228Y979301D01*
X12241Y979303D01*
X12254Y979302D01*
X12442Y979326D01*
X12627Y979348D01*
X12640Y979352D01*
X12653Y979354D01*
X12969Y979456D01*
X15961Y980695D01*
X34839Y980695D01*
X38200Y979303D01*
X40773Y976730D01*
X40926Y976361D01*
X40936Y976341D01*
X40943Y976320D01*
X41031Y976164D01*
X41116Y976006D01*
X41130Y975989D01*
X41141Y975969D01*
X41258Y975833D01*
X41372Y975695D01*
X41389Y975681D01*
X41404Y975664D01*
X41545Y975555D01*
X41685Y975442D01*
X41705Y975431D01*
X41722Y975418D01*
X41882Y975338D01*
X42041Y975255D01*
X42063Y975248D01*
X42083Y975238D01*
X42256Y975192D01*
X42428Y975142D01*
X42450Y975140D01*
X42471Y975134D01*
X42802Y975107D01*
X64973Y975107D01*
X165978Y874102D01*
X165999Y874085D01*
X166017Y874064D01*
X166154Y873957D01*
X166290Y873847D01*
X166313Y873834D01*
X166335Y873818D01*
X166492Y873740D01*
X166646Y873658D01*
X166671Y873650D01*
X166695Y873638D01*
X166865Y873593D01*
X167031Y873543D01*
X167058Y873541D01*
X167084Y873534D01*
X167415Y873507D01*
X232520Y873507D01*
X232546Y873509D01*
X232573Y873507D01*
X232747Y873529D01*
X232920Y873547D01*
X232946Y873554D01*
X232972Y873558D01*
X233138Y873613D01*
X233305Y873665D01*
X233329Y873678D01*
X233354Y873686D01*
X233506Y873773D01*
X233659Y873857D01*
X233680Y873874D01*
X233703Y873887D01*
X233956Y874102D01*
X237933Y878079D01*
X244667Y878079D01*
X249429Y873317D01*
X249429Y866583D01*
X244667Y861821D01*
X237933Y861821D01*
X233956Y865798D01*
X233935Y865815D01*
X233918Y865836D01*
X233780Y865943D01*
X233644Y866053D01*
X233621Y866066D01*
X233600Y866082D01*
X233443Y866160D01*
X233289Y866242D01*
X233263Y866250D01*
X233239Y866262D01*
X233070Y866307D01*
X232903Y866357D01*
X232876Y866359D01*
X232850Y866366D01*
X232520Y866393D01*
X163627Y866393D01*
X62622Y967398D01*
X62601Y967415D01*
X62583Y967436D01*
X62446Y967543D01*
X62310Y967653D01*
X62287Y967666D01*
X62265Y967682D01*
X62108Y967760D01*
X61954Y967842D01*
X61929Y967850D01*
X61905Y967862D01*
X61735Y967907D01*
X61569Y967957D01*
X61542Y967959D01*
X61516Y967966D01*
X61185Y967993D01*
X42802Y967993D01*
X42780Y967991D01*
X42758Y967993D01*
X42580Y967971D01*
X42402Y967953D01*
X42380Y967947D01*
X42358Y967944D01*
X42188Y967888D01*
X42017Y967835D01*
X41997Y967825D01*
X41976Y967818D01*
X41820Y967729D01*
X41663Y967643D01*
X41645Y967629D01*
X41626Y967618D01*
X41491Y967500D01*
X41353Y967386D01*
X41339Y967368D01*
X41323Y967354D01*
X41213Y967211D01*
X41101Y967072D01*
X41091Y967052D01*
X41077Y967034D01*
X40926Y966739D01*
X40773Y966370D01*
X38200Y963797D01*
X34839Y962405D01*
X15961Y962405D01*
X12969Y963644D01*
X12956Y963648D01*
X12945Y963655D01*
X12765Y963706D01*
X12584Y963761D01*
X12571Y963762D01*
X12558Y963766D01*
X12370Y963781D01*
X12183Y963799D01*
X12170Y963798D01*
X12156Y963799D01*
X11970Y963777D01*
X11783Y963757D01*
X11770Y963753D01*
X11757Y963752D01*
X11578Y963694D01*
X11398Y963638D01*
X11387Y963631D01*
X11374Y963627D01*
X11210Y963535D01*
X11045Y963444D01*
X11035Y963436D01*
X11023Y963429D01*
X10881Y963307D01*
X10737Y963185D01*
X10729Y963175D01*
X10718Y963166D01*
X10604Y963018D01*
X10486Y962870D01*
X10480Y962858D01*
X10472Y962848D01*
X10388Y962680D01*
X10302Y962512D01*
X10298Y962499D01*
X10292Y962487D01*
X10243Y962305D01*
X10192Y962125D01*
X10191Y962112D01*
X10188Y962099D01*
X10161Y961768D01*
X10161Y955932D01*
X10162Y955919D01*
X10161Y955905D01*
X10182Y955719D01*
X10201Y955532D01*
X10205Y955519D01*
X10206Y955505D01*
X10264Y955326D01*
X10319Y955147D01*
X10325Y955135D01*
X10329Y955122D01*
X10421Y954957D01*
X10511Y954793D01*
X10519Y954782D01*
X10526Y954771D01*
X10648Y954627D01*
X10768Y954483D01*
X10779Y954475D01*
X10787Y954465D01*
X10936Y954348D01*
X11082Y954231D01*
X11094Y954225D01*
X11104Y954217D01*
X11274Y954132D01*
X11439Y954045D01*
X11452Y954042D01*
X11464Y954036D01*
X11647Y953986D01*
X11826Y953934D01*
X11840Y953933D01*
X11853Y953929D01*
X12041Y953917D01*
X12228Y953901D01*
X12241Y953903D01*
X12254Y953902D01*
X12442Y953926D01*
X12627Y953948D01*
X12640Y953952D01*
X12653Y953954D01*
X12969Y954056D01*
X15961Y955295D01*
X34839Y955295D01*
X38200Y953903D01*
X40773Y951330D01*
X40926Y950961D01*
X40936Y950941D01*
X40943Y950920D01*
X41031Y950764D01*
X41116Y950606D01*
X41130Y950589D01*
X41141Y950569D01*
X41258Y950433D01*
X41372Y950295D01*
X41389Y950281D01*
X41404Y950264D01*
X41545Y950155D01*
X41685Y950042D01*
X41705Y950031D01*
X41722Y950018D01*
X41882Y949938D01*
X42041Y949855D01*
X42063Y949848D01*
X42083Y949838D01*
X42256Y949792D01*
X42428Y949742D01*
X42450Y949740D01*
X42471Y949734D01*
X42802Y949707D01*
X64973Y949707D01*
X202328Y812352D01*
X202349Y812335D01*
X202367Y812314D01*
X202504Y812207D01*
X202640Y812097D01*
X202663Y812084D01*
X202685Y812068D01*
X202842Y811990D01*
X202996Y811908D01*
X203021Y811900D01*
X203045Y811888D01*
X203215Y811843D01*
X203381Y811793D01*
X203408Y811791D01*
X203434Y811784D01*
X203765Y811757D01*
X204256Y811757D01*
X206206Y810949D01*
X207699Y809456D01*
X208507Y807506D01*
X208507Y805394D01*
X207699Y803444D01*
X206206Y801951D01*
X204256Y801143D01*
X202144Y801143D01*
X200194Y801951D01*
X198701Y803444D01*
X197893Y805394D01*
X197893Y805885D01*
X197891Y805912D01*
X197893Y805939D01*
X197871Y806113D01*
X197853Y806286D01*
X197846Y806311D01*
X197842Y806338D01*
X197787Y806504D01*
X197735Y806671D01*
X197722Y806694D01*
X197714Y806720D01*
X197627Y806871D01*
X197543Y807025D01*
X197526Y807045D01*
X197513Y807069D01*
X197298Y807322D01*
X62622Y941998D01*
X62601Y942015D01*
X62583Y942036D01*
X62446Y942143D01*
X62310Y942253D01*
X62287Y942266D01*
X62265Y942282D01*
X62108Y942360D01*
X61954Y942442D01*
X61929Y942450D01*
X61905Y942462D01*
X61735Y942507D01*
X61569Y942557D01*
X61542Y942559D01*
X61516Y942566D01*
X61185Y942593D01*
X42802Y942593D01*
X42780Y942591D01*
X42758Y942593D01*
X42580Y942571D01*
X42402Y942553D01*
X42380Y942547D01*
X42358Y942544D01*
X42188Y942488D01*
X42017Y942435D01*
X41997Y942425D01*
X41976Y942418D01*
X41820Y942329D01*
X41663Y942243D01*
X41645Y942229D01*
X41626Y942218D01*
X41491Y942100D01*
X41353Y941986D01*
X41339Y941968D01*
X41323Y941954D01*
X41213Y941811D01*
X41101Y941672D01*
X41091Y941652D01*
X41077Y941634D01*
X40926Y941339D01*
X40773Y940970D01*
X38200Y938397D01*
X34839Y937005D01*
X15961Y937005D01*
X12969Y938244D01*
X12956Y938248D01*
X12945Y938255D01*
X12765Y938306D01*
X12584Y938361D01*
X12571Y938362D01*
X12558Y938366D01*
X12370Y938381D01*
X12183Y938399D01*
X12170Y938398D01*
X12156Y938399D01*
X11970Y938377D01*
X11783Y938357D01*
X11770Y938353D01*
X11757Y938352D01*
X11578Y938294D01*
X11398Y938238D01*
X11387Y938231D01*
X11374Y938227D01*
X11210Y938135D01*
X11045Y938044D01*
X11035Y938036D01*
X11023Y938029D01*
X10881Y937907D01*
X10737Y937785D01*
X10729Y937775D01*
X10718Y937766D01*
X10604Y937618D01*
X10486Y937470D01*
X10480Y937458D01*
X10472Y937448D01*
X10388Y937280D01*
X10302Y937112D01*
X10298Y937099D01*
X10292Y937087D01*
X10243Y936905D01*
X10192Y936725D01*
X10191Y936712D01*
X10188Y936699D01*
X10161Y936368D01*
X10161Y930532D01*
X10162Y930519D01*
X10161Y930505D01*
X10182Y930319D01*
X10201Y930132D01*
X10205Y930119D01*
X10206Y930105D01*
X10264Y929926D01*
X10319Y929747D01*
X10325Y929735D01*
X10329Y929722D01*
X10421Y929557D01*
X10511Y929393D01*
X10519Y929382D01*
X10526Y929371D01*
X10648Y929227D01*
X10768Y929083D01*
X10779Y929075D01*
X10787Y929065D01*
X10936Y928948D01*
X11082Y928831D01*
X11094Y928825D01*
X11104Y928817D01*
X11274Y928732D01*
X11439Y928645D01*
X11452Y928642D01*
X11464Y928636D01*
X11647Y928586D01*
X11826Y928534D01*
X11840Y928533D01*
X11853Y928529D01*
X12041Y928517D01*
X12228Y928501D01*
X12241Y928503D01*
X12254Y928502D01*
X12442Y928526D01*
X12627Y928548D01*
X12640Y928552D01*
X12653Y928554D01*
X12969Y928656D01*
X15961Y929895D01*
X34839Y929895D01*
X38200Y928503D01*
X40773Y925930D01*
X40926Y925561D01*
X40936Y925541D01*
X40943Y925520D01*
X41031Y925364D01*
X41116Y925206D01*
X41130Y925189D01*
X41141Y925169D01*
X41258Y925033D01*
X41372Y924895D01*
X41389Y924881D01*
X41404Y924864D01*
X41545Y924755D01*
X41685Y924642D01*
X41705Y924631D01*
X41722Y924618D01*
X41882Y924538D01*
X42041Y924455D01*
X42063Y924448D01*
X42083Y924438D01*
X42256Y924392D01*
X42428Y924342D01*
X42450Y924340D01*
X42471Y924334D01*
X42802Y924307D01*
X64973Y924307D01*
X124207Y865073D01*
X124207Y557240D01*
X124209Y557213D01*
X124207Y557186D01*
X124229Y557012D01*
X124247Y556839D01*
X124254Y556813D01*
X124258Y556787D01*
X124314Y556621D01*
X124365Y556454D01*
X124378Y556430D01*
X124386Y556405D01*
X124473Y556253D01*
X124557Y556100D01*
X124574Y556079D01*
X124587Y556056D01*
X124802Y555803D01*
X125149Y555456D01*
X125957Y553506D01*
X125957Y551394D01*
X125149Y549444D01*
X123656Y547951D01*
X121706Y547143D01*
X119594Y547143D01*
X117644Y547951D01*
X116151Y549444D01*
X115415Y551222D01*
X115413Y551226D01*
X115411Y551230D01*
X115318Y551403D01*
X115224Y551577D01*
X115222Y551581D01*
X115219Y551584D01*
X115095Y551733D01*
X114968Y551887D01*
X114965Y551890D01*
X114962Y551894D01*
X114809Y552017D01*
X114655Y552141D01*
X114651Y552143D01*
X114648Y552146D01*
X114475Y552236D01*
X114299Y552328D01*
X114295Y552329D01*
X114291Y552332D01*
X114102Y552386D01*
X113912Y552441D01*
X113908Y552442D01*
X113904Y552443D01*
X113706Y552459D01*
X113511Y552476D01*
X113507Y552475D01*
X113502Y552476D01*
X113308Y552453D01*
X113111Y552431D01*
X113107Y552429D01*
X113103Y552429D01*
X112917Y552368D01*
X112728Y552308D01*
X112724Y552305D01*
X112720Y552304D01*
X112547Y552207D01*
X112376Y552111D01*
X112373Y552108D01*
X112369Y552106D01*
X112220Y551978D01*
X112071Y551849D01*
X112068Y551846D01*
X112064Y551843D01*
X111944Y551688D01*
X111822Y551532D01*
X111820Y551528D01*
X111818Y551525D01*
X111729Y551347D01*
X111642Y551173D01*
X111640Y551168D01*
X111638Y551164D01*
X111586Y550971D01*
X111535Y550784D01*
X111535Y550780D01*
X111534Y550776D01*
X111507Y550445D01*
X111507Y519140D01*
X111509Y519113D01*
X111507Y519086D01*
X111529Y518912D01*
X111547Y518739D01*
X111554Y518713D01*
X111558Y518687D01*
X111613Y518521D01*
X111665Y518354D01*
X111678Y518330D01*
X111686Y518305D01*
X111773Y518153D01*
X111857Y518000D01*
X111874Y517979D01*
X111887Y517956D01*
X112102Y517703D01*
X112449Y517356D01*
X113257Y515406D01*
X113257Y513294D01*
X112449Y511344D01*
X110956Y509851D01*
X109006Y509043D01*
X106894Y509043D01*
X104944Y509851D01*
X103451Y511344D01*
X102715Y513122D01*
X102712Y513126D01*
X102711Y513130D01*
X102620Y513300D01*
X102524Y513477D01*
X102522Y513481D01*
X102519Y513484D01*
X102394Y513635D01*
X102268Y513787D01*
X102265Y513790D01*
X102262Y513794D01*
X102109Y513917D01*
X101955Y514041D01*
X101951Y514043D01*
X101948Y514046D01*
X101775Y514136D01*
X101599Y514228D01*
X101595Y514230D01*
X101591Y514232D01*
X101403Y514286D01*
X101212Y514341D01*
X101208Y514342D01*
X101204Y514343D01*
X101006Y514359D01*
X100811Y514376D01*
X100807Y514375D01*
X100802Y514376D01*
X100608Y514353D01*
X100411Y514331D01*
X100407Y514329D01*
X100403Y514329D01*
X100217Y514268D01*
X100028Y514208D01*
X100024Y514205D01*
X100020Y514204D01*
X99848Y514107D01*
X99676Y514011D01*
X99673Y514008D01*
X99669Y514006D01*
X99521Y513878D01*
X99371Y513749D01*
X99368Y513746D01*
X99364Y513743D01*
X99244Y513588D01*
X99122Y513432D01*
X99120Y513428D01*
X99118Y513425D01*
X99030Y513249D01*
X98942Y513073D01*
X98940Y513068D01*
X98938Y513064D01*
X98887Y512873D01*
X98835Y512684D01*
X98835Y512680D01*
X98834Y512676D01*
X98807Y512345D01*
X98807Y491265D01*
X98809Y491238D01*
X98807Y491211D01*
X98829Y491037D01*
X98847Y490864D01*
X98854Y490839D01*
X98858Y490812D01*
X98914Y490646D01*
X98965Y490479D01*
X98978Y490456D01*
X98986Y490430D01*
X99073Y490279D01*
X99157Y490125D01*
X99174Y490105D01*
X99187Y490081D01*
X99402Y489828D01*
X121528Y467702D01*
X121549Y467685D01*
X121567Y467664D01*
X121704Y467557D01*
X121840Y467447D01*
X121863Y467434D01*
X121885Y467418D01*
X122042Y467340D01*
X122196Y467258D01*
X122221Y467250D01*
X122245Y467238D01*
X122415Y467193D01*
X122581Y467143D01*
X122608Y467141D01*
X122634Y467134D01*
X122965Y467107D01*
X207235Y467107D01*
X207262Y467109D01*
X207289Y467107D01*
X207463Y467129D01*
X207636Y467147D01*
X207661Y467154D01*
X207688Y467158D01*
X207854Y467213D01*
X208021Y467265D01*
X208044Y467278D01*
X208070Y467286D01*
X208221Y467373D01*
X208375Y467457D01*
X208395Y467474D01*
X208419Y467487D01*
X208672Y467702D01*
X229048Y488078D01*
X229065Y488099D01*
X229086Y488116D01*
X229193Y488254D01*
X229303Y488390D01*
X229316Y488413D01*
X229332Y488435D01*
X229410Y488592D01*
X229492Y488746D01*
X229500Y488771D01*
X229512Y488795D01*
X229557Y488965D01*
X229607Y489131D01*
X229609Y489158D01*
X229616Y489184D01*
X229643Y489515D01*
X229643Y490006D01*
X230451Y491956D01*
X231944Y493449D01*
X232686Y493756D01*
X233894Y494257D01*
X236006Y494257D01*
X237956Y493449D01*
X239449Y491956D01*
X240257Y490006D01*
X240257Y487894D01*
X239449Y485944D01*
X237956Y484451D01*
X236006Y483643D01*
X235515Y483643D01*
X235488Y483641D01*
X235461Y483643D01*
X235287Y483621D01*
X235114Y483603D01*
X235088Y483596D01*
X235062Y483592D01*
X234896Y483536D01*
X234729Y483485D01*
X234705Y483472D01*
X234680Y483464D01*
X234529Y483377D01*
X234375Y483293D01*
X234355Y483276D01*
X234331Y483263D01*
X234078Y483048D01*
X213702Y462672D01*
X211023Y459993D01*
X119177Y459993D01*
X91693Y487477D01*
X91693Y835885D01*
X91691Y835912D01*
X91693Y835939D01*
X91671Y836113D01*
X91653Y836286D01*
X91646Y836311D01*
X91642Y836338D01*
X91587Y836504D01*
X91535Y836671D01*
X91522Y836694D01*
X91514Y836720D01*
X91427Y836871D01*
X91343Y837025D01*
X91326Y837045D01*
X91313Y837069D01*
X91098Y837322D01*
X62622Y865798D01*
X62601Y865815D01*
X62583Y865836D01*
X62446Y865943D01*
X62310Y866053D01*
X62287Y866066D01*
X62265Y866082D01*
X62108Y866160D01*
X61954Y866242D01*
X61929Y866250D01*
X61905Y866262D01*
X61735Y866307D01*
X61569Y866357D01*
X61542Y866359D01*
X61516Y866366D01*
X61185Y866393D01*
X42802Y866393D01*
X42780Y866391D01*
X42758Y866393D01*
X42580Y866371D01*
X42402Y866353D01*
X42380Y866347D01*
X42358Y866344D01*
X42188Y866288D01*
X42017Y866235D01*
X41997Y866225D01*
X41976Y866218D01*
X41820Y866129D01*
X41663Y866043D01*
X41645Y866029D01*
X41626Y866018D01*
X41491Y865900D01*
X41353Y865786D01*
X41339Y865768D01*
X41323Y865754D01*
X41213Y865611D01*
X41101Y865472D01*
X41091Y865452D01*
X41077Y865434D01*
X40926Y865139D01*
X40773Y864770D01*
X38200Y862197D01*
X34839Y860805D01*
X15961Y860805D01*
X12969Y862044D01*
X12956Y862048D01*
X12945Y862055D01*
X12765Y862106D01*
X12584Y862161D01*
X12571Y862162D01*
X12558Y862166D01*
X12370Y862181D01*
X12183Y862199D01*
X12170Y862198D01*
X12156Y862199D01*
X11970Y862177D01*
X11783Y862157D01*
X11770Y862153D01*
X11757Y862152D01*
X11578Y862094D01*
X11398Y862038D01*
X11387Y862031D01*
X11374Y862027D01*
X11210Y861935D01*
X11045Y861844D01*
X11035Y861836D01*
X11023Y861829D01*
X10881Y861707D01*
X10737Y861585D01*
X10729Y861575D01*
X10718Y861566D01*
X10604Y861418D01*
X10486Y861270D01*
X10480Y861258D01*
X10472Y861248D01*
X10388Y861080D01*
X10302Y860912D01*
X10298Y860899D01*
X10292Y860887D01*
X10243Y860705D01*
X10192Y860525D01*
X10191Y860512D01*
X10188Y860499D01*
X10161Y860168D01*
X10161Y854332D01*
X10162Y854319D01*
X10161Y854305D01*
X10182Y854119D01*
X10201Y853932D01*
X10205Y853919D01*
X10206Y853905D01*
X10264Y853726D01*
X10319Y853547D01*
X10325Y853535D01*
X10329Y853522D01*
X10421Y853357D01*
X10511Y853193D01*
X10519Y853182D01*
X10526Y853171D01*
X10648Y853027D01*
X10768Y852883D01*
X10779Y852875D01*
X10787Y852865D01*
X10936Y852748D01*
X11082Y852631D01*
X11094Y852625D01*
X11104Y852617D01*
X11274Y852532D01*
X11439Y852445D01*
X11452Y852442D01*
X11464Y852436D01*
X11647Y852386D01*
X11826Y852334D01*
X11840Y852333D01*
X11853Y852329D01*
X12041Y852317D01*
X12228Y852301D01*
X12241Y852303D01*
X12254Y852302D01*
X12442Y852326D01*
X12627Y852348D01*
X12640Y852352D01*
X12653Y852354D01*
X12969Y852456D01*
X15961Y853695D01*
X34839Y853695D01*
X38200Y852303D01*
X40773Y849730D01*
X42165Y846369D01*
X42165Y842731D01*
X40773Y839370D01*
X38200Y836797D01*
X34839Y835405D01*
X15961Y835405D01*
X12969Y836644D01*
X12956Y836648D01*
X12945Y836655D01*
X12765Y836706D01*
X12584Y836761D01*
X12571Y836762D01*
X12558Y836766D01*
X12370Y836781D01*
X12183Y836799D01*
X12170Y836798D01*
X12156Y836799D01*
X11970Y836777D01*
X11783Y836757D01*
X11770Y836753D01*
X11757Y836752D01*
X11578Y836694D01*
X11398Y836638D01*
X11387Y836631D01*
X11374Y836627D01*
X11210Y836535D01*
X11045Y836444D01*
X11035Y836436D01*
X11023Y836429D01*
X10881Y836307D01*
X10737Y836185D01*
X10729Y836175D01*
X10718Y836166D01*
X10604Y836018D01*
X10486Y835870D01*
X10480Y835858D01*
X10472Y835848D01*
X10388Y835680D01*
X10302Y835512D01*
X10298Y835499D01*
X10292Y835487D01*
X10243Y835305D01*
X10192Y835125D01*
X10191Y835112D01*
X10188Y835099D01*
X10161Y834768D01*
X10161Y12192D01*
X10163Y12174D01*
X10161Y12156D01*
X10182Y11974D01*
X10201Y11791D01*
X10206Y11774D01*
X10208Y11757D01*
X10265Y11582D01*
X10319Y11406D01*
X10327Y11391D01*
X10333Y11374D01*
X10423Y11214D01*
X10511Y11052D01*
X10522Y11039D01*
X10531Y11023D01*
X10651Y10884D01*
X10768Y10743D01*
X10782Y10732D01*
X10794Y10718D01*
X10939Y10606D01*
X11082Y10491D01*
X11098Y10483D01*
X11112Y10472D01*
X11277Y10390D01*
X11439Y10305D01*
X11456Y10300D01*
X11472Y10292D01*
X11651Y10245D01*
X11826Y10194D01*
X11844Y10192D01*
X11861Y10188D01*
X12192Y10161D01*
X45535Y10161D01*
X45661Y10173D01*
G37*
%LPC*%
G36*
X436955Y303585D02*
X436955Y303585D01*
X434175Y304737D01*
X432047Y306865D01*
X430895Y309645D01*
X430895Y312655D01*
X432047Y315435D01*
X434175Y317563D01*
X436955Y318715D01*
X437896Y318715D01*
X437914Y318717D01*
X437932Y318715D01*
X438114Y318736D01*
X438297Y318755D01*
X438314Y318760D01*
X438331Y318762D01*
X438506Y318819D01*
X438682Y318873D01*
X438697Y318881D01*
X438714Y318887D01*
X438874Y318977D01*
X439036Y319065D01*
X439049Y319076D01*
X439065Y319085D01*
X439204Y319205D01*
X439345Y319322D01*
X439356Y319336D01*
X439370Y319348D01*
X439482Y319493D01*
X439597Y319636D01*
X439605Y319652D01*
X439616Y319666D01*
X439698Y319831D01*
X439783Y319993D01*
X439788Y320010D01*
X439796Y320026D01*
X439843Y320205D01*
X439894Y320380D01*
X439896Y320398D01*
X439900Y320415D01*
X439927Y320746D01*
X439927Y327465D01*
X439925Y327491D01*
X439927Y327518D01*
X439905Y327692D01*
X439887Y327865D01*
X439880Y327891D01*
X439876Y327917D01*
X439821Y328083D01*
X439769Y328250D01*
X439756Y328274D01*
X439748Y328299D01*
X439661Y328451D01*
X439577Y328604D01*
X439560Y328625D01*
X439547Y328648D01*
X439332Y328901D01*
X434057Y334176D01*
X434036Y334193D01*
X434019Y334214D01*
X433881Y334321D01*
X433745Y334431D01*
X433722Y334444D01*
X433701Y334460D01*
X433544Y334538D01*
X433390Y334620D01*
X433364Y334628D01*
X433340Y334640D01*
X433171Y334685D01*
X433004Y334735D01*
X432977Y334737D01*
X432951Y334744D01*
X432621Y334771D01*
X428433Y334771D01*
X423671Y339533D01*
X423671Y346267D01*
X426632Y349228D01*
X426649Y349249D01*
X426670Y349266D01*
X426777Y349404D01*
X426887Y349540D01*
X426900Y349563D01*
X426916Y349584D01*
X426994Y349741D01*
X427076Y349895D01*
X427084Y349921D01*
X427096Y349945D01*
X427141Y350114D01*
X427191Y350281D01*
X427193Y350308D01*
X427200Y350334D01*
X427227Y350664D01*
X427227Y352865D01*
X427225Y352891D01*
X427227Y352918D01*
X427205Y353092D01*
X427187Y353265D01*
X427180Y353291D01*
X427176Y353317D01*
X427121Y353483D01*
X427069Y353650D01*
X427056Y353674D01*
X427048Y353699D01*
X426961Y353851D01*
X426877Y354004D01*
X426860Y354025D01*
X426847Y354048D01*
X426632Y354301D01*
X408873Y372060D01*
X408177Y373740D01*
X408177Y555568D01*
X408174Y555599D01*
X408176Y555631D01*
X408154Y555800D01*
X408137Y555969D01*
X408128Y555999D01*
X408124Y556030D01*
X408023Y556346D01*
X407443Y557744D01*
X407443Y559856D01*
X408251Y561806D01*
X409744Y563299D01*
X411694Y564107D01*
X413806Y564107D01*
X415756Y563299D01*
X417249Y561806D01*
X418057Y559856D01*
X418057Y557744D01*
X417477Y556346D01*
X417468Y556316D01*
X417454Y556288D01*
X417410Y556123D01*
X417361Y555960D01*
X417358Y555929D01*
X417350Y555899D01*
X417323Y555568D01*
X417323Y377385D01*
X417325Y377359D01*
X417323Y377332D01*
X417345Y377158D01*
X417363Y376985D01*
X417370Y376959D01*
X417374Y376933D01*
X417429Y376767D01*
X417481Y376600D01*
X417494Y376576D01*
X417502Y376551D01*
X417589Y376399D01*
X417673Y376246D01*
X417690Y376225D01*
X417703Y376202D01*
X417918Y375949D01*
X435677Y358190D01*
X436373Y356510D01*
X436373Y350664D01*
X436375Y350638D01*
X436373Y350611D01*
X436395Y350437D01*
X436413Y350264D01*
X436420Y350238D01*
X436424Y350212D01*
X436480Y350046D01*
X436531Y349879D01*
X436544Y349855D01*
X436552Y349830D01*
X436639Y349678D01*
X436723Y349525D01*
X436740Y349504D01*
X436753Y349481D01*
X436968Y349228D01*
X439929Y346267D01*
X439929Y342079D01*
X439931Y342053D01*
X439929Y342026D01*
X439951Y341852D01*
X439969Y341679D01*
X439976Y341653D01*
X439980Y341627D01*
X440035Y341461D01*
X440087Y341294D01*
X440100Y341270D01*
X440108Y341245D01*
X440195Y341093D01*
X440279Y340940D01*
X440296Y340919D01*
X440309Y340896D01*
X440524Y340643D01*
X448377Y332790D01*
X449073Y331110D01*
X449073Y320746D01*
X449075Y320728D01*
X449073Y320710D01*
X449094Y320528D01*
X449113Y320345D01*
X449118Y320328D01*
X449120Y320311D01*
X449177Y320136D01*
X449231Y319960D01*
X449239Y319945D01*
X449245Y319928D01*
X449335Y319768D01*
X449423Y319606D01*
X449434Y319593D01*
X449443Y319577D01*
X449563Y319438D01*
X449680Y319297D01*
X449694Y319286D01*
X449706Y319272D01*
X449851Y319160D01*
X449994Y319045D01*
X450010Y319037D01*
X450024Y319026D01*
X450189Y318944D01*
X450351Y318859D01*
X450368Y318854D01*
X450384Y318846D01*
X450563Y318799D01*
X450738Y318748D01*
X450756Y318746D01*
X450773Y318742D01*
X451104Y318715D01*
X452045Y318715D01*
X454825Y317563D01*
X456953Y315435D01*
X458105Y312655D01*
X458105Y309645D01*
X456953Y306865D01*
X454825Y304737D01*
X452045Y303585D01*
X436955Y303585D01*
G37*
%LPD*%
%LPC*%
G36*
X410806Y129125D02*
X410806Y129125D01*
X407213Y130613D01*
X404463Y133363D01*
X403831Y134889D01*
X403821Y134909D01*
X403814Y134930D01*
X403726Y135086D01*
X403641Y135244D01*
X403627Y135261D01*
X403616Y135281D01*
X403499Y135416D01*
X403385Y135555D01*
X403367Y135569D01*
X403353Y135586D01*
X403211Y135695D01*
X403072Y135808D01*
X403052Y135819D01*
X403035Y135832D01*
X402874Y135912D01*
X402715Y135995D01*
X402694Y136002D01*
X402674Y136012D01*
X402500Y136058D01*
X402329Y136108D01*
X402307Y136110D01*
X402285Y136116D01*
X401955Y136143D01*
X385877Y136143D01*
X383199Y138821D01*
X383198Y138822D01*
X358393Y163627D01*
X358393Y194535D01*
X358391Y194562D01*
X358393Y194589D01*
X358371Y194762D01*
X358353Y194936D01*
X358346Y194961D01*
X358342Y194988D01*
X358287Y195154D01*
X358235Y195321D01*
X358222Y195344D01*
X358214Y195370D01*
X358127Y195521D01*
X358043Y195675D01*
X358026Y195695D01*
X358013Y195719D01*
X357798Y195972D01*
X320293Y233477D01*
X320293Y253094D01*
X320292Y253102D01*
X320293Y253111D01*
X320272Y253303D01*
X320253Y253494D01*
X320251Y253503D01*
X320250Y253512D01*
X320192Y253694D01*
X320135Y253879D01*
X320131Y253887D01*
X320128Y253896D01*
X320035Y254064D01*
X319943Y254233D01*
X319938Y254240D01*
X319933Y254248D01*
X319809Y254395D01*
X319686Y254542D01*
X319679Y254548D01*
X319673Y254555D01*
X319522Y254674D01*
X319372Y254795D01*
X319364Y254799D01*
X319357Y254804D01*
X319184Y254892D01*
X319015Y254980D01*
X319006Y254983D01*
X318998Y254987D01*
X318812Y255039D01*
X318628Y255092D01*
X318619Y255092D01*
X318610Y255095D01*
X318417Y255109D01*
X318226Y255125D01*
X318218Y255124D01*
X318209Y255124D01*
X318016Y255100D01*
X317827Y255078D01*
X317818Y255075D01*
X317809Y255074D01*
X317626Y255012D01*
X317444Y254953D01*
X317436Y254948D01*
X317428Y254946D01*
X317262Y254850D01*
X317093Y254755D01*
X317086Y254749D01*
X317079Y254745D01*
X316826Y254530D01*
X314517Y252221D01*
X307783Y252221D01*
X303021Y256983D01*
X303021Y263717D01*
X307783Y268479D01*
X314517Y268479D01*
X316826Y266170D01*
X316833Y266164D01*
X316838Y266158D01*
X316988Y266037D01*
X317137Y265915D01*
X317145Y265911D01*
X317152Y265905D01*
X317322Y265817D01*
X317493Y265726D01*
X317502Y265724D01*
X317509Y265720D01*
X317694Y265667D01*
X317879Y265612D01*
X317888Y265611D01*
X317896Y265608D01*
X318087Y265593D01*
X318280Y265575D01*
X318289Y265576D01*
X318298Y265575D01*
X318487Y265598D01*
X318680Y265619D01*
X318689Y265621D01*
X318697Y265622D01*
X318879Y265682D01*
X319064Y265740D01*
X319072Y265744D01*
X319080Y265747D01*
X319249Y265842D01*
X319416Y265935D01*
X319423Y265941D01*
X319431Y265945D01*
X319577Y266071D01*
X319723Y266195D01*
X319729Y266202D01*
X319736Y266208D01*
X319853Y266360D01*
X319973Y266511D01*
X319977Y266519D01*
X319982Y266526D01*
X320068Y266698D01*
X320155Y266870D01*
X320158Y266879D01*
X320162Y266887D01*
X320212Y267073D01*
X320263Y267258D01*
X320264Y267267D01*
X320266Y267276D01*
X320293Y267606D01*
X320293Y287223D01*
X322971Y289901D01*
X322972Y289902D01*
X332398Y299328D01*
X332415Y299349D01*
X332436Y299366D01*
X332543Y299504D01*
X332653Y299640D01*
X332666Y299663D01*
X332682Y299685D01*
X332760Y299842D01*
X332842Y299996D01*
X332850Y300021D01*
X332862Y300045D01*
X332907Y300215D01*
X332957Y300381D01*
X332959Y300408D01*
X332966Y300434D01*
X332993Y300765D01*
X332993Y315070D01*
X332991Y315096D01*
X332993Y315123D01*
X332971Y315297D01*
X332953Y315470D01*
X332946Y315496D01*
X332942Y315522D01*
X332886Y315688D01*
X332835Y315855D01*
X332822Y315879D01*
X332814Y315904D01*
X332727Y316056D01*
X332643Y316209D01*
X332626Y316230D01*
X332613Y316253D01*
X332398Y316506D01*
X328421Y320483D01*
X328421Y327217D01*
X333183Y331979D01*
X339917Y331979D01*
X344679Y327217D01*
X344679Y320483D01*
X340702Y316506D01*
X340685Y316485D01*
X340664Y316468D01*
X340557Y316330D01*
X340447Y316194D01*
X340434Y316171D01*
X340418Y316150D01*
X340340Y315993D01*
X340258Y315839D01*
X340250Y315813D01*
X340238Y315789D01*
X340193Y315620D01*
X340143Y315453D01*
X340141Y315426D01*
X340134Y315400D01*
X340107Y315070D01*
X340107Y296977D01*
X337429Y294299D01*
X337428Y294298D01*
X328002Y284872D01*
X327985Y284851D01*
X327964Y284834D01*
X327857Y284696D01*
X327747Y284560D01*
X327734Y284537D01*
X327718Y284515D01*
X327640Y284358D01*
X327558Y284204D01*
X327550Y284179D01*
X327538Y284155D01*
X327493Y283985D01*
X327443Y283819D01*
X327441Y283792D01*
X327434Y283766D01*
X327407Y283435D01*
X327407Y254906D01*
X327408Y254898D01*
X327407Y254889D01*
X327428Y254697D01*
X327447Y254506D01*
X327449Y254497D01*
X327450Y254488D01*
X327508Y254306D01*
X327565Y254121D01*
X327569Y254113D01*
X327572Y254104D01*
X327665Y253936D01*
X327757Y253767D01*
X327762Y253760D01*
X327767Y253752D01*
X327891Y253605D01*
X328014Y253458D01*
X328021Y253452D01*
X328027Y253445D01*
X328178Y253326D01*
X328328Y253205D01*
X328336Y253201D01*
X328343Y253196D01*
X328516Y253108D01*
X328685Y253020D01*
X328694Y253017D01*
X328702Y253013D01*
X328888Y252961D01*
X329072Y252908D01*
X329081Y252908D01*
X329090Y252905D01*
X329283Y252891D01*
X329474Y252875D01*
X329482Y252876D01*
X329491Y252876D01*
X329684Y252900D01*
X329873Y252922D01*
X329882Y252925D01*
X329891Y252926D01*
X330074Y252988D01*
X330256Y253047D01*
X330264Y253052D01*
X330272Y253054D01*
X330438Y253150D01*
X330607Y253245D01*
X330614Y253251D01*
X330621Y253255D01*
X330874Y253470D01*
X333183Y255779D01*
X339917Y255779D01*
X344679Y251017D01*
X344679Y244283D01*
X339917Y239521D01*
X333183Y239521D01*
X330874Y241830D01*
X330867Y241836D01*
X330862Y241842D01*
X330712Y241963D01*
X330563Y242085D01*
X330555Y242089D01*
X330548Y242095D01*
X330378Y242183D01*
X330207Y242274D01*
X330198Y242276D01*
X330191Y242280D01*
X330006Y242333D01*
X329821Y242388D01*
X329812Y242389D01*
X329804Y242392D01*
X329613Y242407D01*
X329420Y242425D01*
X329411Y242424D01*
X329402Y242425D01*
X329213Y242402D01*
X329020Y242381D01*
X329011Y242379D01*
X329003Y242378D01*
X328821Y242318D01*
X328636Y242260D01*
X328628Y242256D01*
X328620Y242253D01*
X328451Y242158D01*
X328284Y242065D01*
X328277Y242059D01*
X328269Y242055D01*
X328123Y241929D01*
X327977Y241805D01*
X327971Y241798D01*
X327964Y241792D01*
X327847Y241640D01*
X327727Y241489D01*
X327723Y241481D01*
X327718Y241474D01*
X327632Y241302D01*
X327545Y241130D01*
X327542Y241121D01*
X327538Y241113D01*
X327488Y240927D01*
X327437Y240742D01*
X327436Y240733D01*
X327434Y240724D01*
X327407Y240394D01*
X327407Y237265D01*
X327409Y237238D01*
X327407Y237211D01*
X327429Y237037D01*
X327447Y236864D01*
X327454Y236839D01*
X327458Y236812D01*
X327513Y236646D01*
X327565Y236479D01*
X327578Y236456D01*
X327586Y236430D01*
X327673Y236279D01*
X327757Y236125D01*
X327774Y236105D01*
X327787Y236081D01*
X328002Y235828D01*
X365507Y198323D01*
X365507Y167415D01*
X365509Y167388D01*
X365507Y167361D01*
X365529Y167187D01*
X365547Y167014D01*
X365554Y166989D01*
X365558Y166962D01*
X365613Y166796D01*
X365665Y166629D01*
X365678Y166606D01*
X365686Y166580D01*
X365773Y166429D01*
X365857Y166275D01*
X365874Y166255D01*
X365887Y166231D01*
X366102Y165978D01*
X388228Y143852D01*
X388249Y143835D01*
X388266Y143814D01*
X388404Y143707D01*
X388540Y143597D01*
X388563Y143584D01*
X388585Y143568D01*
X388742Y143490D01*
X388896Y143408D01*
X388921Y143400D01*
X388945Y143388D01*
X389115Y143343D01*
X389281Y143293D01*
X389308Y143291D01*
X389334Y143284D01*
X389665Y143257D01*
X402617Y143257D01*
X402640Y143259D01*
X402662Y143257D01*
X402840Y143279D01*
X403018Y143297D01*
X403039Y143303D01*
X403062Y143306D01*
X403232Y143362D01*
X403403Y143415D01*
X403423Y143425D01*
X403444Y143432D01*
X403600Y143521D01*
X403757Y143607D01*
X403774Y143621D01*
X403793Y143632D01*
X403929Y143750D01*
X404066Y143864D01*
X404080Y143882D01*
X404097Y143896D01*
X404206Y144038D01*
X404318Y144178D01*
X404329Y144198D01*
X404342Y144216D01*
X404448Y144422D01*
X407213Y147187D01*
X410806Y148675D01*
X414694Y148675D01*
X418287Y147187D01*
X421037Y144437D01*
X422525Y140844D01*
X422525Y136956D01*
X421037Y133363D01*
X418287Y130613D01*
X414694Y129125D01*
X410806Y129125D01*
G37*
%LPD*%
%LPC*%
G36*
X301356Y37339D02*
X301356Y37339D01*
X294702Y39122D01*
X288737Y42566D01*
X283866Y47437D01*
X280422Y53402D01*
X278639Y60056D01*
X278639Y66944D01*
X280422Y73598D01*
X283866Y79563D01*
X288737Y84434D01*
X294702Y87878D01*
X301356Y89661D01*
X308244Y89661D01*
X314898Y87878D01*
X320863Y84434D01*
X325734Y79563D01*
X329178Y73598D01*
X330961Y66944D01*
X330961Y60056D01*
X329178Y53402D01*
X325734Y47437D01*
X320863Y42566D01*
X314898Y39122D01*
X308244Y37339D01*
X301356Y37339D01*
G37*
%LPD*%
%LPC*%
G36*
X428433Y195071D02*
X428433Y195071D01*
X423671Y199833D01*
X423671Y206567D01*
X427648Y210544D01*
X427665Y210565D01*
X427686Y210582D01*
X427793Y210720D01*
X427903Y210856D01*
X427916Y210879D01*
X427932Y210900D01*
X428010Y211057D01*
X428092Y211211D01*
X428100Y211237D01*
X428112Y211261D01*
X428157Y211430D01*
X428207Y211597D01*
X428209Y211624D01*
X428216Y211650D01*
X428243Y211980D01*
X428243Y232635D01*
X428241Y232662D01*
X428243Y232689D01*
X428221Y232863D01*
X428203Y233036D01*
X428196Y233061D01*
X428192Y233088D01*
X428137Y233254D01*
X428085Y233421D01*
X428072Y233444D01*
X428064Y233470D01*
X427977Y233621D01*
X427893Y233775D01*
X427876Y233795D01*
X427863Y233819D01*
X427648Y234072D01*
X409193Y252527D01*
X409193Y340585D01*
X409191Y340612D01*
X409193Y340639D01*
X409171Y340812D01*
X409153Y340986D01*
X409146Y341011D01*
X409142Y341038D01*
X409087Y341204D01*
X409035Y341371D01*
X409022Y341395D01*
X409014Y341420D01*
X408927Y341571D01*
X408843Y341725D01*
X408826Y341745D01*
X408813Y341769D01*
X408598Y342022D01*
X400922Y349698D01*
X400901Y349715D01*
X400884Y349736D01*
X400746Y349843D01*
X400610Y349953D01*
X400587Y349966D01*
X400565Y349982D01*
X400409Y350060D01*
X400255Y350142D01*
X400229Y350150D01*
X400205Y350162D01*
X400036Y350207D01*
X399869Y350257D01*
X399842Y350259D01*
X399816Y350266D01*
X399485Y350293D01*
X398994Y350293D01*
X397044Y351101D01*
X395551Y352594D01*
X394743Y354544D01*
X394743Y356656D01*
X395551Y358606D01*
X397044Y360099D01*
X398994Y360907D01*
X401106Y360907D01*
X403056Y360099D01*
X404549Y358606D01*
X405357Y356656D01*
X405357Y356165D01*
X405359Y356138D01*
X405357Y356111D01*
X405379Y355937D01*
X405397Y355764D01*
X405404Y355738D01*
X405408Y355712D01*
X405464Y355546D01*
X405515Y355379D01*
X405528Y355355D01*
X405536Y355330D01*
X405623Y355179D01*
X405707Y355025D01*
X405724Y355005D01*
X405737Y354981D01*
X405952Y354728D01*
X416307Y344373D01*
X416307Y256315D01*
X416309Y256288D01*
X416307Y256261D01*
X416329Y256087D01*
X416347Y255914D01*
X416354Y255889D01*
X416358Y255862D01*
X416413Y255696D01*
X416465Y255529D01*
X416478Y255506D01*
X416486Y255480D01*
X416573Y255329D01*
X416657Y255175D01*
X416674Y255155D01*
X416687Y255131D01*
X416902Y254878D01*
X430860Y240920D01*
X430873Y240909D01*
X430885Y240895D01*
X431029Y240781D01*
X431171Y240665D01*
X431187Y240657D01*
X431201Y240646D01*
X431365Y240562D01*
X431527Y240477D01*
X431544Y240472D01*
X431560Y240463D01*
X431737Y240414D01*
X431913Y240362D01*
X431931Y240360D01*
X431948Y240355D01*
X432131Y240342D01*
X432314Y240325D01*
X432331Y240327D01*
X432349Y240326D01*
X432531Y240349D01*
X432714Y240369D01*
X432731Y240374D01*
X432749Y240377D01*
X432922Y240435D01*
X433098Y240490D01*
X433113Y240499D01*
X433130Y240505D01*
X433290Y240597D01*
X433450Y240685D01*
X433464Y240697D01*
X433479Y240706D01*
X433732Y240920D01*
X434175Y241363D01*
X436955Y242515D01*
X452045Y242515D01*
X454825Y241363D01*
X456953Y239235D01*
X458105Y236455D01*
X458105Y233445D01*
X456953Y230665D01*
X454825Y228537D01*
X452045Y227385D01*
X437388Y227385D01*
X437370Y227383D01*
X437352Y227385D01*
X437170Y227364D01*
X436987Y227345D01*
X436970Y227340D01*
X436953Y227338D01*
X436778Y227281D01*
X436602Y227227D01*
X436587Y227219D01*
X436570Y227213D01*
X436410Y227123D01*
X436248Y227035D01*
X436235Y227024D01*
X436219Y227015D01*
X436080Y226895D01*
X435939Y226778D01*
X435928Y226764D01*
X435914Y226752D01*
X435802Y226607D01*
X435687Y226464D01*
X435679Y226448D01*
X435668Y226434D01*
X435586Y226269D01*
X435501Y226107D01*
X435496Y226090D01*
X435488Y226074D01*
X435441Y225895D01*
X435390Y225720D01*
X435388Y225702D01*
X435384Y225685D01*
X435357Y225354D01*
X435357Y211980D01*
X435359Y211954D01*
X435357Y211927D01*
X435379Y211753D01*
X435397Y211580D01*
X435404Y211554D01*
X435408Y211528D01*
X435463Y211362D01*
X435515Y211195D01*
X435528Y211171D01*
X435536Y211146D01*
X435623Y210994D01*
X435707Y210841D01*
X435724Y210820D01*
X435737Y210797D01*
X435952Y210544D01*
X439929Y206567D01*
X439929Y199833D01*
X435167Y195071D01*
X428433Y195071D01*
G37*
%LPD*%
%LPC*%
G36*
X314133Y436371D02*
X314133Y436371D01*
X309371Y441133D01*
X309371Y447867D01*
X314133Y452629D01*
X319757Y452629D01*
X319784Y452631D01*
X319811Y452629D01*
X319985Y452651D01*
X320158Y452669D01*
X320184Y452676D01*
X320210Y452680D01*
X320376Y452736D01*
X320543Y452787D01*
X320567Y452800D01*
X320592Y452808D01*
X320743Y452895D01*
X320897Y452979D01*
X320918Y452996D01*
X320941Y453009D01*
X321194Y453224D01*
X322377Y454407D01*
X330962Y454407D01*
X330980Y454409D01*
X330998Y454407D01*
X331180Y454428D01*
X331363Y454447D01*
X331380Y454452D01*
X331397Y454454D01*
X331572Y454511D01*
X331748Y454565D01*
X331763Y454573D01*
X331780Y454579D01*
X331940Y454669D01*
X332102Y454757D01*
X332115Y454768D01*
X332131Y454777D01*
X332270Y454897D01*
X332411Y455014D01*
X332422Y455028D01*
X332436Y455040D01*
X332548Y455185D01*
X332663Y455328D01*
X332671Y455344D01*
X332682Y455358D01*
X332764Y455523D01*
X332849Y455685D01*
X332854Y455702D01*
X332862Y455718D01*
X332909Y455897D01*
X332960Y456072D01*
X332962Y456090D01*
X332966Y456107D01*
X332993Y456438D01*
X332993Y509560D01*
X332991Y509587D01*
X332993Y509614D01*
X332971Y509788D01*
X332953Y509961D01*
X332946Y509987D01*
X332942Y510013D01*
X332887Y510179D01*
X332835Y510346D01*
X332822Y510370D01*
X332814Y510395D01*
X332727Y510547D01*
X332643Y510700D01*
X332626Y510721D01*
X332613Y510744D01*
X332398Y510997D01*
X332051Y511344D01*
X331243Y513294D01*
X331243Y515406D01*
X332051Y517356D01*
X333544Y518849D01*
X335494Y519657D01*
X337606Y519657D01*
X339556Y518849D01*
X341049Y517356D01*
X341857Y515406D01*
X341857Y513294D01*
X341049Y511344D01*
X340702Y510997D01*
X340685Y510976D01*
X340664Y510959D01*
X340557Y510821D01*
X340447Y510685D01*
X340434Y510662D01*
X340418Y510641D01*
X340340Y510484D01*
X340258Y510330D01*
X340250Y510304D01*
X340238Y510280D01*
X340193Y510111D01*
X340143Y509944D01*
X340141Y509917D01*
X340134Y509891D01*
X340107Y509560D01*
X340107Y456438D01*
X340109Y456420D01*
X340107Y456402D01*
X340128Y456220D01*
X340147Y456037D01*
X340152Y456020D01*
X340154Y456003D01*
X340211Y455828D01*
X340265Y455652D01*
X340273Y455637D01*
X340279Y455620D01*
X340369Y455460D01*
X340457Y455298D01*
X340468Y455285D01*
X340477Y455269D01*
X340597Y455130D01*
X340714Y454989D01*
X340728Y454978D01*
X340740Y454964D01*
X340885Y454852D01*
X341028Y454737D01*
X341044Y454729D01*
X341058Y454718D01*
X341223Y454636D01*
X341385Y454551D01*
X341402Y454546D01*
X341418Y454538D01*
X341597Y454491D01*
X341772Y454440D01*
X341790Y454438D01*
X341807Y454434D01*
X342138Y454407D01*
X353014Y454407D01*
X353036Y454409D01*
X353058Y454407D01*
X353235Y454429D01*
X353414Y454447D01*
X353435Y454453D01*
X353458Y454456D01*
X353627Y454512D01*
X353799Y454565D01*
X353819Y454575D01*
X353840Y454582D01*
X353995Y454671D01*
X354153Y454757D01*
X354170Y454771D01*
X354190Y454782D01*
X354325Y454900D01*
X354462Y455014D01*
X354476Y455032D01*
X354493Y455046D01*
X354602Y455188D01*
X354715Y455328D01*
X354725Y455348D01*
X354739Y455366D01*
X354763Y455412D01*
X357091Y457741D01*
X360079Y458979D01*
X376521Y458979D01*
X379509Y457741D01*
X381795Y455455D01*
X383033Y452467D01*
X383033Y449233D01*
X381795Y446245D01*
X379509Y443959D01*
X376521Y442721D01*
X360079Y442721D01*
X357091Y443959D01*
X354751Y446299D01*
X354700Y446394D01*
X354686Y446411D01*
X354675Y446431D01*
X354558Y446566D01*
X354444Y446705D01*
X354426Y446719D01*
X354412Y446736D01*
X354271Y446845D01*
X354131Y446958D01*
X354111Y446969D01*
X354094Y446982D01*
X353933Y447062D01*
X353774Y447145D01*
X353753Y447152D01*
X353733Y447162D01*
X353559Y447208D01*
X353388Y447258D01*
X353366Y447260D01*
X353344Y447266D01*
X353014Y447293D01*
X344905Y447293D01*
X344901Y447293D01*
X344896Y447293D01*
X344702Y447273D01*
X344505Y447253D01*
X344500Y447252D01*
X344496Y447252D01*
X344308Y447193D01*
X344120Y447135D01*
X344116Y447133D01*
X344111Y447132D01*
X343937Y447036D01*
X343766Y446943D01*
X343762Y446941D01*
X343758Y446938D01*
X343605Y446810D01*
X343456Y446686D01*
X343454Y446682D01*
X343450Y446679D01*
X343327Y446525D01*
X343204Y446372D01*
X343202Y446368D01*
X343199Y446365D01*
X343109Y446190D01*
X343018Y446015D01*
X343017Y446010D01*
X343015Y446006D01*
X342962Y445819D01*
X342907Y445628D01*
X342907Y445623D01*
X342906Y445619D01*
X342899Y445530D01*
X342881Y445689D01*
X342879Y445693D01*
X342879Y445697D01*
X342818Y445883D01*
X342758Y446072D01*
X342755Y446076D01*
X342754Y446080D01*
X342657Y446253D01*
X342561Y446424D01*
X342558Y446427D01*
X342556Y446431D01*
X342428Y446580D01*
X342299Y446729D01*
X342296Y446732D01*
X342293Y446736D01*
X342139Y446855D01*
X341982Y446978D01*
X341978Y446980D01*
X341975Y446982D01*
X341797Y447071D01*
X341623Y447158D01*
X341618Y447160D01*
X341614Y447162D01*
X341422Y447213D01*
X341234Y447265D01*
X341230Y447265D01*
X341226Y447266D01*
X340895Y447293D01*
X327660Y447293D01*
X327642Y447291D01*
X327624Y447293D01*
X327442Y447272D01*
X327259Y447253D01*
X327242Y447248D01*
X327225Y447246D01*
X327050Y447189D01*
X326874Y447135D01*
X326859Y447127D01*
X326842Y447121D01*
X326682Y447031D01*
X326520Y446943D01*
X326507Y446932D01*
X326491Y446923D01*
X326352Y446803D01*
X326211Y446686D01*
X326200Y446672D01*
X326186Y446660D01*
X326074Y446515D01*
X325959Y446372D01*
X325951Y446356D01*
X325940Y446342D01*
X325858Y446177D01*
X325773Y446015D01*
X325768Y445998D01*
X325760Y445982D01*
X325713Y445803D01*
X325662Y445628D01*
X325660Y445610D01*
X325656Y445593D01*
X325629Y445262D01*
X325629Y441133D01*
X320867Y436371D01*
X314133Y436371D01*
G37*
%LPD*%
%LPC*%
G36*
X219288Y217845D02*
X219288Y217845D01*
X218395Y218738D01*
X218395Y251162D01*
X219288Y252055D01*
X251712Y252055D01*
X252605Y251162D01*
X252605Y218738D01*
X251712Y217845D01*
X219288Y217845D01*
G37*
%LPD*%
%LPC*%
G36*
X219288Y71795D02*
X219288Y71795D01*
X218395Y72688D01*
X218395Y105112D01*
X219288Y106005D01*
X251712Y106005D01*
X252605Y105112D01*
X252605Y72688D01*
X251712Y71795D01*
X219288Y71795D01*
G37*
%LPD*%
%LPC*%
G36*
X129288Y71795D02*
X129288Y71795D01*
X128395Y72688D01*
X128395Y105112D01*
X129288Y106005D01*
X161712Y106005D01*
X162605Y105112D01*
X162605Y72688D01*
X161712Y71795D01*
X129288Y71795D01*
G37*
%LPD*%
%LPC*%
G36*
X219288Y732195D02*
X219288Y732195D01*
X218395Y733088D01*
X218395Y765512D01*
X219288Y766405D01*
X251712Y766405D01*
X252605Y765512D01*
X252605Y733088D01*
X251712Y732195D01*
X219288Y732195D01*
G37*
%LPD*%
%LPC*%
G36*
X129288Y732195D02*
X129288Y732195D01*
X128395Y733088D01*
X128395Y765512D01*
X129288Y766405D01*
X161712Y766405D01*
X162605Y765512D01*
X162605Y733088D01*
X161712Y732195D01*
X129288Y732195D01*
G37*
%LPD*%
%LPC*%
G36*
X219288Y586145D02*
X219288Y586145D01*
X218395Y587038D01*
X218395Y619462D01*
X219288Y620355D01*
X251712Y620355D01*
X252605Y619462D01*
X252605Y587038D01*
X251712Y586145D01*
X219288Y586145D01*
G37*
%LPD*%
%LPC*%
G36*
X129288Y586145D02*
X129288Y586145D01*
X128395Y587038D01*
X128395Y619462D01*
X129288Y620355D01*
X161712Y620355D01*
X162605Y619462D01*
X162605Y587038D01*
X161712Y586145D01*
X129288Y586145D01*
G37*
%LPD*%
%LPC*%
G36*
X129288Y217845D02*
X129288Y217845D01*
X128395Y218738D01*
X128395Y251162D01*
X129288Y252055D01*
X161712Y252055D01*
X162605Y251162D01*
X162605Y218738D01*
X161712Y217845D01*
X129288Y217845D01*
G37*
%LPD*%
%LPC*%
G36*
X351538Y662345D02*
X351538Y662345D01*
X350645Y663238D01*
X350645Y695662D01*
X351538Y696555D01*
X383962Y696555D01*
X384855Y695662D01*
X384855Y663238D01*
X383962Y662345D01*
X351538Y662345D01*
G37*
%LPD*%
%LPC*%
G36*
X186397Y523343D02*
X186397Y523343D01*
X180593Y529147D01*
X180593Y537353D01*
X186348Y543109D01*
X186365Y543129D01*
X186386Y543147D01*
X186493Y543285D01*
X186603Y543420D01*
X186616Y543444D01*
X186632Y543465D01*
X186710Y543621D01*
X186792Y543776D01*
X186800Y543801D01*
X186812Y543825D01*
X186857Y543995D01*
X186907Y544162D01*
X186909Y544188D01*
X186916Y544214D01*
X186943Y544545D01*
X186943Y573061D01*
X186941Y573087D01*
X186943Y573114D01*
X186921Y573287D01*
X186903Y573461D01*
X186895Y573487D01*
X186892Y573513D01*
X186837Y573679D01*
X186785Y573846D01*
X186772Y573870D01*
X186764Y573895D01*
X186677Y574047D01*
X186593Y574200D01*
X186576Y574221D01*
X186563Y574244D01*
X186348Y574497D01*
X186001Y574844D01*
X185193Y576794D01*
X185193Y578906D01*
X186001Y580856D01*
X187494Y582349D01*
X189444Y583157D01*
X191556Y583157D01*
X193506Y582349D01*
X194999Y580856D01*
X195807Y578906D01*
X195807Y576794D01*
X194999Y574844D01*
X194652Y574497D01*
X194635Y574476D01*
X194614Y574459D01*
X194508Y574321D01*
X194397Y574185D01*
X194384Y574162D01*
X194368Y574141D01*
X194290Y573984D01*
X194208Y573830D01*
X194200Y573804D01*
X194188Y573780D01*
X194143Y573611D01*
X194093Y573444D01*
X194091Y573417D01*
X194084Y573391D01*
X194057Y573061D01*
X194057Y544545D01*
X194059Y544518D01*
X194057Y544492D01*
X194079Y544318D01*
X194097Y544144D01*
X194104Y544119D01*
X194108Y544092D01*
X194163Y543926D01*
X194215Y543759D01*
X194228Y543736D01*
X194236Y543710D01*
X194323Y543559D01*
X194407Y543405D01*
X194424Y543385D01*
X194437Y543362D01*
X194652Y543109D01*
X200407Y537353D01*
X200407Y529147D01*
X194603Y523343D01*
X186397Y523343D01*
G37*
%LPD*%
%LPC*%
G36*
X314133Y398271D02*
X314133Y398271D01*
X309371Y403033D01*
X309371Y409767D01*
X314133Y414529D01*
X320867Y414529D01*
X324844Y410552D01*
X324865Y410535D01*
X324882Y410514D01*
X325020Y410407D01*
X325156Y410297D01*
X325179Y410284D01*
X325200Y410268D01*
X325357Y410190D01*
X325511Y410108D01*
X325537Y410100D01*
X325561Y410088D01*
X325730Y410043D01*
X325897Y409993D01*
X325924Y409991D01*
X325950Y409984D01*
X326280Y409957D01*
X327885Y409957D01*
X327912Y409959D01*
X327939Y409957D01*
X328113Y409979D01*
X328286Y409997D01*
X328311Y410004D01*
X328338Y410008D01*
X328504Y410063D01*
X328671Y410115D01*
X328694Y410128D01*
X328720Y410136D01*
X328871Y410223D01*
X329025Y410307D01*
X329045Y410324D01*
X329069Y410337D01*
X329322Y410552D01*
X338748Y419978D01*
X338765Y419999D01*
X338786Y420017D01*
X338893Y420154D01*
X339003Y420290D01*
X339016Y420313D01*
X339032Y420335D01*
X339110Y420492D01*
X339192Y420646D01*
X339200Y420671D01*
X339212Y420695D01*
X339257Y420865D01*
X339307Y421031D01*
X339309Y421058D01*
X339316Y421084D01*
X339343Y421415D01*
X339343Y433360D01*
X339341Y433387D01*
X339343Y433414D01*
X339321Y433587D01*
X339303Y433761D01*
X339296Y433787D01*
X339292Y433813D01*
X339237Y433979D01*
X339185Y434146D01*
X339172Y434170D01*
X339164Y434195D01*
X339077Y434347D01*
X338993Y434500D01*
X338976Y434521D01*
X338963Y434544D01*
X338748Y434797D01*
X338401Y435144D01*
X337593Y437094D01*
X337593Y439206D01*
X338401Y441156D01*
X339894Y442649D01*
X341672Y443385D01*
X341676Y443387D01*
X341680Y443389D01*
X341853Y443482D01*
X342027Y443576D01*
X342031Y443578D01*
X342034Y443581D01*
X342182Y443703D01*
X342337Y443832D01*
X342340Y443835D01*
X342344Y443838D01*
X342467Y443991D01*
X342591Y444145D01*
X342593Y444149D01*
X342596Y444152D01*
X342686Y444325D01*
X342778Y444501D01*
X342779Y444505D01*
X342782Y444509D01*
X342836Y444698D01*
X342891Y444888D01*
X342892Y444892D01*
X342893Y444896D01*
X342901Y444997D01*
X342921Y444827D01*
X342923Y444822D01*
X342923Y444818D01*
X342984Y444633D01*
X343046Y444444D01*
X343048Y444440D01*
X343050Y444436D01*
X343146Y444267D01*
X343244Y444093D01*
X343247Y444090D01*
X343249Y444086D01*
X343379Y443937D01*
X343507Y443789D01*
X343511Y443786D01*
X343513Y443782D01*
X343670Y443662D01*
X343825Y443542D01*
X343829Y443540D01*
X343833Y443537D01*
X344128Y443385D01*
X345906Y442649D01*
X347399Y441156D01*
X348207Y439206D01*
X348207Y437094D01*
X347399Y435144D01*
X347052Y434797D01*
X347035Y434776D01*
X347014Y434759D01*
X346907Y434621D01*
X346797Y434485D01*
X346784Y434462D01*
X346768Y434441D01*
X346690Y434284D01*
X346608Y434130D01*
X346600Y434104D01*
X346588Y434080D01*
X346543Y433911D01*
X346493Y433744D01*
X346491Y433717D01*
X346484Y433691D01*
X346457Y433360D01*
X346457Y417627D01*
X331673Y402843D01*
X326280Y402843D01*
X326254Y402841D01*
X326227Y402843D01*
X326053Y402821D01*
X325880Y402803D01*
X325854Y402796D01*
X325828Y402792D01*
X325662Y402737D01*
X325495Y402685D01*
X325471Y402672D01*
X325446Y402664D01*
X325294Y402577D01*
X325141Y402493D01*
X325120Y402476D01*
X325097Y402463D01*
X324844Y402248D01*
X320867Y398271D01*
X314133Y398271D01*
G37*
%LPD*%
%LPC*%
G36*
X211397Y523343D02*
X211397Y523343D01*
X205593Y529147D01*
X205593Y537353D01*
X211748Y543509D01*
X211765Y543529D01*
X211786Y543547D01*
X211893Y543685D01*
X212003Y543820D01*
X212016Y543844D01*
X212032Y543865D01*
X212110Y544021D01*
X212192Y544176D01*
X212200Y544201D01*
X212212Y544225D01*
X212257Y544395D01*
X212307Y544562D01*
X212309Y544588D01*
X212316Y544614D01*
X212343Y544945D01*
X212343Y560360D01*
X212341Y560387D01*
X212343Y560414D01*
X212321Y560588D01*
X212303Y560761D01*
X212296Y560787D01*
X212292Y560813D01*
X212237Y560979D01*
X212185Y561146D01*
X212172Y561170D01*
X212164Y561195D01*
X212077Y561347D01*
X211993Y561500D01*
X211976Y561521D01*
X211963Y561544D01*
X211748Y561797D01*
X211401Y562144D01*
X210593Y564094D01*
X210593Y566206D01*
X211401Y568156D01*
X212894Y569649D01*
X214844Y570457D01*
X216956Y570457D01*
X218906Y569649D01*
X220399Y568156D01*
X221207Y566206D01*
X221207Y564094D01*
X220399Y562144D01*
X220052Y561797D01*
X220035Y561776D01*
X220014Y561759D01*
X219907Y561621D01*
X219797Y561485D01*
X219784Y561462D01*
X219768Y561441D01*
X219690Y561284D01*
X219608Y561130D01*
X219600Y561104D01*
X219588Y561080D01*
X219543Y560911D01*
X219493Y560744D01*
X219491Y560717D01*
X219484Y560691D01*
X219457Y560360D01*
X219457Y544145D01*
X219459Y544118D01*
X219457Y544092D01*
X219479Y543918D01*
X219497Y543744D01*
X219504Y543719D01*
X219508Y543692D01*
X219563Y543526D01*
X219615Y543359D01*
X219628Y543336D01*
X219636Y543310D01*
X219723Y543159D01*
X219807Y543005D01*
X219824Y542985D01*
X219837Y542962D01*
X220052Y542709D01*
X225407Y537353D01*
X225407Y529147D01*
X219603Y523343D01*
X211397Y523343D01*
G37*
%LPD*%
%LPC*%
G36*
X360079Y468121D02*
X360079Y468121D01*
X357091Y469359D01*
X354805Y471645D01*
X353567Y474633D01*
X353567Y477867D01*
X354805Y480855D01*
X357091Y483141D01*
X360079Y484379D01*
X376521Y484379D01*
X379509Y483141D01*
X381795Y480855D01*
X383033Y477867D01*
X383033Y474633D01*
X381795Y471645D01*
X379509Y469359D01*
X376521Y468121D01*
X360079Y468121D01*
G37*
%LPD*%
%LPC*%
G36*
X360079Y493521D02*
X360079Y493521D01*
X357091Y494759D01*
X354805Y497045D01*
X353567Y500033D01*
X353567Y503267D01*
X354805Y506255D01*
X357091Y508541D01*
X360079Y509779D01*
X376521Y509779D01*
X379509Y508541D01*
X381795Y506255D01*
X383033Y503267D01*
X383033Y500033D01*
X381795Y497045D01*
X379509Y494759D01*
X376521Y493521D01*
X360079Y493521D01*
G37*
%LPD*%
%LPC*%
G36*
X436279Y468121D02*
X436279Y468121D01*
X433291Y469359D01*
X431005Y471645D01*
X429767Y474633D01*
X429767Y477867D01*
X431005Y480855D01*
X433291Y483141D01*
X436279Y484379D01*
X452721Y484379D01*
X455709Y483141D01*
X457995Y480855D01*
X459233Y477867D01*
X459233Y474633D01*
X457995Y471645D01*
X455709Y469359D01*
X452721Y468121D01*
X436279Y468121D01*
G37*
%LPD*%
%LPC*%
G36*
X436279Y442721D02*
X436279Y442721D01*
X433291Y443959D01*
X431005Y446245D01*
X429767Y449233D01*
X429767Y452467D01*
X431005Y455455D01*
X433291Y457741D01*
X436279Y458979D01*
X452721Y458979D01*
X455709Y457741D01*
X457995Y455455D01*
X459233Y452467D01*
X459233Y449233D01*
X457995Y446245D01*
X455709Y443959D01*
X452721Y442721D01*
X436279Y442721D01*
G37*
%LPD*%
%LPC*%
G36*
X436279Y417321D02*
X436279Y417321D01*
X433291Y418559D01*
X431005Y420845D01*
X429767Y423833D01*
X429767Y427067D01*
X431005Y430055D01*
X433291Y432341D01*
X436279Y433579D01*
X452721Y433579D01*
X455709Y432341D01*
X457995Y430055D01*
X459233Y427067D01*
X459233Y423833D01*
X457995Y420845D01*
X455709Y418559D01*
X455045Y418284D01*
X452721Y417321D01*
X436279Y417321D01*
G37*
%LPD*%
%LPC*%
G36*
X207286Y891643D02*
X207286Y891643D01*
X206393Y892536D01*
X206393Y910564D01*
X207286Y911457D01*
X225314Y911457D01*
X226207Y910564D01*
X226207Y892536D01*
X225314Y891643D01*
X207286Y891643D01*
G37*
%LPD*%
%LPC*%
G36*
X378736Y599543D02*
X378736Y599543D01*
X377843Y600436D01*
X377843Y618464D01*
X378736Y619357D01*
X396764Y619357D01*
X397657Y618464D01*
X397657Y600436D01*
X396764Y599543D01*
X378736Y599543D01*
G37*
%LPD*%
%LPC*%
G36*
X436955Y252785D02*
X436955Y252785D01*
X434175Y253937D01*
X432047Y256065D01*
X430895Y258845D01*
X430895Y261855D01*
X432047Y264635D01*
X434175Y266763D01*
X436955Y267915D01*
X452045Y267915D01*
X454825Y266763D01*
X456953Y264635D01*
X458105Y261855D01*
X458105Y258845D01*
X456953Y256065D01*
X454825Y253937D01*
X454380Y253753D01*
X452045Y252785D01*
X436955Y252785D01*
G37*
%LPD*%
%LPC*%
G36*
X360755Y252785D02*
X360755Y252785D01*
X357975Y253937D01*
X355847Y256065D01*
X354695Y258845D01*
X354695Y261855D01*
X355847Y264635D01*
X357975Y266763D01*
X360755Y267915D01*
X375845Y267915D01*
X378625Y266763D01*
X380753Y264635D01*
X381905Y261855D01*
X381905Y258845D01*
X380753Y256065D01*
X378625Y253937D01*
X378180Y253753D01*
X375845Y252785D01*
X360755Y252785D01*
G37*
%LPD*%
%LPC*%
G36*
X360755Y278185D02*
X360755Y278185D01*
X357975Y279337D01*
X355847Y281465D01*
X354695Y284245D01*
X354695Y287255D01*
X355847Y290035D01*
X357975Y292163D01*
X359181Y292662D01*
X359181Y292663D01*
X360755Y293315D01*
X375845Y293315D01*
X378625Y292163D01*
X380753Y290035D01*
X381905Y287255D01*
X381905Y284245D01*
X380753Y281465D01*
X378625Y279337D01*
X375845Y278185D01*
X360755Y278185D01*
G37*
%LPD*%
%LPC*%
G36*
X211397Y155043D02*
X211397Y155043D01*
X205593Y160847D01*
X205593Y169053D01*
X211397Y174857D01*
X219603Y174857D01*
X225407Y169053D01*
X225407Y160847D01*
X219603Y155043D01*
X211397Y155043D01*
G37*
%LPD*%
%LPC*%
G36*
X186397Y155043D02*
X186397Y155043D01*
X180593Y160847D01*
X180593Y169053D01*
X186397Y174857D01*
X194603Y174857D01*
X200407Y169053D01*
X200407Y160847D01*
X194603Y155043D01*
X186397Y155043D01*
G37*
%LPD*%
%LPC*%
G36*
X237197Y891643D02*
X237197Y891643D01*
X231393Y897447D01*
X231393Y905653D01*
X237197Y911457D01*
X245403Y911457D01*
X251207Y905653D01*
X251207Y897447D01*
X245403Y891643D01*
X237197Y891643D01*
G37*
%LPD*%
%LPC*%
G36*
X211397Y669393D02*
X211397Y669393D01*
X205593Y675197D01*
X205593Y683403D01*
X211397Y689207D01*
X219603Y689207D01*
X225407Y683403D01*
X225407Y675197D01*
X219603Y669393D01*
X211397Y669393D01*
G37*
%LPD*%
%LPC*%
G36*
X408647Y599543D02*
X408647Y599543D01*
X402843Y605347D01*
X402843Y613553D01*
X408647Y619357D01*
X416853Y619357D01*
X422657Y613553D01*
X422657Y605347D01*
X416853Y599543D01*
X408647Y599543D01*
G37*
%LPD*%
%LPC*%
G36*
X48856Y129125D02*
X48856Y129125D01*
X45263Y130613D01*
X42513Y133363D01*
X41025Y136956D01*
X41025Y140844D01*
X42513Y144437D01*
X45263Y147187D01*
X48856Y148675D01*
X52744Y148675D01*
X56337Y147187D01*
X59087Y144437D01*
X60575Y140844D01*
X60575Y136956D01*
X59087Y133363D01*
X56337Y130613D01*
X52744Y129125D01*
X48856Y129125D01*
G37*
%LPD*%
%LPC*%
G36*
X48856Y275175D02*
X48856Y275175D01*
X45263Y276663D01*
X42513Y279413D01*
X41025Y283006D01*
X41025Y286894D01*
X42513Y290487D01*
X45263Y293237D01*
X48856Y294725D01*
X52744Y294725D01*
X56337Y293237D01*
X59087Y290487D01*
X60575Y286894D01*
X60575Y283006D01*
X59087Y279413D01*
X56337Y276663D01*
X52744Y275175D01*
X48856Y275175D01*
G37*
%LPD*%
%LPC*%
G36*
X48856Y643475D02*
X48856Y643475D01*
X45263Y644963D01*
X42513Y647713D01*
X41025Y651306D01*
X41025Y655194D01*
X42513Y658787D01*
X45263Y661537D01*
X48856Y663025D01*
X52744Y663025D01*
X56337Y661537D01*
X59087Y658787D01*
X60575Y655194D01*
X60575Y651306D01*
X59087Y647713D01*
X56337Y644963D01*
X52744Y643475D01*
X48856Y643475D01*
G37*
%LPD*%
%LPC*%
G36*
X48856Y558475D02*
X48856Y558475D01*
X45263Y559963D01*
X42513Y562713D01*
X41025Y566306D01*
X41025Y570194D01*
X42513Y573787D01*
X45263Y576537D01*
X48856Y578025D01*
X52744Y578025D01*
X56337Y576537D01*
X59087Y573787D01*
X60575Y570194D01*
X60575Y566306D01*
X59087Y562713D01*
X56337Y559963D01*
X52744Y558475D01*
X48856Y558475D01*
G37*
%LPD*%
%LPC*%
G36*
X48856Y789525D02*
X48856Y789525D01*
X45263Y791013D01*
X42513Y793763D01*
X41025Y797356D01*
X41025Y801244D01*
X42513Y804837D01*
X45263Y807587D01*
X48856Y809075D01*
X52744Y809075D01*
X56337Y807587D01*
X59087Y804837D01*
X60575Y801244D01*
X60575Y797356D01*
X59087Y793763D01*
X56337Y791013D01*
X52744Y789525D01*
X48856Y789525D01*
G37*
%LPD*%
%LPC*%
G36*
X48856Y44125D02*
X48856Y44125D01*
X45263Y45613D01*
X42513Y48363D01*
X41025Y51956D01*
X41025Y55844D01*
X42513Y59437D01*
X45263Y62187D01*
X48856Y63675D01*
X52744Y63675D01*
X56337Y62187D01*
X59087Y59437D01*
X60575Y55844D01*
X60575Y51956D01*
X59087Y48363D01*
X56337Y45613D01*
X53731Y44534D01*
X52744Y44125D01*
X48856Y44125D01*
G37*
%LPD*%
%LPC*%
G36*
X410806Y44125D02*
X410806Y44125D01*
X407213Y45613D01*
X404463Y48363D01*
X402975Y51956D01*
X402975Y55844D01*
X404463Y59437D01*
X407213Y62187D01*
X410806Y63675D01*
X414694Y63675D01*
X418287Y62187D01*
X421037Y59437D01*
X422525Y55844D01*
X422525Y51956D01*
X421037Y48363D01*
X418287Y45613D01*
X415681Y44534D01*
X414694Y44125D01*
X410806Y44125D01*
G37*
%LPD*%
%LPC*%
G36*
X48856Y704525D02*
X48856Y704525D01*
X45263Y706013D01*
X42513Y708763D01*
X41025Y712356D01*
X41025Y716244D01*
X42513Y719837D01*
X45263Y722587D01*
X48856Y724075D01*
X52744Y724075D01*
X56337Y722587D01*
X59087Y719837D01*
X60575Y716244D01*
X60575Y712356D01*
X59087Y708763D01*
X56337Y706013D01*
X53143Y704690D01*
X53142Y704690D01*
X52744Y704525D01*
X48856Y704525D01*
G37*
%LPD*%
%LPC*%
G36*
X48856Y190175D02*
X48856Y190175D01*
X45263Y191663D01*
X42513Y194413D01*
X41025Y198006D01*
X41025Y201894D01*
X42513Y205487D01*
X45263Y208237D01*
X48856Y209725D01*
X52744Y209725D01*
X56337Y208237D01*
X59087Y205487D01*
X60575Y201894D01*
X60575Y198006D01*
X59087Y194413D01*
X56337Y191663D01*
X54214Y190784D01*
X52744Y190175D01*
X48856Y190175D01*
G37*
%LPD*%
%LPC*%
G36*
X62097Y428685D02*
X62097Y428685D01*
X58765Y430065D01*
X56215Y432615D01*
X54835Y435947D01*
X54835Y439553D01*
X56215Y442885D01*
X58765Y445435D01*
X62097Y446815D01*
X65703Y446815D01*
X69035Y445435D01*
X71585Y442885D01*
X72965Y439553D01*
X72965Y435947D01*
X71585Y432615D01*
X69035Y430065D01*
X65703Y428685D01*
X62097Y428685D01*
G37*
%LPD*%
%LPC*%
G36*
X112097Y428685D02*
X112097Y428685D01*
X108765Y430065D01*
X106215Y432615D01*
X104835Y435947D01*
X104835Y439553D01*
X106215Y442885D01*
X108765Y445435D01*
X112097Y446815D01*
X115703Y446815D01*
X119035Y445435D01*
X121585Y442885D01*
X122965Y439553D01*
X122965Y435947D01*
X121585Y432615D01*
X119035Y430065D01*
X115703Y428685D01*
X112097Y428685D01*
G37*
%LPD*%
%LPC*%
G36*
X112097Y378685D02*
X112097Y378685D01*
X108765Y380065D01*
X106215Y382615D01*
X104835Y385947D01*
X104835Y389553D01*
X106215Y392885D01*
X108765Y395435D01*
X112097Y396815D01*
X115703Y396815D01*
X119035Y395435D01*
X121585Y392885D01*
X122965Y389553D01*
X122965Y385947D01*
X121585Y382615D01*
X119035Y380065D01*
X118129Y379690D01*
X115703Y378685D01*
X112097Y378685D01*
G37*
%LPD*%
%LPC*%
G36*
X62097Y378685D02*
X62097Y378685D01*
X58765Y380065D01*
X56215Y382615D01*
X54835Y385947D01*
X54835Y389553D01*
X56215Y392885D01*
X58765Y395435D01*
X62097Y396815D01*
X65703Y396815D01*
X69035Y395435D01*
X71585Y392885D01*
X72965Y389553D01*
X72965Y385947D01*
X71585Y382615D01*
X69035Y380065D01*
X68129Y379690D01*
X65703Y378685D01*
X62097Y378685D01*
G37*
%LPD*%
%LPC*%
G36*
X314133Y372871D02*
X314133Y372871D01*
X309371Y377633D01*
X309371Y384367D01*
X314133Y389129D01*
X320867Y389129D01*
X325629Y384367D01*
X325629Y377633D01*
X320867Y372871D01*
X314133Y372871D01*
G37*
%LPD*%
%LPC*%
G36*
X237933Y461771D02*
X237933Y461771D01*
X233171Y466533D01*
X233171Y473267D01*
X237933Y478029D01*
X244667Y478029D01*
X249429Y473267D01*
X249429Y466533D01*
X244667Y461771D01*
X237933Y461771D01*
G37*
%LPD*%
%LPC*%
G36*
X282383Y239521D02*
X282383Y239521D01*
X277621Y244283D01*
X277621Y251017D01*
X282383Y255779D01*
X289117Y255779D01*
X293879Y251017D01*
X293879Y244283D01*
X289117Y239521D01*
X282383Y239521D01*
G37*
%LPD*%
%LPC*%
G36*
X307783Y303021D02*
X307783Y303021D01*
X303021Y307783D01*
X303021Y314517D01*
X307783Y319279D01*
X314517Y319279D01*
X319279Y314517D01*
X319279Y307783D01*
X314517Y303021D01*
X307783Y303021D01*
G37*
%LPD*%
%LPC*%
G36*
X377633Y195071D02*
X377633Y195071D01*
X372871Y199833D01*
X372871Y206567D01*
X377633Y211329D01*
X384367Y211329D01*
X389129Y206567D01*
X389129Y199833D01*
X384367Y195071D01*
X377633Y195071D01*
G37*
%LPD*%
%LPC*%
G36*
X199833Y379221D02*
X199833Y379221D01*
X195071Y383983D01*
X195071Y390717D01*
X199833Y395479D01*
X206567Y395479D01*
X211329Y390717D01*
X211329Y383983D01*
X206567Y379221D01*
X199833Y379221D01*
G37*
%LPD*%
%LPC*%
G36*
X237933Y372871D02*
X237933Y372871D01*
X233171Y377633D01*
X233171Y384367D01*
X237933Y389129D01*
X244667Y389129D01*
X249429Y384367D01*
X249429Y377633D01*
X244667Y372871D01*
X237933Y372871D01*
G37*
%LPD*%
%LPC*%
G36*
X333183Y182371D02*
X333183Y182371D01*
X328421Y187133D01*
X328421Y193867D01*
X333183Y198629D01*
X339917Y198629D01*
X344679Y193867D01*
X344679Y187133D01*
X339917Y182371D01*
X333183Y182371D01*
G37*
%LPD*%
%LPC*%
G36*
X199833Y328421D02*
X199833Y328421D01*
X195071Y333183D01*
X195071Y339917D01*
X199833Y344679D01*
X206567Y344679D01*
X211329Y339917D01*
X211329Y333183D01*
X206567Y328421D01*
X199833Y328421D01*
G37*
%LPD*%
%LPC*%
G36*
X123633Y328421D02*
X123633Y328421D01*
X118871Y333183D01*
X118871Y339917D01*
X123633Y344679D01*
X130367Y344679D01*
X135129Y339917D01*
X135129Y333183D01*
X130367Y328421D01*
X123633Y328421D01*
G37*
%LPD*%
%LPC*%
G36*
X307783Y182371D02*
X307783Y182371D01*
X303021Y187133D01*
X303021Y193867D01*
X307783Y198629D01*
X314517Y198629D01*
X319279Y193867D01*
X319279Y187133D01*
X314517Y182371D01*
X307783Y182371D01*
G37*
%LPD*%
%LPC*%
G36*
X333183Y106171D02*
X333183Y106171D01*
X328421Y110933D01*
X328421Y117667D01*
X333183Y122429D01*
X339917Y122429D01*
X344679Y117667D01*
X344679Y110933D01*
X339917Y106171D01*
X333183Y106171D01*
G37*
%LPD*%
%LPC*%
G36*
X307783Y106171D02*
X307783Y106171D01*
X303021Y110933D01*
X303021Y117667D01*
X307783Y122429D01*
X314517Y122429D01*
X319279Y117667D01*
X319279Y110933D01*
X314517Y106171D01*
X307783Y106171D01*
G37*
%LPD*%
%LPC*%
G36*
X282383Y182371D02*
X282383Y182371D01*
X277621Y187133D01*
X277621Y193867D01*
X282383Y198629D01*
X289117Y198629D01*
X293879Y193867D01*
X293879Y187133D01*
X289117Y182371D01*
X282383Y182371D01*
G37*
%LPD*%
%LPC*%
G36*
X237933Y398271D02*
X237933Y398271D01*
X233171Y403033D01*
X233171Y409767D01*
X237933Y414529D01*
X244667Y414529D01*
X249429Y409767D01*
X249429Y403033D01*
X244667Y398271D01*
X237933Y398271D01*
G37*
%LPD*%
%LPC*%
G36*
X199833Y480821D02*
X199833Y480821D01*
X195071Y485583D01*
X195071Y492317D01*
X199833Y497079D01*
X206567Y497079D01*
X211329Y492317D01*
X211329Y485583D01*
X206567Y480821D01*
X199833Y480821D01*
G37*
%LPD*%
%LPC*%
G36*
X396683Y861821D02*
X396683Y861821D01*
X391921Y866583D01*
X391921Y873317D01*
X396683Y878079D01*
X403417Y878079D01*
X408179Y873317D01*
X408179Y866583D01*
X403417Y861821D01*
X396683Y861821D01*
G37*
%LPD*%
%LPC*%
G36*
X237933Y836421D02*
X237933Y836421D01*
X233171Y841183D01*
X233171Y847917D01*
X237933Y852679D01*
X244667Y852679D01*
X249429Y847917D01*
X249429Y841183D01*
X244667Y836421D01*
X237933Y836421D01*
G37*
%LPD*%
%LPC*%
G36*
X237933Y811021D02*
X237933Y811021D01*
X233171Y815783D01*
X233171Y822517D01*
X237933Y827279D01*
X244667Y827279D01*
X249429Y822517D01*
X249429Y815783D01*
X244667Y811021D01*
X237933Y811021D01*
G37*
%LPD*%
%LPC*%
G36*
X199833Y430021D02*
X199833Y430021D01*
X195071Y434783D01*
X195071Y441517D01*
X199833Y446279D01*
X206567Y446279D01*
X211329Y441517D01*
X211329Y434783D01*
X206567Y430021D01*
X199833Y430021D01*
G37*
%LPD*%
%LPC*%
G36*
X314133Y461771D02*
X314133Y461771D01*
X309371Y466533D01*
X309371Y473267D01*
X314133Y478029D01*
X320867Y478029D01*
X325629Y473267D01*
X325629Y466533D01*
X320867Y461771D01*
X314133Y461771D01*
G37*
%LPD*%
%LPC*%
G36*
X301433Y741171D02*
X301433Y741171D01*
X296671Y745933D01*
X296671Y752667D01*
X301433Y757429D01*
X308167Y757429D01*
X312929Y752667D01*
X312929Y745933D01*
X308167Y741171D01*
X301433Y741171D01*
G37*
%LPD*%
%LPC*%
G36*
X282383Y106171D02*
X282383Y106171D01*
X277621Y110933D01*
X277621Y117667D01*
X282383Y122429D01*
X289117Y122429D01*
X293879Y117667D01*
X293879Y110933D01*
X289117Y106171D01*
X282383Y106171D01*
G37*
%LPD*%
%LPC*%
G36*
X237933Y436371D02*
X237933Y436371D01*
X233171Y441133D01*
X233171Y447867D01*
X237933Y452629D01*
X244667Y452629D01*
X249429Y447867D01*
X249429Y441133D01*
X244667Y436371D01*
X237933Y436371D01*
G37*
%LPD*%
%LPC*%
G36*
X276033Y715771D02*
X276033Y715771D01*
X271271Y720533D01*
X271271Y727267D01*
X276033Y732029D01*
X282767Y732029D01*
X287529Y727267D01*
X287529Y720533D01*
X282767Y715771D01*
X276033Y715771D01*
G37*
%LPD*%
%LPC*%
G36*
X439721Y974089D02*
X439721Y974089D01*
X440164Y975450D01*
X440890Y976875D01*
X441830Y978169D01*
X442961Y979300D01*
X444255Y980240D01*
X445680Y980966D01*
X447201Y981461D01*
X448780Y981711D01*
X454661Y981711D01*
X454661Y974089D01*
X439721Y974089D01*
G37*
%LPD*%
%LPC*%
G36*
X448780Y961389D02*
X448780Y961389D01*
X447201Y961639D01*
X445680Y962134D01*
X444255Y962860D01*
X442961Y963800D01*
X441830Y964931D01*
X440890Y966225D01*
X440164Y967650D01*
X439721Y969011D01*
X454661Y969011D01*
X454661Y961389D01*
X448780Y961389D01*
G37*
%LPD*%
%LPC*%
G36*
X446531Y503681D02*
X446531Y503681D01*
X446531Y510795D01*
X451824Y510795D01*
X453245Y510570D01*
X454614Y510125D01*
X455897Y509471D01*
X457061Y508625D01*
X458079Y507607D01*
X458925Y506443D01*
X459579Y505160D01*
X460024Y503791D01*
X460041Y503681D01*
X446531Y503681D01*
G37*
%LPD*%
%LPC*%
G36*
X428959Y503681D02*
X428959Y503681D01*
X428976Y503791D01*
X429421Y505160D01*
X430075Y506443D01*
X430921Y507607D01*
X431939Y508625D01*
X433103Y509471D01*
X434386Y510125D01*
X435755Y510570D01*
X437176Y510795D01*
X442469Y510795D01*
X442469Y503681D01*
X428959Y503681D01*
G37*
%LPD*%
%LPC*%
G36*
X446531Y492505D02*
X446531Y492505D01*
X446531Y499619D01*
X460041Y499619D01*
X460024Y499509D01*
X459579Y498140D01*
X458925Y496857D01*
X458079Y495693D01*
X457061Y494675D01*
X455897Y493829D01*
X454614Y493175D01*
X453245Y492730D01*
X451824Y492505D01*
X446531Y492505D01*
G37*
%LPD*%
%LPC*%
G36*
X437176Y492505D02*
X437176Y492505D01*
X435755Y492730D01*
X434386Y493175D01*
X433103Y493829D01*
X431939Y494675D01*
X430921Y495693D01*
X430075Y496857D01*
X429421Y498140D01*
X428976Y499509D01*
X428959Y499619D01*
X442469Y499619D01*
X442469Y492505D01*
X437176Y492505D01*
G37*
%LPD*%
%LPC*%
G36*
X446531Y287781D02*
X446531Y287781D01*
X446531Y294331D01*
X451215Y294331D01*
X452549Y294119D01*
X453834Y293702D01*
X455037Y293089D01*
X456130Y292295D01*
X457085Y291340D01*
X457879Y290247D01*
X458492Y289044D01*
X458902Y287781D01*
X446531Y287781D01*
G37*
%LPD*%
%LPC*%
G36*
X353898Y313181D02*
X353898Y313181D01*
X354308Y314444D01*
X354921Y315647D01*
X355715Y316740D01*
X356670Y317695D01*
X357763Y318489D01*
X358966Y319102D01*
X360251Y319519D01*
X361585Y319731D01*
X366269Y319731D01*
X366269Y313181D01*
X353898Y313181D01*
G37*
%LPD*%
%LPC*%
G36*
X430098Y287781D02*
X430098Y287781D01*
X430508Y289044D01*
X431121Y290247D01*
X431915Y291340D01*
X432870Y292295D01*
X433963Y293089D01*
X435166Y293702D01*
X436451Y294119D01*
X437785Y294331D01*
X442469Y294331D01*
X442469Y287781D01*
X430098Y287781D01*
G37*
%LPD*%
%LPC*%
G36*
X446531Y277169D02*
X446531Y277169D01*
X446531Y283719D01*
X458902Y283719D01*
X458492Y282456D01*
X457879Y281253D01*
X457085Y280160D01*
X456130Y279205D01*
X455037Y278411D01*
X453834Y277798D01*
X452549Y277381D01*
X451215Y277169D01*
X446531Y277169D01*
G37*
%LPD*%
%LPC*%
G36*
X361585Y302569D02*
X361585Y302569D01*
X360251Y302781D01*
X358966Y303198D01*
X357763Y303811D01*
X356670Y304605D01*
X355715Y305560D01*
X354921Y306653D01*
X354308Y307856D01*
X353898Y309119D01*
X366269Y309119D01*
X366269Y302569D01*
X361585Y302569D01*
G37*
%LPD*%
%LPC*%
G36*
X437785Y277169D02*
X437785Y277169D01*
X436451Y277381D01*
X435166Y277798D01*
X433963Y278411D01*
X432870Y279205D01*
X431915Y280160D01*
X431121Y281253D01*
X430508Y282456D01*
X430098Y283719D01*
X442469Y283719D01*
X442469Y277169D01*
X437785Y277169D01*
G37*
%LPD*%
%LPC*%
G36*
X168249Y682049D02*
X168249Y682049D01*
X168249Y690223D01*
X174217Y690223D01*
X174863Y690050D01*
X175442Y689715D01*
X175915Y689242D01*
X176250Y688663D01*
X176423Y688017D01*
X176423Y682049D01*
X168249Y682049D01*
G37*
%LPD*%
%LPC*%
G36*
X168249Y21649D02*
X168249Y21649D01*
X168249Y29823D01*
X174217Y29823D01*
X174863Y29650D01*
X175442Y29315D01*
X175915Y28842D01*
X176250Y28263D01*
X176423Y27617D01*
X176423Y21649D01*
X168249Y21649D01*
G37*
%LPD*%
%LPC*%
G36*
X168249Y535999D02*
X168249Y535999D01*
X168249Y544173D01*
X174217Y544173D01*
X174863Y544000D01*
X175442Y543665D01*
X175915Y543192D01*
X176250Y542613D01*
X176423Y541967D01*
X176423Y535999D01*
X168249Y535999D01*
G37*
%LPD*%
%LPC*%
G36*
X168249Y167699D02*
X168249Y167699D01*
X168249Y175873D01*
X174217Y175873D01*
X174863Y175700D01*
X175442Y175365D01*
X175915Y174892D01*
X176250Y174313D01*
X176423Y173667D01*
X176423Y167699D01*
X168249Y167699D01*
G37*
%LPD*%
%LPC*%
G36*
X168249Y162201D02*
X168249Y162201D01*
X176423Y162201D01*
X176423Y156233D01*
X176250Y155587D01*
X175915Y155008D01*
X175442Y154535D01*
X174863Y154200D01*
X174217Y154027D01*
X168249Y154027D01*
X168249Y162201D01*
G37*
%LPD*%
%LPC*%
G36*
X154577Y21649D02*
X154577Y21649D01*
X154577Y27617D01*
X154750Y28263D01*
X155085Y28842D01*
X155558Y29315D01*
X156137Y29650D01*
X156783Y29823D01*
X162751Y29823D01*
X162751Y21649D01*
X154577Y21649D01*
G37*
%LPD*%
%LPC*%
G36*
X154577Y682049D02*
X154577Y682049D01*
X154577Y688017D01*
X154750Y688663D01*
X155085Y689242D01*
X155558Y689715D01*
X156137Y690050D01*
X156783Y690223D01*
X162751Y690223D01*
X162751Y682049D01*
X154577Y682049D01*
G37*
%LPD*%
%LPC*%
G36*
X154577Y167699D02*
X154577Y167699D01*
X154577Y173667D01*
X154750Y174313D01*
X155085Y174892D01*
X155558Y175365D01*
X156137Y175700D01*
X156783Y175873D01*
X162751Y175873D01*
X162751Y167699D01*
X154577Y167699D01*
G37*
%LPD*%
%LPC*%
G36*
X168249Y668377D02*
X168249Y668377D01*
X168249Y676551D01*
X176423Y676551D01*
X176423Y670583D01*
X176250Y669937D01*
X175915Y669358D01*
X175442Y668885D01*
X174863Y668550D01*
X174217Y668377D01*
X168249Y668377D01*
G37*
%LPD*%
%LPC*%
G36*
X154577Y535999D02*
X154577Y535999D01*
X154577Y541967D01*
X154750Y542613D01*
X155085Y543192D01*
X155558Y543665D01*
X156137Y544000D01*
X156783Y544173D01*
X162751Y544173D01*
X162751Y535999D01*
X154577Y535999D01*
G37*
%LPD*%
%LPC*%
G36*
X168249Y522327D02*
X168249Y522327D01*
X168249Y530501D01*
X176423Y530501D01*
X176423Y524533D01*
X176250Y523887D01*
X175915Y523308D01*
X175442Y522835D01*
X174863Y522500D01*
X174217Y522327D01*
X168249Y522327D01*
G37*
%LPD*%
%LPC*%
G36*
X156783Y522327D02*
X156783Y522327D01*
X156137Y522500D01*
X155558Y522835D01*
X155085Y523308D01*
X154750Y523887D01*
X154577Y524533D01*
X154577Y530501D01*
X162751Y530501D01*
X162751Y522327D01*
X156783Y522327D01*
G37*
%LPD*%
%LPC*%
G36*
X156783Y154027D02*
X156783Y154027D01*
X156137Y154200D01*
X155558Y154535D01*
X155085Y155008D01*
X154750Y155587D01*
X154577Y156233D01*
X154577Y162201D01*
X162751Y162201D01*
X162751Y154027D01*
X156783Y154027D01*
G37*
%LPD*%
%LPC*%
G36*
X156783Y668377D02*
X156783Y668377D01*
X156137Y668550D01*
X155558Y668885D01*
X155085Y669358D01*
X154750Y669937D01*
X154577Y670583D01*
X154577Y676551D01*
X162751Y676551D01*
X162751Y668377D01*
X156783Y668377D01*
G37*
%LPD*%
%LPC*%
G36*
X269049Y904299D02*
X269049Y904299D01*
X269049Y912473D01*
X270824Y912473D01*
X277223Y906074D01*
X277223Y904299D01*
X269049Y904299D01*
G37*
%LPD*%
%LPC*%
G36*
X440499Y612199D02*
X440499Y612199D01*
X440499Y620373D01*
X442274Y620373D01*
X448673Y613974D01*
X448673Y612199D01*
X440499Y612199D01*
G37*
%LPD*%
%LPC*%
G36*
X440499Y598527D02*
X440499Y598527D01*
X440499Y606701D01*
X448673Y606701D01*
X448673Y604926D01*
X442274Y598527D01*
X440499Y598527D01*
G37*
%LPD*%
%LPC*%
G36*
X426827Y612199D02*
X426827Y612199D01*
X426827Y613974D01*
X433226Y620373D01*
X435001Y620373D01*
X435001Y612199D01*
X426827Y612199D01*
G37*
%LPD*%
%LPC*%
G36*
X269049Y890627D02*
X269049Y890627D01*
X269049Y898801D01*
X277223Y898801D01*
X277223Y897026D01*
X270824Y890627D01*
X269049Y890627D01*
G37*
%LPD*%
%LPC*%
G36*
X255377Y904299D02*
X255377Y904299D01*
X255377Y906074D01*
X261776Y912473D01*
X263551Y912473D01*
X263551Y904299D01*
X255377Y904299D01*
G37*
%LPD*%
%LPC*%
G36*
X261776Y890627D02*
X261776Y890627D01*
X255377Y897026D01*
X255377Y898801D01*
X263551Y898801D01*
X263551Y890627D01*
X261776Y890627D01*
G37*
%LPD*%
%LPC*%
G36*
X433226Y598527D02*
X433226Y598527D01*
X426827Y604926D01*
X426827Y606701D01*
X435001Y606701D01*
X435001Y598527D01*
X433226Y598527D01*
G37*
%LPD*%
%LPC*%
G36*
X53549Y687049D02*
X53549Y687049D01*
X53549Y694753D01*
X54942Y694300D01*
X56456Y693529D01*
X57830Y692531D01*
X59031Y691330D01*
X60029Y689956D01*
X60800Y688442D01*
X61253Y687049D01*
X53549Y687049D01*
G37*
%LPD*%
%LPC*%
G36*
X415499Y26649D02*
X415499Y26649D01*
X415499Y34353D01*
X416892Y33900D01*
X418406Y33129D01*
X419780Y32131D01*
X420981Y30930D01*
X421979Y29556D01*
X422750Y28042D01*
X423203Y26649D01*
X415499Y26649D01*
G37*
%LPD*%
%LPC*%
G36*
X53549Y540999D02*
X53549Y540999D01*
X53549Y548703D01*
X54942Y548250D01*
X56456Y547479D01*
X57830Y546481D01*
X59031Y545280D01*
X60029Y543906D01*
X60800Y542392D01*
X61253Y540999D01*
X53549Y540999D01*
G37*
%LPD*%
%LPC*%
G36*
X53549Y172699D02*
X53549Y172699D01*
X53549Y180403D01*
X54942Y179950D01*
X56456Y179179D01*
X57830Y178181D01*
X59031Y176980D01*
X60029Y175606D01*
X60800Y174092D01*
X61253Y172699D01*
X53549Y172699D01*
G37*
%LPD*%
%LPC*%
G36*
X53549Y26649D02*
X53549Y26649D01*
X53549Y34353D01*
X54942Y33900D01*
X56456Y33129D01*
X57830Y32131D01*
X59031Y30930D01*
X60029Y29556D01*
X60800Y28042D01*
X61253Y26649D01*
X53549Y26649D01*
G37*
%LPD*%
%LPC*%
G36*
X53549Y535501D02*
X53549Y535501D01*
X61253Y535501D01*
X60800Y534108D01*
X60029Y532594D01*
X59031Y531220D01*
X57830Y530019D01*
X56456Y529021D01*
X54942Y528250D01*
X53549Y527797D01*
X53549Y535501D01*
G37*
%LPD*%
%LPC*%
G36*
X53549Y167201D02*
X53549Y167201D01*
X61253Y167201D01*
X60800Y165808D01*
X60029Y164294D01*
X59031Y162920D01*
X57830Y161719D01*
X56456Y160721D01*
X54942Y159950D01*
X53549Y159497D01*
X53549Y167201D01*
G37*
%LPD*%
%LPC*%
G36*
X40347Y26649D02*
X40347Y26649D01*
X40800Y28042D01*
X41571Y29556D01*
X42569Y30930D01*
X43770Y32131D01*
X45144Y33129D01*
X46658Y33900D01*
X48051Y34353D01*
X48051Y26649D01*
X40347Y26649D01*
G37*
%LPD*%
%LPC*%
G36*
X53549Y681551D02*
X53549Y681551D01*
X61253Y681551D01*
X60800Y680158D01*
X60029Y678644D01*
X59031Y677270D01*
X57830Y676069D01*
X56456Y675071D01*
X54942Y674300D01*
X53549Y673847D01*
X53549Y681551D01*
G37*
%LPD*%
%LPC*%
G36*
X40347Y172699D02*
X40347Y172699D01*
X40800Y174092D01*
X41571Y175606D01*
X42569Y176980D01*
X43770Y178181D01*
X45144Y179179D01*
X46658Y179950D01*
X48051Y180403D01*
X48051Y172699D01*
X40347Y172699D01*
G37*
%LPD*%
%LPC*%
G36*
X40347Y540999D02*
X40347Y540999D01*
X40800Y542392D01*
X41571Y543906D01*
X42569Y545280D01*
X43770Y546481D01*
X45144Y547479D01*
X46658Y548250D01*
X48051Y548703D01*
X48051Y540999D01*
X40347Y540999D01*
G37*
%LPD*%
%LPC*%
G36*
X40347Y687049D02*
X40347Y687049D01*
X40800Y688442D01*
X41571Y689956D01*
X42569Y691330D01*
X43770Y692531D01*
X45144Y693529D01*
X46658Y694300D01*
X48051Y694753D01*
X48051Y687049D01*
X40347Y687049D01*
G37*
%LPD*%
%LPC*%
G36*
X402297Y26649D02*
X402297Y26649D01*
X402750Y28042D01*
X403521Y29556D01*
X404519Y30930D01*
X405720Y32131D01*
X407094Y33129D01*
X408608Y33900D01*
X410001Y34353D01*
X410001Y26649D01*
X402297Y26649D01*
G37*
%LPD*%
%LPC*%
G36*
X46658Y528250D02*
X46658Y528250D01*
X45144Y529021D01*
X43770Y530019D01*
X42569Y531220D01*
X41571Y532594D01*
X40800Y534108D01*
X40347Y535501D01*
X48051Y535501D01*
X48051Y527797D01*
X46658Y528250D01*
G37*
%LPD*%
%LPC*%
G36*
X46658Y674300D02*
X46658Y674300D01*
X45144Y675071D01*
X43770Y676069D01*
X42569Y677270D01*
X41571Y678644D01*
X40800Y680158D01*
X40347Y681551D01*
X48051Y681551D01*
X48051Y673847D01*
X46658Y674300D01*
G37*
%LPD*%
%LPC*%
G36*
X46658Y159950D02*
X46658Y159950D01*
X45144Y160721D01*
X43770Y161719D01*
X42569Y162920D01*
X41571Y164294D01*
X40800Y165808D01*
X40347Y167201D01*
X48051Y167201D01*
X48051Y159497D01*
X46658Y159950D01*
G37*
%LPD*%
%LPC*%
G36*
X179831Y389381D02*
X179831Y389381D01*
X179831Y396495D01*
X181588Y396495D01*
X186945Y391138D01*
X186945Y389381D01*
X179831Y389381D01*
G37*
%LPD*%
%LPC*%
G36*
X351281Y948181D02*
X351281Y948181D01*
X351281Y955295D01*
X353038Y955295D01*
X358395Y949938D01*
X358395Y948181D01*
X351281Y948181D01*
G37*
%LPD*%
%LPC*%
G36*
X433831Y389381D02*
X433831Y389381D01*
X433831Y396495D01*
X435588Y396495D01*
X440945Y391138D01*
X440945Y389381D01*
X433831Y389381D01*
G37*
%LPD*%
%LPC*%
G36*
X179831Y490981D02*
X179831Y490981D01*
X179831Y498095D01*
X181588Y498095D01*
X186945Y492738D01*
X186945Y490981D01*
X179831Y490981D01*
G37*
%LPD*%
%LPC*%
G36*
X383031Y344931D02*
X383031Y344931D01*
X383031Y352045D01*
X384788Y352045D01*
X390145Y346688D01*
X390145Y344931D01*
X383031Y344931D01*
G37*
%LPD*%
%LPC*%
G36*
X433831Y179831D02*
X433831Y179831D01*
X433831Y186945D01*
X435588Y186945D01*
X440945Y181588D01*
X440945Y179831D01*
X433831Y179831D01*
G37*
%LPD*%
%LPC*%
G36*
X179831Y338581D02*
X179831Y338581D01*
X179831Y345695D01*
X181588Y345695D01*
X186945Y340338D01*
X186945Y338581D01*
X179831Y338581D01*
G37*
%LPD*%
%LPC*%
G36*
X179831Y440181D02*
X179831Y440181D01*
X179831Y447295D01*
X181588Y447295D01*
X186945Y441938D01*
X186945Y440181D01*
X179831Y440181D01*
G37*
%LPD*%
%LPC*%
G36*
X52831Y338581D02*
X52831Y338581D01*
X52831Y345695D01*
X54588Y345695D01*
X59945Y340338D01*
X59945Y338581D01*
X52831Y338581D01*
G37*
%LPD*%
%LPC*%
G36*
X41655Y338581D02*
X41655Y338581D01*
X41655Y340338D01*
X47012Y345695D01*
X48769Y345695D01*
X48769Y338581D01*
X41655Y338581D01*
G37*
%LPD*%
%LPC*%
G36*
X168655Y440181D02*
X168655Y440181D01*
X168655Y441938D01*
X174012Y447295D01*
X175769Y447295D01*
X175769Y440181D01*
X168655Y440181D01*
G37*
%LPD*%
%LPC*%
G36*
X168655Y338581D02*
X168655Y338581D01*
X168655Y340338D01*
X174012Y345695D01*
X175769Y345695D01*
X175769Y338581D01*
X168655Y338581D01*
G37*
%LPD*%
%LPC*%
G36*
X168655Y389381D02*
X168655Y389381D01*
X168655Y391138D01*
X174012Y396495D01*
X175769Y396495D01*
X175769Y389381D01*
X168655Y389381D01*
G37*
%LPD*%
%LPC*%
G36*
X422655Y179831D02*
X422655Y179831D01*
X422655Y181588D01*
X428012Y186945D01*
X429769Y186945D01*
X429769Y179831D01*
X422655Y179831D01*
G37*
%LPD*%
%LPC*%
G36*
X168655Y490981D02*
X168655Y490981D01*
X168655Y492738D01*
X174012Y498095D01*
X175769Y498095D01*
X175769Y490981D01*
X168655Y490981D01*
G37*
%LPD*%
%LPC*%
G36*
X340105Y948181D02*
X340105Y948181D01*
X340105Y949938D01*
X345462Y955295D01*
X347219Y955295D01*
X347219Y948181D01*
X340105Y948181D01*
G37*
%LPD*%
%LPC*%
G36*
X422655Y389381D02*
X422655Y389381D01*
X422655Y391138D01*
X428012Y396495D01*
X429769Y396495D01*
X429769Y389381D01*
X422655Y389381D01*
G37*
%LPD*%
%LPC*%
G36*
X433831Y168655D02*
X433831Y168655D01*
X433831Y175769D01*
X440945Y175769D01*
X440945Y174012D01*
X435588Y168655D01*
X433831Y168655D01*
G37*
%LPD*%
%LPC*%
G36*
X179831Y429005D02*
X179831Y429005D01*
X179831Y436119D01*
X186945Y436119D01*
X186945Y434362D01*
X181588Y429005D01*
X179831Y429005D01*
G37*
%LPD*%
%LPC*%
G36*
X433831Y378205D02*
X433831Y378205D01*
X433831Y385319D01*
X440945Y385319D01*
X440945Y383562D01*
X435588Y378205D01*
X433831Y378205D01*
G37*
%LPD*%
%LPC*%
G36*
X179831Y479805D02*
X179831Y479805D01*
X179831Y486919D01*
X186945Y486919D01*
X186945Y485162D01*
X181588Y479805D01*
X179831Y479805D01*
G37*
%LPD*%
%LPC*%
G36*
X179831Y378205D02*
X179831Y378205D01*
X179831Y385319D01*
X186945Y385319D01*
X186945Y383562D01*
X181588Y378205D01*
X179831Y378205D01*
G37*
%LPD*%
%LPC*%
G36*
X179831Y327405D02*
X179831Y327405D01*
X179831Y334519D01*
X186945Y334519D01*
X186945Y332762D01*
X181588Y327405D01*
X179831Y327405D01*
G37*
%LPD*%
%LPC*%
G36*
X52831Y327405D02*
X52831Y327405D01*
X52831Y334519D01*
X59945Y334519D01*
X59945Y332762D01*
X54588Y327405D01*
X52831Y327405D01*
G37*
%LPD*%
%LPC*%
G36*
X351281Y937005D02*
X351281Y937005D01*
X351281Y944119D01*
X358395Y944119D01*
X358395Y942362D01*
X353038Y937005D01*
X351281Y937005D01*
G37*
%LPD*%
%LPC*%
G36*
X428012Y168655D02*
X428012Y168655D01*
X422655Y174012D01*
X422655Y175769D01*
X429769Y175769D01*
X429769Y168655D01*
X428012Y168655D01*
G37*
%LPD*%
%LPC*%
G36*
X47012Y327405D02*
X47012Y327405D01*
X41655Y332762D01*
X41655Y334519D01*
X48769Y334519D01*
X48769Y327405D01*
X47012Y327405D01*
G37*
%LPD*%
%LPC*%
G36*
X174012Y327405D02*
X174012Y327405D01*
X168655Y332762D01*
X168655Y334519D01*
X175769Y334519D01*
X175769Y327405D01*
X174012Y327405D01*
G37*
%LPD*%
%LPC*%
G36*
X174012Y429005D02*
X174012Y429005D01*
X168655Y434362D01*
X168655Y436119D01*
X175769Y436119D01*
X175769Y429005D01*
X174012Y429005D01*
G37*
%LPD*%
%LPC*%
G36*
X174012Y378205D02*
X174012Y378205D01*
X168655Y383562D01*
X168655Y385319D01*
X175769Y385319D01*
X175769Y378205D01*
X174012Y378205D01*
G37*
%LPD*%
%LPC*%
G36*
X174012Y479805D02*
X174012Y479805D01*
X168655Y485162D01*
X168655Y486919D01*
X175769Y486919D01*
X175769Y479805D01*
X174012Y479805D01*
G37*
%LPD*%
%LPC*%
G36*
X428012Y378205D02*
X428012Y378205D01*
X422655Y383562D01*
X422655Y385319D01*
X429769Y385319D01*
X429769Y378205D01*
X428012Y378205D01*
G37*
%LPD*%
%LPC*%
G36*
X345462Y937005D02*
X345462Y937005D01*
X340105Y942362D01*
X340105Y944119D01*
X347219Y944119D01*
X347219Y937005D01*
X345462Y937005D01*
G37*
%LPD*%
D10*
X336550Y114300D03*
X336550Y190500D03*
D11*
X381000Y203200D03*
X431800Y203200D03*
D10*
X285750Y247650D03*
X285750Y323850D03*
D12*
X311150Y311150D03*
X311150Y260350D03*
X336550Y323850D03*
X336550Y247650D03*
D13*
X438460Y234950D02*
X450540Y234950D01*
X450540Y260350D02*
X438460Y260350D01*
X438460Y285750D02*
X450540Y285750D01*
X450540Y311150D02*
X438460Y311150D01*
X374340Y311150D02*
X362260Y311150D01*
X362260Y285750D02*
X374340Y285750D01*
X374340Y260350D02*
X362260Y260350D01*
X362260Y234950D02*
X374340Y234950D01*
D14*
X412750Y138900D03*
X412750Y53900D03*
X412750Y23900D03*
D15*
X431800Y342900D03*
X381000Y342900D03*
D11*
X381000Y177800D03*
X431800Y177800D03*
D16*
X437896Y425450D02*
X451104Y425450D01*
X451104Y450850D02*
X437896Y450850D01*
X437896Y476250D02*
X451104Y476250D01*
X451104Y501650D02*
X437896Y501650D01*
X374904Y501650D02*
X361696Y501650D01*
X361696Y476250D02*
X374904Y476250D01*
X374904Y450850D02*
X361696Y450850D01*
X361696Y425450D02*
X374904Y425450D01*
D17*
X165500Y18900D03*
D18*
X190500Y18900D03*
X215500Y18900D03*
D19*
X235500Y88900D03*
X145500Y88900D03*
D17*
X165500Y164950D03*
D18*
X190500Y164950D03*
X215500Y164950D03*
D19*
X235500Y234950D03*
X145500Y234950D03*
D12*
X311150Y190500D03*
X311150Y114300D03*
X285750Y190500D03*
X285750Y114300D03*
D14*
X50800Y284950D03*
X50800Y199950D03*
X50800Y169950D03*
X50800Y138900D03*
X50800Y53900D03*
X50800Y23900D03*
D11*
X241300Y469900D03*
X317500Y469900D03*
X241300Y444500D03*
X317500Y444500D03*
X241300Y406400D03*
X317500Y406400D03*
X241300Y381000D03*
X317500Y381000D03*
D14*
X50800Y799300D03*
X50800Y714300D03*
X50800Y684300D03*
D17*
X216300Y901550D03*
D18*
X241300Y901550D03*
X266300Y901550D03*
D19*
X286300Y971550D03*
X196300Y971550D03*
D17*
X165500Y679300D03*
D18*
X190500Y679300D03*
X215500Y679300D03*
D19*
X235500Y749300D03*
X145500Y749300D03*
D15*
X203200Y488950D03*
X177800Y488950D03*
X203200Y438150D03*
X177800Y438150D03*
X203200Y387350D03*
X177800Y387350D03*
X203200Y336550D03*
X177800Y336550D03*
D11*
X381000Y387350D03*
X431800Y387350D03*
D15*
X317500Y819150D03*
X241300Y819150D03*
X317500Y869950D03*
X241300Y869950D03*
X400050Y946150D03*
X349250Y946150D03*
X374650Y920750D03*
X317500Y844550D03*
X241300Y844550D03*
D20*
X63900Y437750D03*
X63900Y387750D03*
X113900Y387750D03*
X113900Y437750D03*
D11*
X50800Y336550D03*
X127000Y336550D03*
D14*
X50800Y653250D03*
X50800Y568250D03*
X50800Y538250D03*
D17*
X387750Y609450D03*
D18*
X412750Y609450D03*
X437750Y609450D03*
D19*
X457750Y679450D03*
X367750Y679450D03*
D17*
X165500Y533250D03*
D18*
X190500Y533250D03*
X215500Y533250D03*
D19*
X235500Y603250D03*
X145500Y603250D03*
D10*
X349250Y793750D03*
X349250Y869950D03*
X374650Y793750D03*
X374650Y869950D03*
D11*
X279400Y723900D03*
X330200Y723900D03*
X304800Y749300D03*
D10*
X400050Y793750D03*
X400050Y869950D03*
D21*
X33020Y971550D02*
X17780Y971550D01*
X17780Y946150D02*
X33020Y946150D01*
X33020Y920750D02*
X17780Y920750D01*
X17780Y895350D02*
X33020Y895350D01*
X33020Y869950D02*
X17780Y869950D01*
X17780Y844550D02*
X33020Y844550D01*
X449580Y971550D02*
X464820Y971550D01*
X464820Y946150D02*
X449580Y946150D01*
X449580Y920750D02*
X464820Y920750D01*
X464820Y895350D02*
X449580Y895350D01*
X449580Y869950D02*
X464820Y869950D01*
X464820Y844550D02*
X449580Y844550D01*
D22*
X457200Y946150D02*
X400050Y946150D01*
X361950Y882650D02*
X361950Y755650D01*
X361950Y882650D02*
X400050Y920750D01*
X400050Y946150D01*
X361950Y755650D02*
X330200Y723900D01*
X330200Y558800D01*
X412750Y558800D02*
X412750Y374650D01*
X431800Y355600D01*
X431800Y342900D01*
X444500Y330200D02*
X444500Y311150D01*
X444500Y330200D02*
X431800Y342900D01*
D23*
X330200Y558800D03*
X412750Y558800D03*
D22*
X400050Y234950D02*
X368300Y234950D01*
X400050Y234950D02*
X400050Y196850D01*
X381000Y177800D01*
X298450Y565150D02*
X311150Y577850D01*
X298450Y565150D02*
X298450Y361950D01*
X400050Y304800D02*
X400050Y234950D01*
X317500Y342900D02*
X298450Y361950D01*
X317500Y342900D02*
X361950Y342900D01*
X400050Y304800D01*
D23*
X311150Y577850D03*
D24*
X431800Y234950D02*
X431800Y203200D01*
X431800Y234950D02*
X444500Y234950D01*
X273050Y641350D02*
X260350Y654050D01*
X412750Y254000D02*
X431800Y234950D01*
X412750Y254000D02*
X412750Y342900D01*
X400050Y355600D01*
X273050Y355600D02*
X273050Y641350D01*
X260350Y654050D02*
X260350Y736600D01*
X330200Y806450D01*
X330200Y895350D01*
D23*
X330200Y895350D03*
X400050Y355600D03*
X273050Y355600D03*
D24*
X438150Y920750D02*
X457200Y920750D01*
X438150Y920750D02*
X425450Y908050D01*
X393700Y654050D02*
X368300Y628650D01*
X425450Y850900D02*
X425450Y908050D01*
X425450Y850900D02*
X412750Y838200D01*
X412750Y755650D01*
X393700Y736600D01*
X393700Y654050D01*
X368300Y628650D02*
X368300Y533400D01*
X285750Y533400D02*
X285750Y323850D01*
D23*
X368300Y533400D03*
X285750Y533400D03*
D24*
X336550Y323850D02*
X336550Y298450D01*
X387350Y139700D02*
X412750Y139700D01*
X412776Y139651D01*
X412799Y139600D01*
X412818Y139547D01*
X412833Y139494D01*
X412845Y139439D01*
X412853Y139384D01*
X412857Y139328D01*
X412857Y139272D01*
X412853Y139216D01*
X412845Y139161D01*
X412833Y139106D01*
X412818Y139053D01*
X412799Y139000D01*
X412776Y138949D01*
X412750Y138900D01*
X323850Y285750D02*
X336550Y298450D01*
X323850Y285750D02*
X323850Y234950D01*
X361950Y196850D01*
X361950Y165100D01*
X387350Y139700D01*
X63500Y869950D02*
X25400Y869950D01*
X63500Y869950D02*
X95250Y838200D01*
X234950Y488950D02*
X209550Y463550D01*
X95250Y488950D02*
X95250Y838200D01*
X95250Y488950D02*
X120650Y463550D01*
X209550Y463550D01*
D23*
X234950Y488950D03*
D24*
X336550Y450850D02*
X368300Y450850D01*
X63500Y895350D02*
X25400Y895350D01*
X63500Y895350D02*
X107950Y850900D01*
X323850Y450850D02*
X336550Y450850D01*
X323850Y450850D02*
X317500Y444500D01*
X107950Y514350D02*
X107950Y850900D01*
X336550Y514350D02*
X336550Y450850D01*
D23*
X107950Y514350D03*
X336550Y514350D03*
D24*
X330200Y406400D02*
X317500Y406400D01*
X330200Y406400D02*
X342900Y419100D01*
X342900Y438150D01*
X63500Y946150D02*
X25400Y946150D01*
X285750Y641350D02*
X285750Y546100D01*
X203200Y806450D02*
X63500Y946150D01*
D23*
X203200Y806450D03*
X342900Y438150D03*
X285750Y641350D03*
X285750Y546100D03*
D24*
X63500Y920750D02*
X25400Y920750D01*
X63500Y920750D02*
X120650Y863600D01*
X120650Y552450D01*
X260350Y552450D02*
X260350Y381000D01*
D23*
X120650Y552450D03*
X260350Y552450D03*
X260350Y381000D03*
D22*
X368300Y425450D02*
X393700Y425450D01*
X393700Y400050D01*
X381000Y387350D01*
X393700Y565150D02*
X412750Y584200D01*
X450850Y584200D01*
X463550Y596900D01*
X463550Y622300D02*
X425450Y660400D01*
X425450Y717550D01*
X457200Y749300D01*
X457200Y844550D01*
X393700Y565150D02*
X393700Y425450D01*
X463550Y596900D02*
X463550Y622300D01*
D24*
X317500Y844550D02*
X311150Y844550D01*
X298450Y857250D01*
X298450Y901700D01*
X317500Y920750D01*
X374650Y920750D01*
X215900Y565150D02*
X215900Y533250D01*
D23*
X215900Y565150D03*
X215900Y533250D03*
D24*
X374650Y730250D02*
X374650Y793750D01*
D23*
X374650Y730250D03*
D24*
X63500Y971550D02*
X25400Y971550D01*
X63500Y971550D02*
X165100Y869950D01*
X241300Y869950D01*
X190500Y768350D02*
X190500Y679300D01*
X190500Y768350D02*
X222250Y800100D01*
X279400Y800100D01*
X298450Y819150D01*
X317500Y819150D01*
X349250Y793750D02*
X349250Y768350D01*
X298450Y717550D02*
X298450Y590550D01*
X190500Y577850D02*
X190500Y533400D01*
X298450Y717550D02*
X349250Y768350D01*
D23*
X298450Y590550D03*
X190500Y577850D03*
M02*
