M48
;GenerationSoftware,Autodesk,EAGLE,9.6.2*%
;CreationDate,2022-04-22T14:08:47Z*%
FMAT,2
ICI,OFF
METRIC,TZ,000.000
T8C0.350
T7C0.700
T6C0.813
T5C1.000
T4C1.016
T3C1.100
T2C2.100
T1C3.200
%
G90
M71
T1
X30480Y6350
T2
X14550Y8890
X28630Y97155
X23550Y8890
X19630Y97155
X14550Y74930
X23550Y74930
X45775Y67945
X36775Y67945
X23550Y60325
X23550Y23495
X14550Y23495
X14550Y60325
T3
X21550Y16495
X21550Y53325
X19050Y53325
X16550Y53325
X19050Y16495
X16550Y16495
X43775Y60945
X41275Y60945
X38775Y60945
X5080Y53825
X16550Y1890
X5080Y56825
X5080Y65325
X5080Y28495
X5080Y19995
X5080Y16995
X5080Y13890
X19050Y1890
X5080Y5390
X5080Y2390
X19050Y67930
X16550Y67930
X21550Y1890
X21550Y67930
X26630Y90155
X24130Y90155
X21630Y90155
X5080Y68430
X5080Y71430
X41275Y13890
X41275Y5390
X41275Y2390
X5080Y79930
T4
X45720Y89535
X45720Y86995
X2540Y97155
X2540Y94615
X2540Y92075
X2540Y89535
X2540Y86995
X2540Y84455
X45720Y97155
X45720Y94615
X45720Y92075
X45720Y84455
T5
X6390Y43775
X6390Y38775
X11390Y38775
X11390Y43775
T6
X36830Y42545
X36830Y45085
X36830Y47625
X36830Y50165
X44450Y50165
X31115Y19050
X31115Y11430
X28575Y19050
X28575Y11430
X44450Y47625
X44450Y45085
X44450Y42545
X43180Y17780
X38100Y17780
X38100Y34290
X24130Y46990
X31750Y46990
X24130Y44450
X31750Y44450
X24130Y40640
X31750Y40640
X24130Y38100
X31750Y38100
X43180Y34290
X40005Y86995
X40005Y79375
X30480Y74930
X33020Y72390
X27940Y72390
X37465Y86995
X37465Y79375
X34925Y86995
X33655Y24765
X33655Y32385
X31115Y26035
X31115Y31115
X20320Y48895
X17780Y48895
X20320Y43815
X17780Y43815
X20320Y38735
X17780Y38735
X20320Y33655
X17780Y33655
X38100Y38735
X43180Y38735
X31750Y81915
X24130Y81915
X31750Y86995
X24130Y86995
X40005Y94615
X34925Y94615
X37465Y92075
X31750Y84455
X24130Y84455
X28575Y32385
X28575Y24765
X43180Y20320
X38100Y20320
X5080Y33655
X12700Y33655
X33655Y19050
X33655Y11430
X34925Y79375
T7
X36830Y31115
X36830Y23495
X36830Y26035
X36830Y28575
X44450Y31115
X44450Y28575
X44450Y26035
X44450Y23495
T8
X28575Y64135
X34290Y43815
X19050Y57785
X28575Y54610
X12065Y55245
X26035Y55245
X26035Y38100
X29845Y59055
X21590Y56515
X21590Y53325
X37465Y73025
X20320Y80645
X33655Y51435
X10795Y51435
X23495Y48895
X28575Y53340
X36830Y53340
X27305Y35560
X40005Y35560
X33020Y89535
X31115Y57785
X41275Y55880
X33020Y55880
M30