G04 EAGLE Gerber RS-274X export*
G75*
%MOMM*%
%FSLAX34Y34*%
%LPD*%
%INBoard Outline*%
%IPPOS*%
%AMOC8*
5,1,8,0,0,1.08239X$1,22.5*%
G01*
%ADD10C,0.000000*%
%ADD11C,0.254000*%


D10*
X0Y0D02*
X482600Y0D01*
X482600Y996950D01*
X0Y996850D01*
X0Y0D01*
X288800Y63500D02*
X288805Y63893D01*
X288819Y64285D01*
X288843Y64677D01*
X288877Y65068D01*
X288920Y65459D01*
X288973Y65848D01*
X289036Y66235D01*
X289107Y66621D01*
X289189Y67006D01*
X289279Y67388D01*
X289380Y67767D01*
X289489Y68145D01*
X289608Y68519D01*
X289735Y68890D01*
X289872Y69258D01*
X290018Y69623D01*
X290173Y69984D01*
X290336Y70341D01*
X290508Y70694D01*
X290689Y71042D01*
X290879Y71386D01*
X291076Y71726D01*
X291282Y72060D01*
X291496Y72389D01*
X291719Y72713D01*
X291949Y73031D01*
X292186Y73344D01*
X292432Y73650D01*
X292685Y73951D01*
X292945Y74245D01*
X293212Y74533D01*
X293486Y74814D01*
X293767Y75088D01*
X294055Y75355D01*
X294349Y75615D01*
X294650Y75868D01*
X294956Y76114D01*
X295269Y76351D01*
X295587Y76581D01*
X295911Y76804D01*
X296240Y77018D01*
X296574Y77224D01*
X296914Y77421D01*
X297258Y77611D01*
X297606Y77792D01*
X297959Y77964D01*
X298316Y78127D01*
X298677Y78282D01*
X299042Y78428D01*
X299410Y78565D01*
X299781Y78692D01*
X300155Y78811D01*
X300533Y78920D01*
X300912Y79021D01*
X301294Y79111D01*
X301679Y79193D01*
X302065Y79264D01*
X302452Y79327D01*
X302841Y79380D01*
X303232Y79423D01*
X303623Y79457D01*
X304015Y79481D01*
X304407Y79495D01*
X304800Y79500D01*
X305193Y79495D01*
X305585Y79481D01*
X305977Y79457D01*
X306368Y79423D01*
X306759Y79380D01*
X307148Y79327D01*
X307535Y79264D01*
X307921Y79193D01*
X308306Y79111D01*
X308688Y79021D01*
X309067Y78920D01*
X309445Y78811D01*
X309819Y78692D01*
X310190Y78565D01*
X310558Y78428D01*
X310923Y78282D01*
X311284Y78127D01*
X311641Y77964D01*
X311994Y77792D01*
X312342Y77611D01*
X312686Y77421D01*
X313026Y77224D01*
X313360Y77018D01*
X313689Y76804D01*
X314013Y76581D01*
X314331Y76351D01*
X314644Y76114D01*
X314950Y75868D01*
X315251Y75615D01*
X315545Y75355D01*
X315833Y75088D01*
X316114Y74814D01*
X316388Y74533D01*
X316655Y74245D01*
X316915Y73951D01*
X317168Y73650D01*
X317414Y73344D01*
X317651Y73031D01*
X317881Y72713D01*
X318104Y72389D01*
X318318Y72060D01*
X318524Y71726D01*
X318721Y71386D01*
X318911Y71042D01*
X319092Y70694D01*
X319264Y70341D01*
X319427Y69984D01*
X319582Y69623D01*
X319728Y69258D01*
X319865Y68890D01*
X319992Y68519D01*
X320111Y68145D01*
X320220Y67767D01*
X320321Y67388D01*
X320411Y67006D01*
X320493Y66621D01*
X320564Y66235D01*
X320627Y65848D01*
X320680Y65459D01*
X320723Y65068D01*
X320757Y64677D01*
X320781Y64285D01*
X320795Y63893D01*
X320800Y63500D01*
X320795Y63107D01*
X320781Y62715D01*
X320757Y62323D01*
X320723Y61932D01*
X320680Y61541D01*
X320627Y61152D01*
X320564Y60765D01*
X320493Y60379D01*
X320411Y59994D01*
X320321Y59612D01*
X320220Y59233D01*
X320111Y58855D01*
X319992Y58481D01*
X319865Y58110D01*
X319728Y57742D01*
X319582Y57377D01*
X319427Y57016D01*
X319264Y56659D01*
X319092Y56306D01*
X318911Y55958D01*
X318721Y55614D01*
X318524Y55274D01*
X318318Y54940D01*
X318104Y54611D01*
X317881Y54287D01*
X317651Y53969D01*
X317414Y53656D01*
X317168Y53350D01*
X316915Y53049D01*
X316655Y52755D01*
X316388Y52467D01*
X316114Y52186D01*
X315833Y51912D01*
X315545Y51645D01*
X315251Y51385D01*
X314950Y51132D01*
X314644Y50886D01*
X314331Y50649D01*
X314013Y50419D01*
X313689Y50196D01*
X313360Y49982D01*
X313026Y49776D01*
X312686Y49579D01*
X312342Y49389D01*
X311994Y49208D01*
X311641Y49036D01*
X311284Y48873D01*
X310923Y48718D01*
X310558Y48572D01*
X310190Y48435D01*
X309819Y48308D01*
X309445Y48189D01*
X309067Y48080D01*
X308688Y47979D01*
X308306Y47889D01*
X307921Y47807D01*
X307535Y47736D01*
X307148Y47673D01*
X306759Y47620D01*
X306368Y47577D01*
X305977Y47543D01*
X305585Y47519D01*
X305193Y47505D01*
X304800Y47500D01*
X304407Y47505D01*
X304015Y47519D01*
X303623Y47543D01*
X303232Y47577D01*
X302841Y47620D01*
X302452Y47673D01*
X302065Y47736D01*
X301679Y47807D01*
X301294Y47889D01*
X300912Y47979D01*
X300533Y48080D01*
X300155Y48189D01*
X299781Y48308D01*
X299410Y48435D01*
X299042Y48572D01*
X298677Y48718D01*
X298316Y48873D01*
X297959Y49036D01*
X297606Y49208D01*
X297258Y49389D01*
X296914Y49579D01*
X296574Y49776D01*
X296240Y49982D01*
X295911Y50196D01*
X295587Y50419D01*
X295269Y50649D01*
X294956Y50886D01*
X294650Y51132D01*
X294349Y51385D01*
X294055Y51645D01*
X293767Y51912D01*
X293486Y52186D01*
X293212Y52467D01*
X292945Y52755D01*
X292685Y53049D01*
X292432Y53350D01*
X292186Y53656D01*
X291949Y53969D01*
X291719Y54287D01*
X291496Y54611D01*
X291282Y54940D01*
X291076Y55274D01*
X290879Y55614D01*
X290689Y55958D01*
X290508Y56306D01*
X290336Y56659D01*
X290173Y57016D01*
X290018Y57377D01*
X289872Y57742D01*
X289735Y58110D01*
X289608Y58481D01*
X289489Y58855D01*
X289380Y59233D01*
X289279Y59612D01*
X289189Y59994D01*
X289107Y60379D01*
X289036Y60765D01*
X288973Y61152D01*
X288920Y61541D01*
X288877Y61932D01*
X288843Y62323D01*
X288819Y62715D01*
X288805Y63107D01*
X288800Y63500D01*
D11*
X0Y0D02*
X482600Y0D01*
X482600Y996950D01*
X0Y996850D01*
X0Y0D01*
X320800Y62976D02*
X320732Y61931D01*
X320595Y60892D01*
X320390Y59865D01*
X320119Y58853D01*
X319783Y57861D01*
X319382Y56893D01*
X318918Y55954D01*
X318395Y55046D01*
X317813Y54175D01*
X317175Y53344D01*
X316484Y52557D01*
X315743Y51816D01*
X314956Y51125D01*
X314125Y50488D01*
X313254Y49906D01*
X312346Y49382D01*
X311407Y48918D01*
X310439Y48517D01*
X309447Y48181D01*
X308435Y47910D01*
X307408Y47705D01*
X306369Y47569D01*
X305324Y47500D01*
X304276Y47500D01*
X303231Y47569D01*
X302192Y47705D01*
X301165Y47910D01*
X300153Y48181D01*
X299161Y48517D01*
X298193Y48918D01*
X297254Y49382D01*
X296346Y49906D01*
X295475Y50488D01*
X294644Y51125D01*
X293857Y51816D01*
X293116Y52557D01*
X292425Y53344D01*
X291788Y54175D01*
X291206Y55046D01*
X290682Y55954D01*
X290218Y56893D01*
X289817Y57861D01*
X289481Y58853D01*
X289210Y59865D01*
X289005Y60892D01*
X288869Y61931D01*
X288800Y62976D01*
X288800Y64024D01*
X288869Y65069D01*
X289005Y66108D01*
X289210Y67135D01*
X289481Y68147D01*
X289817Y69139D01*
X290218Y70107D01*
X290682Y71046D01*
X291206Y71954D01*
X291788Y72825D01*
X292425Y73656D01*
X293116Y74443D01*
X293857Y75184D01*
X294644Y75875D01*
X295475Y76513D01*
X296346Y77095D01*
X297254Y77618D01*
X298193Y78082D01*
X299161Y78483D01*
X300153Y78819D01*
X301165Y79090D01*
X302192Y79295D01*
X303231Y79432D01*
X304276Y79500D01*
X305324Y79500D01*
X306369Y79432D01*
X307408Y79295D01*
X308435Y79090D01*
X309447Y78819D01*
X310439Y78483D01*
X311407Y78082D01*
X312346Y77618D01*
X313254Y77095D01*
X314125Y76513D01*
X314956Y75875D01*
X315743Y75184D01*
X316484Y74443D01*
X317175Y73656D01*
X317813Y72825D01*
X318395Y71954D01*
X318918Y71046D01*
X319382Y70107D01*
X319783Y69139D01*
X320119Y68147D01*
X320390Y67135D01*
X320595Y66108D01*
X320732Y65069D01*
X320800Y64024D01*
X320800Y62976D01*
M02*
